SplineFontDB: 3.2
FontName: Atari-1025-Normal
FullName: Atari 1025 Normal Regular
FamilyName: Atari 1025 Normal
Weight: Book
Copyright: Copyright Jeff Piepmeier 2020\n
Version: 1.0
ItalicAngle: 0
UnderlinePosition: 75
UnderlineWidth: 50
Ascent: 800
Descent: 200
InvalidEm: 0
sfntRevision: 0x00010000
LayerCount: 2
Layer: 0 1 "Back" 1
Layer: 1 1 "Fore" 0
XUID: [1021 362 -792500644 20019]
StyleMap: 0x0040
FSType: 4
OS2Version: 2
OS2_WeightWidthSlopeOnly: 0
OS2_UseTypoMetrics: 0
CreationTime: 1588422247
ModificationTime: 1589027409
PfmFamily: 81
TTFWeight: 400
TTFWidth: 5
LineGap: 0
VLineGap: 0
Panose: 0 0 4 0 0 0 0 0 0 0
OS2TypoAscent: 1000
OS2TypoAOffset: 0
OS2TypoDescent: 0
OS2TypoDOffset: 0
OS2TypoLinegap: 0
OS2WinAscent: 1000
OS2WinAOffset: 0
OS2WinDescent: 0
OS2WinDOffset: 0
HheadAscent: 1000
HheadAOffset: 0
HheadDescent: 0
HheadDOffset: 0
OS2SubXSize: 500
OS2SubYSize: 500
OS2SubXOff: 0
OS2SubYOff: 0
OS2SupXSize: 500
OS2SupYSize: 500
OS2SupXOff: 0
OS2SupYOff: 500
OS2StrikeYSize: 50
OS2StrikeYPos: 200
OS2CapHeight: 1000
OS2XHeight: 500
OS2Vendor: 'FSTR'
OS2CodePages: 00000011.00000000
OS2UnicodeRanges: 00000003.00000000.00000000.00000000
MarkAttachClasses: 1
DEI: 91125
ShortTable: maxp 16
  1
  0
  130
  391
  23
  0
  0
  2
  0
  0
  0
  0
  0
  0
  0
  0
EndShort
LangName: 1033 "Copyright jeffpiep 2020+AAogHAAA-Atari 1025 Elongated" "" "Regular" "Atari 1025 Normal" "" "Version 1.0" "" "" "" "" "" "" "" "Open Font License" "" "" "" "" "" "Five big quacking zephyrs jolt my wax bed"
Encoding: win
UnicodeInterp: none
NameList: AGL For New Fonts
DisplaySize: -48
AntiAlias: 1
FitToEm: 0
WinInfo: 64 16 10
BeginPrivate: 0
EndPrivate
BeginChars: 256 130

StartChar: exclam
Encoding: 33 33 1
Width: 600
VWidth: 629
Flags: W
LayerCount: 2
Fore
SplineSet
250 1 m 1,0,1
 229 1 229 1 214 15 c 0,2,3
 200 29 200 29 200 50 c 256,4,5
 200 71 200 71 214 85 c 256,6,7
 228 99 228 99 250 101 c 256,8,9
 271 101 271 101 285 85 c 0,10,11
 299 71 299 71 299 50 c 256,12,13
 299 29 299 29 285 15 c 0,14,15
 271 1 271 1 250 1 c 1,16,-1
 250 1 l 1,0,1
250 200 m 1,17,18
 229 200 229 200 214 215 c 256,19,20
 200 229 200 229 200 251 c 256,21,22
 200 272 200 272 214 286 c 0,23,24
 228 300 228 300 250 300 c 256,25,26
 271 300 271 300 285 286 c 0,27,28
 299 272 299 272 299 251 c 256,29,30
 299 230 299 230 285 215 c 0,31,32
 271 201 271 201 250 200 c 1,33,-1
 250 200 l 1,17,18
250 300 m 1,34,35
 229 300 229 300 214 314 c 0,36,37
 200 328 200 328 200 350 c 256,38,39
 200 371 200 371 214 385 c 256,40,41
 228 399 228 399 250 400 c 256,42,43
 271 400 271 400 285 385 c 0,44,45
 299 371 299 371 299 350 c 256,46,47
 299 329 299 329 285 314 c 0,48,49
 271 300 271 300 250 300 c 1,50,-1
 250 300 l 1,34,35
250 400 m 1,51,52
 229 400 229 400 214 415 c 256,53,54
 200 428 200 428 200 449 c 0,55,56
 200 470 200 470 214 484 c 256,57,58
 228 498 228 498 250 500 c 256,59,60
 271 500 271 500 285 484 c 0,61,62
 299 470 299 470 299 449 c 0,63,64
 299 428 299 428 285 415 c 0,65,66
 271 401 271 401 250 400 c 1,67,-1
 250 400 l 1,51,52
250 500 m 1,68,69
 229 500 229 500 214 514 c 256,70,71
 200 528 200 528 200 550 c 256,72,73
 200 571 200 571 214 585 c 0,74,75
 228 599 228 599 250 599 c 256,76,77
 271 599 271 599 285 585 c 0,78,79
 299 571 299 571 299 550 c 256,80,81
 299 529 299 529 285 514 c 0,82,83
 271 500 271 500 250 500 c 1,84,-1
 250 500 l 1,68,69
250 599 m 1,85,86
 229 599 229 599 214 614 c 0,87,88
 200 628 200 628 200 649 c 256,89,90
 200 670 200 670 214 684 c 256,91,92
 228 698 228 698 250 699 c 256,93,94
 271 699 271 699 285 684 c 0,95,96
 299 670 299 670 299 649 c 256,97,98
 299 628 299 628 285 614 c 0,99,100
 271 600 271 600 250 599 c 1,101,-1
 250 599 l 1,85,86
EndSplineSet
Validated: 5
EndChar

StartChar: quotedbl
Encoding: 34 34 2
Width: 600
VWidth: 629
Flags: W
LayerCount: 2
Fore
SplineSet
150 400 m 1,0,1
 129 400 129 400 115 415 c 256,2,3
 101 428 101 428 100 449 c 0,4,5
 100 470 100 470 115 484 c 256,6,7
 129 498 129 498 150 500 c 0,8,9
 171 500 171 500 184 484 c 256,10,11
 198 470 198 470 200 449 c 0,12,13
 200 428 200 428 184 415 c 256,14,15
 171 401 171 401 150 400 c 1,16,-1
 150 400 l 1,0,1
349 400 m 1,17,18
 328 400 328 400 314 415 c 0,19,20
 300 428 300 428 299 449 c 0,21,22
 300 470 300 470 314 484 c 0,23,24
 328 498 328 498 349 500 c 256,25,26
 370 500 370 500 384 484 c 256,27,28
 398 470 398 470 399 449 c 0,29,30
 399 428 399 428 384 415 c 256,31,32
 370 401 370 401 349 400 c 1,33,-1
 349 400 l 1,17,18
150 500 m 1,34,35
 129 500 129 500 115 514 c 256,36,37
 101 528 101 528 100 550 c 256,38,39
 100 571 100 571 115 585 c 0,40,41
 129 599 129 599 150 599 c 0,42,43
 171 599 171 599 184 585 c 0,44,45
 198 571 198 571 200 550 c 256,46,47
 200 529 200 529 184 514 c 256,48,49
 171 500 171 500 150 500 c 1,50,-1
 150 500 l 1,34,35
349 500 m 1,51,52
 328 500 328 500 314 514 c 0,53,54
 300 528 300 528 299 550 c 256,55,56
 300 571 300 571 314 585 c 0,57,58
 328 599 328 599 349 599 c 256,59,60
 370 599 370 599 384 585 c 0,61,62
 398 571 398 571 399 550 c 256,63,64
 399 529 399 529 384 514 c 256,65,66
 370 500 370 500 349 500 c 1,67,-1
 349 500 l 1,51,52
150 599 m 1,68,69
 129 599 129 599 115 614 c 0,70,71
 101 628 101 628 100 649 c 256,72,73
 100 670 100 670 115 684 c 256,74,75
 129 698 129 698 150 699 c 0,76,77
 171 699 171 699 184 684 c 256,78,79
 198 670 198 670 200 649 c 256,80,81
 200 628 200 628 184 614 c 0,82,83
 171 600 171 600 150 599 c 1,84,-1
 150 599 l 1,68,69
349 599 m 1,85,86
 328 599 328 599 314 614 c 0,87,88
 300 628 300 628 299 649 c 256,89,90
 300 670 300 670 314 684 c 0,91,92
 328 698 328 698 349 699 c 256,93,94
 370 699 370 699 384 684 c 256,95,96
 398 670 398 670 399 649 c 256,97,98
 399 628 399 628 384 614 c 0,99,100
 370 600 370 600 349 599 c 1,101,-1
 349 599 l 1,85,86
EndSplineSet
Validated: 5
EndChar

StartChar: numbersign
Encoding: 35 35 3
Width: 600
VWidth: 629
Flags: W
LayerCount: 2
Fore
SplineSet
150 1 m 1,0,1
 129 1 129 1 115 15 c 0,2,3
 101 29 101 29 100 50 c 256,4,5
 100 71 100 71 115 85 c 256,6,7
 129 99 129 99 150 101 c 0,8,9
 171 101 171 101 184 85 c 256,10,11
 198 71 198 71 200 50 c 256,12,13
 200 29 200 29 184 15 c 0,14,15
 171 1 171 1 150 1 c 1,16,-1
 150 1 l 1,0,1
349 1 m 1,17,18
 328 1 328 1 314 15 c 0,19,20
 300 29 300 29 299 50 c 256,21,22
 300 71 300 71 314 85 c 0,23,24
 328 99 328 99 349 101 c 256,25,26
 370 101 370 101 384 85 c 256,27,28
 398 71 398 71 399 50 c 256,29,30
 399 29 399 29 384 15 c 0,31,32
 370 1 370 1 349 1 c 1,33,-1
 349 1 l 1,17,18
150 101 m 1,34,35
 129 101 129 101 115 116 c 256,36,37
 101 130 101 130 100 151 c 0,38,39
 100 172 100 172 115 185 c 256,40,41
 129 199 129 199 150 200 c 0,42,43
 171 200 171 200 184 185 c 256,44,45
 198 172 198 172 200 151 c 0,46,47
 200 130 200 130 184 116 c 256,48,49
 171 102 171 102 150 101 c 1,50,-1
 150 101 l 1,34,35
349 101 m 1,51,52
 328 101 328 101 314 116 c 0,53,54
 300 130 300 130 299 151 c 0,55,56
 300 172 300 172 314 185 c 0,57,58
 328 199 328 199 349 200 c 256,59,60
 370 200 370 200 384 185 c 256,61,62
 398 172 398 172 399 151 c 0,63,64
 399 130 399 130 384 116 c 256,65,66
 370 102 370 102 349 101 c 1,67,-1
 349 101 l 1,51,52
49 200 m 1,68,69
 28 200 28 200 14 215 c 0,70,71
 0 229 0 229 0 251 c 256,72,73
 0 272 0 272 14 286 c 0,74,75
 28 300 28 300 49 300 c 256,76,77
 70 300 70 300 85 286 c 0,78,79
 99 272 99 272 100 251 c 256,80,81
 100 230 100 230 85 215 c 256,82,83
 71 201 71 201 49 200 c 1,84,-1
 49 200 l 1,68,69
150 200 m 1,85,86
 129 200 129 200 115 215 c 256,87,88
 101 229 101 229 100 251 c 256,89,90
 100 272 100 272 115 286 c 0,91,92
 129 300 129 300 150 300 c 0,93,94
 171 300 171 300 184 286 c 0,95,96
 198 272 198 272 200 251 c 256,97,98
 200 230 200 230 184 215 c 256,99,100
 171 201 171 201 150 200 c 1,101,-1
 150 200 l 1,85,86
250 200 m 1,102,103
 229 200 229 200 214 215 c 256,104,105
 200 229 200 229 200 251 c 256,106,107
 200 272 200 272 214 286 c 0,108,109
 228 300 228 300 250 300 c 256,110,111
 271 300 271 300 285 286 c 0,112,113
 299 272 299 272 299 251 c 256,114,115
 299 230 299 230 285 215 c 0,116,117
 271 201 271 201 250 200 c 1,118,-1
 250 200 l 1,102,103
349 200 m 1,119,120
 328 200 328 200 314 215 c 0,121,122
 300 229 300 229 299 251 c 256,123,124
 300 272 300 272 314 286 c 0,125,126
 328 300 328 300 349 300 c 256,127,128
 370 300 370 300 384 286 c 0,129,130
 398 272 398 272 399 251 c 256,131,132
 399 230 399 230 384 215 c 256,133,134
 370 201 370 201 349 200 c 1,135,-1
 349 200 l 1,119,120
448 200 m 1,136,137
 427 200 427 200 414 215 c 256,138,139
 400 229 400 229 399 251 c 256,140,141
 399 272 399 272 414 286 c 0,142,143
 427 300 427 300 448 300 c 0,144,145
 469 300 469 300 484 286 c 0,146,147
 498 272 498 272 499 251 c 256,148,149
 499 230 499 230 484 215 c 256,150,151
 470 201 470 201 448 200 c 1,152,-1
 448 200 l 1,136,137
150 300 m 1,153,154
 129 300 129 300 115 314 c 0,155,156
 101 328 101 328 100 350 c 256,157,158
 100 371 100 371 115 385 c 256,159,160
 129 399 129 399 150 400 c 0,161,162
 171 400 171 400 184 385 c 256,163,164
 198 371 198 371 200 350 c 256,165,166
 200 329 200 329 184 314 c 0,167,168
 171 300 171 300 150 300 c 1,169,-1
 150 300 l 1,153,154
349 300 m 1,170,171
 328 300 328 300 314 314 c 0,172,173
 300 328 300 328 299 350 c 256,174,175
 300 371 300 371 314 385 c 0,176,177
 328 399 328 399 349 400 c 256,178,179
 370 400 370 400 384 385 c 256,180,181
 398 371 398 371 399 350 c 256,182,183
 399 329 399 329 384 314 c 0,184,185
 370 300 370 300 349 300 c 1,186,-1
 349 300 l 1,170,171
49 400 m 1,187,188
 28 400 28 400 14 415 c 0,189,190
 0 428 0 428 0 449 c 0,191,192
 0 470 0 470 14 484 c 0,193,194
 28 498 28 498 49 500 c 256,195,196
 70 500 70 500 85 484 c 256,197,198
 99 470 99 470 100 449 c 0,199,200
 100 428 100 428 85 415 c 256,201,202
 71 401 71 401 49 400 c 1,203,-1
 49 400 l 1,187,188
150 400 m 1,204,205
 129 400 129 400 115 415 c 256,206,207
 101 428 101 428 100 449 c 0,208,209
 100 470 100 470 115 484 c 256,210,211
 129 498 129 498 150 500 c 0,212,213
 171 500 171 500 184 484 c 256,214,215
 198 470 198 470 200 449 c 0,216,217
 200 428 200 428 184 415 c 256,218,219
 171 401 171 401 150 400 c 1,220,-1
 150 400 l 1,204,205
250 400 m 1,221,222
 229 400 229 400 214 415 c 256,223,224
 200 428 200 428 200 449 c 0,225,226
 200 470 200 470 214 484 c 256,227,228
 228 498 228 498 250 500 c 256,229,230
 271 500 271 500 285 484 c 0,231,232
 299 470 299 470 299 449 c 0,233,234
 299 428 299 428 285 415 c 0,235,236
 271 401 271 401 250 400 c 1,237,-1
 250 400 l 1,221,222
349 400 m 1,238,239
 328 400 328 400 314 415 c 0,240,241
 300 428 300 428 299 449 c 0,242,243
 300 470 300 470 314 484 c 0,244,245
 328 498 328 498 349 500 c 256,246,247
 370 500 370 500 384 484 c 256,248,249
 398 470 398 470 399 449 c 0,250,251
 399 428 399 428 384 415 c 256,252,253
 370 401 370 401 349 400 c 1,254,-1
 349 400 l 1,238,239
448 400 m 1,255,256
 427 400 427 400 414 415 c 256,257,258
 400 428 400 428 399 449 c 0,259,260
 399 470 399 470 414 484 c 256,261,262
 427 498 427 498 448 500 c 0,263,264
 469 500 469 500 484 484 c 256,265,266
 498 470 498 470 499 449 c 0,267,268
 499 428 499 428 484 415 c 256,269,270
 470 401 470 401 448 400 c 1,271,-1
 448 400 l 1,255,256
150 500 m 1,272,273
 129 500 129 500 115 514 c 256,274,275
 101 528 101 528 100 550 c 256,276,277
 100 571 100 571 115 585 c 0,278,279
 129 599 129 599 150 599 c 0,280,281
 171 599 171 599 184 585 c 0,282,283
 198 571 198 571 200 550 c 256,284,285
 200 529 200 529 184 514 c 256,286,287
 171 500 171 500 150 500 c 1,288,-1
 150 500 l 1,272,273
349 500 m 1,289,290
 328 500 328 500 314 514 c 0,291,292
 300 528 300 528 299 550 c 256,293,294
 300 571 300 571 314 585 c 0,295,296
 328 599 328 599 349 599 c 256,297,298
 370 599 370 599 384 585 c 0,299,300
 398 571 398 571 399 550 c 256,301,302
 399 529 399 529 384 514 c 256,303,304
 370 500 370 500 349 500 c 1,305,-1
 349 500 l 1,289,290
150 599 m 1,306,307
 129 599 129 599 115 614 c 0,308,309
 101 628 101 628 100 649 c 256,310,311
 100 670 100 670 115 684 c 256,312,313
 129 698 129 698 150 699 c 0,314,315
 171 699 171 699 184 684 c 256,316,317
 198 670 198 670 200 649 c 256,318,319
 200 628 200 628 184 614 c 0,320,321
 171 600 171 600 150 599 c 1,322,-1
 150 599 l 1,306,307
349 599 m 1,323,324
 328 599 328 599 314 614 c 0,325,326
 300 628 300 628 299 649 c 256,327,328
 300 670 300 670 314 684 c 0,329,330
 328 698 328 698 349 699 c 256,331,332
 370 699 370 699 384 684 c 256,333,334
 398 670 398 670 399 649 c 256,335,336
 399 628 399 628 384 614 c 0,337,338
 370 600 370 600 349 599 c 1,339,-1
 349 599 l 1,323,324
EndSplineSet
Validated: 5
EndChar

StartChar: dollar
Encoding: 36 36 4
Width: 600
VWidth: 629
Flags: W
LayerCount: 2
Fore
SplineSet
250 1 m 1,0,1
 229 1 229 1 214 15 c 0,2,3
 200 29 200 29 200 50 c 256,4,5
 200 71 200 71 214 85 c 256,6,7
 228 99 228 99 250 101 c 256,8,9
 271 101 271 101 285 85 c 0,10,11
 299 71 299 71 299 50 c 256,12,13
 299 29 299 29 285 15 c 128,-1,14
 271 1 271 1 250 1 c 1,15,-1
 250 1 l 1,0,1
100 101 m 1,16,17
 80 101 80 101 65 116 c 256,18,19
 51 130 51 130 49 151 c 0,20,21
 49 172 49 172 65 185 c 256,22,23
 79 199 79 199 100 200 c 256,24,25
 121 200 121 200 135 185 c 0,26,27
 150 172 150 172 150 151 c 128,-1,28
 150 130 150 130 135 116 c 0,29,30
 121 102 121 102 100 101 c 1,31,-1
 100 101 l 1,16,17
200 101 m 1,32,33
 179 101 179 101 164 116 c 0,34,35
 150 130 150 130 150 151 c 128,-1,36
 150 172 150 172 164 185 c 0,37,38
 178 199 178 199 200 200 c 256,39,40
 221 200 221 200 235 185 c 256,41,42
 249 172 249 172 250 151 c 0,43,44
 250 130 250 130 235 116 c 256,45,46
 222 102 222 102 200 101 c 1,47,-1
 200 101 l 1,32,33
299 101 m 1,48,49
 278 101 278 101 264 116 c 256,50,51
 250 130 250 130 250 151 c 128,-1,52
 250 172 250 172 264 185 c 256,53,54
 278 199 278 199 299 200 c 0,55,56
 320 200 320 200 334 185 c 256,57,58
 348.516129032 171.520737327 348.516129032 171.520737327 348.516129032 149.652445369 c 0,59,60
 348.516129032 129.548387097 348.516129032 129.548387097 334 116 c 256,61,62
 320 102 320 102 299 101 c 1,63,-1
 299 101 l 1,48,49
399 101 m 1,64,65
 378 101 378 101 363 116 c 256,66,67
 349 130 349 130 349 154 c 0,68,69
 349 173 349 173 363 185 c 256,70,71
 377 199 377 199 399 200 c 256,72,73
 420 200 420 200 434 185 c 0,74,75
 448 172 448 172 448 151 c 128,-1,76
 448 130 448 130 434 116 c 128,-1,77
 420 102 420 102 399 101 c 1,78,-1
 399 101 l 1,64,65
250 200 m 1,79,80
 229 200 229 200 214 215 c 256,81,82
 200 229 200 229 200 251 c 256,83,84
 200 272 200 272 214 286 c 128,-1,85
 228 300 228 300 250 300 c 256,86,87
 271 300 271 300 285 286 c 128,-1,88
 299 272 299 272 299 251 c 256,89,90
 299 230 299 230 285 215 c 0,91,92
 271 201 271 201 250 200 c 1,93,-1
 250 200 l 1,79,80
448 200 m 1,94,95
 427 200 427 200 414 215 c 256,96,97
 400 229 400 229 399 251 c 256,98,99
 399 272 399 272 414 286 c 0,100,101
 427 300 427 300 448 300 c 128,-1,102
 469 300 469 300 483.5 286 c 128,-1,103
 498 272 498 272 499 251 c 256,104,105
 499 230 499 230 484 215 c 256,106,107
 470 201 470 201 448 200 c 1,108,-1
 448 200 l 1,94,95
100 300 m 1,109,110
 80 300 80 300 65 314 c 0,111,112
 51 328 51 328 49 350 c 256,113,114
 49 371 49 371 65 385 c 256,115,116
 79 399 79 399 100 400 c 256,117,118
 121 400 121 400 135 385 c 0,119,120
 150 371 150 371 150 350 c 256,121,122
 150 329 150 329 135 314 c 0,123,124
 121 300 121 300 100 300 c 1,125,-1
 100 300 l 1,109,110
200 300 m 1,126,127
 179 300 179 300 164.5 314.5 c 128,-1,128
 150 329 150 329 150 350 c 256,129,130
 150 371 150 371 164 385 c 0,131,132
 180 399 180 399 200 400 c 256,133,134
 221 400 221 400 235 385 c 256,135,136
 249 371 249 371 250 350 c 256,137,138
 250 329 250 329 235 314 c 0,139,140
 222 300 222 300 200 300 c 1,141,-1
 200 300 l 1,126,127
299 300 m 1,142,143
 278 300 278 300 264 314.5 c 128,-1,144
 250 329 250 329 250 350 c 256,145,146
 250 371 250 371 264 385 c 256,147,148
 278 399 278 399 299 400 c 0,149,150
 320 400 320 400 334 385 c 256,151,152
 348 371 348 371 349 350 c 256,153,154
 349 329 349 329 334.5 314.5 c 128,-1,155
 320 300 320 300 299 300 c 1,156,-1
 299 300 l 1,142,143
399 300 m 1,157,158
 378 300 378 300 363 314 c 0,159,160
 349 328 349 328 349 352 c 0,161,162
 349 371 349 371 363 385 c 256,163,164
 377 399 377 399 399 400 c 256,165,166
 420 400 420 400 434 385 c 0,167,168
 448 371 448 371 448 350 c 256,169,170
 448 329 448 329 434 314.5 c 128,-1,171
 420 300 420 300 399 300 c 1,172,-1
 399 300 l 1,157,158
49 400 m 1,173,174
 28 400 28 400 14 415 c 0,175,176
 0 428 0 428 0 449 c 128,-1,177
 0 470 0 470 14 484.5 c 128,-1,178
 28 499 28 499 49 500 c 256,179,180
 70 500 70 500 85 484 c 256,181,182
 99 470 99 470 100 449 c 0,183,184
 100 428 100 428 85 415 c 256,185,186
 71 401 71 401 49 400 c 1,187,-1
 49 400 l 1,173,174
250 400 m 1,188,189
 229 400 229 400 214 415 c 256,190,191
 200 428 200 428 200 449 c 128,-1,192
 200 470 200 470 214 484 c 256,193,194
 228 498 228 498 250 500 c 256,195,196
 271 500 271 500 285 484 c 0,197,198
 299 470 299 470 299 449 c 128,-1,199
 299 428 299 428 285 415 c 0,200,201
 271 401 271 401 250 400 c 1,202,-1
 250 400 l 1,188,189
100 500 m 1,203,204
 80 500 80 500 65 514 c 256,205,206
 51 528 51 528 49 550 c 256,207,208
 49 571 49 571 65 585 c 0,209,210
 79 599 79 599 100 599 c 256,211,212
 121 599 121 599 135 585 c 0,213,214
 150 571 150 571 150 550 c 256,215,216
 150 529 150 529 135 514 c 0,217,218
 121 500 121 500 100 500 c 1,219,-1
 100 500 l 1,203,204
200 500 m 1,220,221
 179 500 179 500 164.5 514 c 128,-1,222
 150 528 150 528 150 550 c 256,223,224
 150 571 150 571 164 585 c 0,225,226
 180 599 180 599 200 599 c 256,227,228
 221 599 221 599 235 585 c 128,-1,229
 249 571 249 571 250 550 c 256,230,231
 250 529 250 529 235 514 c 256,232,233
 222 500 222 500 200 500 c 1,234,-1
 200 500 l 1,220,221
299 500 m 1,235,236
 278 500 278 500 264 514 c 256,237,238
 250 528 250 528 250 550 c 256,239,240
 250 571 250 571 264 585 c 128,-1,241
 278 599 278 599 299 599 c 128,-1,242
 320 599 320 599 334.5 585 c 128,-1,243
 349 571 349 571 349 550 c 256,244,245
 349 529 349 529 334 514 c 256,246,247
 320 500 320 500 299 500 c 1,248,-1
 299 500 l 1,235,236
399 500 m 1,249,250
 378 500 378 500 363 514 c 256,251,252
 349 528 349 528 349 553 c 0,253,254
 349 572 349 572 363 585 c 0,255,256
 377 599 377 599 399 599 c 256,257,258
 420 599 420 599 434 585 c 128,-1,259
 448 571 448 571 448 550 c 256,260,261
 448 529 448 529 434 514 c 0,262,263
 420 500 420 500 399 500 c 1,264,-1
 399 500 l 1,249,250
250 599 m 1,265,266
 229 599 229 599 214 614 c 0,267,268
 200 628 200 628 200 649 c 256,269,270
 200 670 200 670 214 684 c 256,271,272
 228 698 228 698 250 699 c 256,273,274
 271 699 271 699 285 684 c 0,275,276
 299 670 299 670 299 649 c 256,277,278
 299 628 299 628 285 613.5 c 128,-1,279
 271 599 271 599 250 599 c 1,280,-1
 250 599 l 1,265,266
EndSplineSet
Validated: 5
EndChar

StartChar: percent
Encoding: 37 37 5
Width: 600
VWidth: 629
Flags: W
LayerCount: 2
Fore
SplineSet
100 1 m 1,0,1
 80 1 80 1 65 15 c 0,2,3
 51 29 51 29 49 50 c 256,4,5
 49 71 49 71 65 85 c 256,6,7
 79 99 79 99 100 101 c 256,8,9
 121 101 121 101 135 85 c 0,10,11
 150 71 150 71 150 50 c 256,12,13
 150 29 150 29 135 15 c 0,14,15
 121 1 121 1 100 1 c 1,16,-1
 100 1 l 1,0,1
150 101 m 1,17,18
 129 101 129 101 115 116 c 256,19,20
 101 130 101 130 100 151 c 0,21,22
 100 172 100 172 115 185 c 256,23,24
 129 199 129 199 150 200 c 0,25,26
 171 200 171 200 184 185 c 256,27,28
 198 172 198 172 200 151 c 0,29,30
 200 130 200 130 184 116 c 256,31,32
 171 102 171 102 150 101 c 1,33,-1
 150 101 l 1,17,18
349 101 m 1,34,35
 328 101 328 101 314 116 c 0,36,37
 300 130 300 130 300 151 c 128,-1,38
 300 172 300 172 314 185 c 0,39,40
 328 199 328 199 349 200 c 256,41,42
 370 200 370 200 384 185 c 256,43,44
 398 172 398 172 399 151 c 0,45,46
 399 130 399 130 384 116 c 256,47,48
 370 102 370 102 349 101 c 1,49,-1
 349 101 l 1,34,35
448 101 m 1,50,51
 427 101 427 101 414 116 c 256,52,53
 400 130 400 130 399 151 c 0,54,55
 399 172 399 172 414 185 c 256,56,57
 427 199 427 199 448 200 c 0,58,59
 469 200 469 200 484 185 c 256,60,61
 498 172 498 172 499 151 c 0,62,63
 499 130 499 130 484 116 c 256,64,65
 470 102 470 102 448 101 c 1,66,-1
 448 101 l 1,50,51
200 200 m 1,67,68
 179 200 179 200 164.5 214.5 c 128,-1,69
 150 229 150 229 150 251 c 256,70,71
 150 272 150 272 164 286 c 0,72,73
 180 300 180 300 200 300 c 256,74,75
 221 300 221 300 235 286 c 128,-1,76
 249 272 249 272 250 251 c 256,77,78
 250 230 250 230 235 215 c 256,79,80
 222 201 222 201 200 200 c 1,81,-1
 200 200 l 1,67,68
349 200 m 1,82,83
 328 200 328 200 313.5 214.5 c 128,-1,84
 299 229 299 229 299 251 c 256,85,86
 299 272 299 272 313.5 286 c 128,-1,87
 328 300 328 300 349 300 c 256,88,89
 370 300 370 300 384 286 c 128,-1,90
 398 272 398 272 399 251 c 256,91,92
 399 230 399 230 384 215 c 256,93,94
 370 201 370 201 349 200 c 1,95,-1
 349 200 l 1,82,83
448 200 m 1,96,97
 427 200 427 200 414 215 c 256,98,99
 400 229 400 229 399 251 c 256,100,101
 399 272 399 272 414 286 c 0,102,103
 427 300 427 300 448 300 c 128,-1,104
 469 300 469 300 483.5 286 c 128,-1,105
 498 272 498 272 499 251 c 256,106,107
 499 230 499 230 484 215 c 256,108,109
 470 201 470 201 448 200 c 1,110,-1
 448 200 l 1,96,97
250 300 m 1,111,112
 229 300 229 300 214 314 c 0,113,114
 200 328 200 328 200 350 c 256,115,116
 200 371 200 371 214 385 c 256,117,118
 228 399 228 399 250 400 c 256,119,120
 271 400 271 400 285 385 c 0,121,122
 299 371 299 371 299 350 c 256,123,124
 299 329 299 329 285 314.5 c 128,-1,125
 271 300 271 300 250 300 c 1,126,-1
 250 300 l 1,111,112
49 400 m 1,127,128
 28 400 28 400 14 415 c 0,129,130
 0 428 0 428 0 449 c 128,-1,131
 0 470 0 470 14 484.5 c 128,-1,132
 28 499 28 499 49 500 c 256,133,134
 70 500 70 500 85 484 c 256,135,136
 99 470 99 470 100 449 c 0,137,138
 100 428 100 428 85 415 c 256,139,140
 71 401 71 401 49 400 c 1,141,-1
 49 400 l 1,127,128
150 400 m 1,142,143
 129 400 129 400 115 415 c 256,144,145
 101 428 101 428 100 449 c 0,146,147
 100 470 100 470 115 484 c 256,148,149
 129 498 129 498 150 500 c 0,150,151
 171 500 171 500 184 484 c 256,152,153
 198 470 198 470 200 449 c 0,154,155
 200 428 200 428 184 415 c 256,156,157
 171 401 171 401 150 400 c 1,158,-1
 150 400 l 1,142,143
299 400 m 1,159,160
 278 400 278 400 264 415 c 256,161,162
 250 428 250 428 250 449 c 128,-1,163
 250 470 250 470 264 484 c 256,164,165
 278 498 278 498 299 500 c 0,166,167
 320 500 320 500 334 484 c 256,168,169
 348.516129032 469.483870968 348.516129032 469.483870968 348.516129032 447.653485952 c 0,170,171
 348.516129032 427.580645161 348.516129032 427.580645161 334 415 c 256,172,173
 320 401 320 401 299 400 c 1,174,-1
 299 400 l 1,159,160
49 500 m 1,175,176
 28 500 28 500 14 514 c 128,-1,177
 0 528 0 528 0 550 c 256,178,179
 0 571 0 571 14 585 c 128,-1,180
 28 599 28 599 49 599 c 256,181,182
 70 599 70 599 84.5 585 c 128,-1,183
 99 571 99 571 100 550 c 256,184,185
 100 529 100 529 85 514 c 256,186,187
 71 500 71 500 49 500 c 1,188,-1
 49 500 l 1,175,176
150 500 m 1,189,190
 129 500 129 500 115 514 c 256,191,192
 101 528 101 528 100 550 c 256,193,194
 100 571 100 571 115 585 c 0,195,196
 129 599 129 599 150 599 c 128,-1,197
 171 599 171 599 184 585 c 0,198,199
 198 571 198 571 200 550 c 256,200,201
 200 529 200 529 184 514 c 256,202,203
 171 500 171 500 150 500 c 1,204,-1
 150 500 l 1,189,190
349 500 m 1,205,206
 328 500 328 500 313.5 514 c 128,-1,207
 299 528 299 528 299 550 c 256,208,209
 299 571 299 571 313.5 585 c 128,-1,210
 328 599 328 599 349 599 c 256,211,212
 370 599 370 599 384 585 c 128,-1,213
 398 571 398 571 399 550 c 256,214,215
 399 529 399 529 384 514 c 256,216,217
 370 500 370 500 349 500 c 1,218,-1
 349 500 l 1,205,206
399 599 m 1,219,220
 378 599 378 599 363 614 c 0,221,222
 349 628 349 628 349 652 c 0,223,224
 349 671 349 671 363 684 c 256,225,226
 377 698 377 698 399 699 c 256,227,228
 420 699 420 699 434 684 c 0,229,230
 448 670 448 670 448 649 c 256,231,232
 448 628 448 628 434 613.5 c 128,-1,233
 420 599 420 599 399 599 c 1,234,-1
 399 599 l 1,219,220
EndSplineSet
Validated: 5
EndChar

StartChar: ampersand
Encoding: 38 38 6
Width: 600
VWidth: 629
Flags: W
LayerCount: 2
Fore
SplineSet
150 1 m 1,0,1
 129 1 129 1 115 15 c 128,-1,2
 101 29 101 29 100 50 c 256,3,4
 100 71 100 71 115 85 c 256,5,6
 129 99 129 99 150 101 c 0,7,8
 171 101 171 101 184 85 c 256,9,10
 198 71 198 71 200 50 c 256,11,12
 200 29 200 29 184 15 c 0,13,14
 171 1 171 1 150 1 c 1,15,-1
 150 1 l 1,0,1
250 1 m 1,16,17
 229 1 229 1 214 15 c 0,18,19
 200 29 200 29 200 50 c 256,20,21
 200 71 200 71 214 85 c 256,22,23
 228 99 228 99 250 101 c 256,24,25
 271 101 271 101 285 85 c 0,26,27
 299 71 299 71 299 50 c 256,28,29
 299 29 299 29 285 15 c 128,-1,30
 271 1 271 1 250 1 c 1,31,-1
 250 1 l 1,16,17
399 1 m 1,32,33
 378 1 378 1 363 15 c 0,34,35
 349 29 349 29 349 53 c 0,36,37
 349 72 349 72 363 85 c 256,38,39
 377 99 377 99 399 101 c 256,40,41
 420 101 420 101 434 85 c 0,42,43
 448 71 448 71 448 50 c 256,44,45
 448 29 448 29 434 15 c 128,-1,46
 420 1 420 1 399 1 c 1,47,-1
 399 1 l 1,32,33
100 101 m 1,48,49
 80 101 80 101 65 116 c 256,50,51
 51 130 51 130 49 151 c 0,52,53
 49 172 49 172 65 185 c 256,54,55
 79 199 79 199 100 200 c 256,56,57
 121 200 121 200 135 185 c 0,58,59
 150 172 150 172 150 151 c 128,-1,60
 150 130 150 130 135 116 c 0,61,62
 121 102 121 102 100 101 c 1,63,-1
 100 101 l 1,48,49
349 101 m 1,64,65
 328 101 328 101 314 116 c 0,66,67
 300 130 300 130 300 151 c 128,-1,68
 300 172 300 172 314 185 c 0,69,70
 328 199 328 199 349 200 c 256,71,72
 370 200 370 200 384 185 c 256,73,74
 398 172 398 172 399 151 c 0,75,76
 399 130 399 130 384 116 c 256,77,78
 370 102 370 102 349 101 c 1,79,-1
 349 101 l 1,64,65
100 200 m 1,80,81
 80 200 80 200 65 215 c 256,82,83
 51 229 51 229 49 251 c 256,84,85
 49 272 49 272 65 286 c 0,86,87
 79 300 79 300 100 300 c 256,88,89
 121 300 121 300 135 286 c 0,90,91
 150 272 150 272 150 251 c 256,92,93
 150 230 150 230 135 215 c 0,94,95
 121 201 121 201 100 200 c 1,96,-1
 100 200 l 1,80,81
299 200 m 1,97,98
 278 200 278 200 264 215 c 256,99,100
 250 229 250 229 250 251 c 256,101,102
 250 272 250 272 264 286 c 128,-1,103
 278 300 278 300 299 300 c 128,-1,104
 320 300 320 300 334.5 286 c 128,-1,105
 349 272 349 272 349 251 c 256,106,107
 349 230 349 230 334 215 c 256,108,109
 320 201 320 201 299 200 c 1,110,-1
 299 200 l 1,97,98
448 200 m 1,111,112
 427 200 427 200 414 215 c 256,113,114
 400 229 400 229 399 251 c 256,115,116
 399 272 399 272 414 286 c 0,117,118
 427 300 427 300 448 300 c 128,-1,119
 469 300 469 300 483.5 286 c 128,-1,120
 498 272 498 272 499 251 c 256,121,122
 499 230 499 230 484 215 c 256,123,124
 470 201 470 201 448 200 c 1,125,-1
 448 200 l 1,111,112
150 300 m 1,126,127
 129 300 129 300 115 314.5 c 128,-1,128
 101 329 101 329 100 350 c 256,129,130
 100 371 100 371 115 385 c 256,131,132
 129 399 129 399 150 400 c 0,133,134
 171 400 171 400 184 385 c 256,135,136
 198 371 198 371 200 350 c 256,137,138
 200 329 200 329 184 314 c 0,139,140
 171 300 171 300 150 300 c 1,141,-1
 150 300 l 1,126,127
250 300 m 1,142,143
 229 300 229 300 214 314 c 0,144,145
 200 328 200 328 200 350 c 256,146,147
 200 371 200 371 214 385 c 256,148,149
 228 399 228 399 250 400 c 256,150,151
 271 400 271 400 285 385 c 0,152,153
 299 371 299 371 299 350 c 256,154,155
 299 329 299 329 285 314.5 c 128,-1,156
 271 300 271 300 250 300 c 1,157,-1
 250 300 l 1,142,143
200 400 m 1,158,159
 179 400 179 400 164 415 c 0,160,161
 150 428 150 428 150 449 c 128,-1,162
 150 470 150 470 164 484 c 0,163,164
 180 498 180 498 200 500 c 256,165,166
 221 500 221 500 235 484 c 256,167,168
 249 470 249 470 250 449 c 0,169,170
 250 428 250 428 235 415 c 256,171,172
 222 401 222 401 200 400 c 1,173,-1
 200 400 l 1,158,159
299 400 m 1,174,175
 278 400 278 400 264 415 c 256,176,177
 250 428 250 428 250 449 c 128,-1,178
 250 470 250 470 264 484 c 256,179,180
 278 498 278 498 299 500 c 0,181,182
 320 500 320 500 334 484 c 256,183,184
 348.516129032 469.483870968 348.516129032 469.483870968 348.516129032 447.653485952 c 0,185,186
 348.516129032 427.580645161 348.516129032 427.580645161 334 415 c 256,187,188
 320 401 320 401 299 400 c 1,189,-1
 299 400 l 1,174,175
150 500 m 1,190,191
 129 500 129 500 115 514 c 256,192,193
 101 528 101 528 100 550 c 256,194,195
 100 571 100 571 115 585 c 0,196,197
 129 599 129 599 150 599 c 128,-1,198
 171 599 171 599 184 585 c 0,199,200
 198 571 198 571 200 550 c 256,201,202
 200 529 200 529 184 514 c 256,203,204
 171 500 171 500 150 500 c 1,205,-1
 150 500 l 1,190,191
349 500 m 1,206,207
 328 500 328 500 313.5 514 c 128,-1,208
 299 528 299 528 299 550 c 256,209,210
 299 571 299 571 313.5 585 c 128,-1,211
 328 599 328 599 349 599 c 256,212,213
 370 599 370 599 384 585 c 128,-1,214
 398 571 398 571 399 550 c 256,215,216
 399 529 399 529 384 514 c 256,217,218
 370 500 370 500 349 500 c 1,219,-1
 349 500 l 1,206,207
200 599 m 1,220,221
 179 599 179 599 164.5 613.5 c 128,-1,222
 150 628 150 628 150 649 c 256,223,224
 150 670 150 670 164 684 c 0,225,226
 180 698 180 698 200 699 c 256,227,228
 221 699 221 699 235 684 c 256,229,230
 249 670 249 670 250 649 c 256,231,232
 250 628 250 628 235 614 c 0,233,234
 222 600 222 600 200 599 c 1,235,-1
 200 599 l 1,220,221
299 599 m 1,236,237
 278 599 278 599 264 613.5 c 128,-1,238
 250 628 250 628 250 649 c 256,239,240
 250 670 250 670 264 684 c 256,241,242
 278 698 278 698 299 699 c 0,243,244
 320 699 320 699 334 684 c 256,245,246
 348 670 348 670 349 649 c 256,247,248
 349 628 349 628 334.5 613.5 c 128,-1,249
 320 599 320 599 299 599 c 1,250,-1
 299 599 l 1,236,237
EndSplineSet
Validated: 5
EndChar

StartChar: quotesingle
Encoding: 39 39 7
Width: 600
VWidth: 629
Flags: W
LayerCount: 2
Fore
SplineSet
150 400 m 1,0,1
 129 400 129 400 115 415 c 256,2,3
 100 430 100 430 100 451 c 0,4,5
 100 471 100 471 115 484 c 256,6,7
 129 498 129 498 150 499 c 0,8,9
 151 499 151 499 151 500 c 0,10,11
 171 500 171 500 184 484 c 256,12,13
 200 469 200 469 200 448 c 0,14,15
 200 428 200 428 184 415 c 256,16,17
 171 401 171 401 150 400 c 1,18,-1
 150 400 l 1,0,1
200 500 m 1,19,20
 179 500 179 500 164.5 514 c 128,-1,21
 150 528 150 528 150 550 c 256,22,23
 150 571 150 571 164 585 c 0,24,25
 180 599 180 599 200 599 c 256,26,27
 221 599 221 599 235 584.5 c 128,-1,28
 249 570 249 570 250 550 c 256,29,30
 250 529 250 529 235 514 c 256,31,32
 222 500 222 500 200 500 c 1,33,-1
 200 500 l 1,19,20
100 599 m 1,34,35
 80 599 80 599 65 614 c 0,36,37
 51 628 51 628 49 649 c 256,38,39
 49 670 49 670 65 684 c 256,40,41
 79 698 79 698 100 699 c 256,42,43
 121 699 121 699 135 684 c 0,44,45
 150 670 150 670 150 649 c 256,46,47
 150 628 150 628 135.5 613.5 c 128,-1,48
 121 599 121 599 100 599 c 1,49,-1
 100 599 l 1,34,35
200 599 m 1,50,51
 179 599 179 599 164.5 614 c 128,-1,52
 150 629 150 629 150 649 c 256,53,54
 150 670 150 670 164 684 c 0,55,56
 180 698 180 698 200 699 c 256,57,58
 221 699 221 699 235 684 c 256,59,60
 249 670 249 670 250 649 c 256,61,62
 250 628 250 628 235 614 c 0,63,64
 222 600 222 600 200 599 c 1,65,-1
 200 599 l 1,50,51
EndSplineSet
Validated: 5
EndChar

StartChar: parenleft
Encoding: 40 40 8
Width: 600
VWidth: 629
Flags: W
LayerCount: 2
Fore
SplineSet
349 1 m 1,0,1
 328 1 328 1 314 15 c 0,2,3
 300 29 300 29 299 50 c 256,4,5
 300 71 300 71 314 85 c 0,6,7
 328 99 328 99 349 101 c 256,8,9
 370 101 370 101 384 85 c 256,10,11
 398 71 398 71 399 50 c 256,12,13
 399 29 399 29 384 15 c 0,14,15
 370 1 370 1 349 1 c 1,16,-1
 349 1 l 1,0,1
250 101 m 1,17,18
 229 101 229 101 214 116 c 256,19,20
 200 130 200 130 200 151 c 0,21,22
 200 172 200 172 214 185 c 256,23,24
 228 199 228 199 250 200 c 256,25,26
 271 200 271 200 285 185 c 0,27,28
 299 172 299 172 299 151 c 0,29,30
 299 130 299 130 285 116 c 0,31,32
 271 102 271 102 250 101 c 1,33,-1
 250 101 l 1,17,18
200 200 m 1,34,35
 179 200 179 200 164 215 c 0,36,37
 150 229 150 229 150 251 c 256,38,39
 150 272 150 272 164 286 c 0,40,41
 178 300 178 300 200 300 c 256,42,43
 221 300 221 300 235 286 c 0,44,45
 249 272 249 272 250 251 c 256,46,47
 250 230 250 230 235 215 c 256,48,49
 222 201 222 201 200 200 c 1,50,-1
 200 200 l 1,34,35
200 300 m 1,51,52
 179 300 179 300 164 314 c 0,53,54
 150 328 150 328 150 350 c 256,55,56
 150 371 150 371 164 385 c 0,57,58
 178 399 178 399 200 400 c 256,59,60
 221 400 221 400 235 385 c 256,61,62
 249 371 249 371 250 350 c 256,63,64
 250 329 250 329 235 314 c 0,65,66
 222 300 222 300 200 300 c 1,67,-1
 200 300 l 1,51,52
200 400 m 1,68,69
 179 400 179 400 164 415 c 0,70,71
 150 428 150 428 150 449 c 0,72,73
 150 470 150 470 164 484 c 0,74,75
 178 498 178 498 200 500 c 256,76,77
 221 500 221 500 235 484 c 256,78,79
 249 470 249 470 250 449 c 0,80,81
 250 428 250 428 235 415 c 256,82,83
 222 401 222 401 200 400 c 1,84,-1
 200 400 l 1,68,69
250 500 m 1,85,86
 229 500 229 500 214 514 c 256,87,88
 200 528 200 528 200 550 c 256,89,90
 200 571 200 571 214 585 c 0,91,92
 228 599 228 599 250 599 c 256,93,94
 271 599 271 599 285 585 c 0,95,96
 299 571 299 571 299 550 c 256,97,98
 299 529 299 529 285 514 c 0,99,100
 271 500 271 500 250 500 c 1,101,-1
 250 500 l 1,85,86
349 599 m 1,102,103
 328 599 328 599 314 614 c 0,104,105
 300 628 300 628 299 649 c 256,106,107
 300 670 300 670 314 684 c 0,108,109
 328 698 328 698 349 699 c 256,110,111
 370 699 370 699 384 684 c 256,112,113
 398 670 398 670 399 649 c 256,114,115
 399 628 399 628 384 614 c 0,116,117
 370 600 370 600 349 599 c 1,118,-1
 349 599 l 1,102,103
EndSplineSet
Validated: 5
EndChar

StartChar: parenright
Encoding: 41 41 9
Width: 600
VWidth: 629
Flags: W
LayerCount: 2
Fore
SplineSet
150 1 m 1,0,1
 129 1 129 1 115 15 c 0,2,3
 101 29 101 29 100 50 c 256,4,5
 100 71 100 71 115 85 c 256,6,7
 129 99 129 99 150 101 c 0,8,9
 171 101 171 101 184 85 c 256,10,11
 198 71 198 71 200 50 c 256,12,13
 200 29 200 29 184 15 c 0,14,15
 171 1 171 1 150 1 c 1,16,-1
 150 1 l 1,0,1
250 101 m 1,17,18
 229 101 229 101 214 116 c 256,19,20
 200 130 200 130 200 151 c 0,21,22
 200 172 200 172 214 185 c 256,23,24
 228 199 228 199 250 200 c 256,25,26
 271 200 271 200 285 185 c 0,27,28
 299 172 299 172 299 151 c 0,29,30
 299 130 299 130 285 116 c 0,31,32
 271 102 271 102 250 101 c 1,33,-1
 250 101 l 1,17,18
299 200 m 1,34,35
 278 200 278 200 264 215 c 256,36,37
 250 229 250 229 250 251 c 256,38,39
 250 272 250 272 264 286 c 0,40,41
 278 300 278 300 299 300 c 0,42,43
 320 300 320 300 334 286 c 0,44,45
 348 272 348 272 349 251 c 256,46,47
 349 230 349 230 334 215 c 256,48,49
 320 201 320 201 299 200 c 1,50,-1
 299 200 l 1,34,35
299 300 m 1,51,52
 278 300 278 300 264 314 c 0,53,54
 250 328 250 328 250 350 c 256,55,56
 250 371 250 371 264 385 c 256,57,58
 278 399 278 399 299 400 c 0,59,60
 320 400 320 400 334 385 c 256,61,62
 348 371 348 371 349 350 c 256,63,64
 349 329 349 329 334 314 c 0,65,66
 320 300 320 300 299 300 c 1,67,-1
 299 300 l 1,51,52
299 400 m 1,68,69
 278 400 278 400 264 415 c 256,70,71
 250 428 250 428 250 449 c 0,72,73
 250 470 250 470 264 484 c 256,74,75
 278 498 278 498 299 500 c 0,76,77
 320 500 320 500 334 484 c 256,78,79
 348 470 348 470 349 449 c 0,80,81
 349 428 349 428 334 415 c 256,82,83
 320 401 320 401 299 400 c 1,84,-1
 299 400 l 1,68,69
250 500 m 1,85,86
 229 500 229 500 214 514 c 256,87,88
 200 528 200 528 200 550 c 256,89,90
 200 571 200 571 214 585 c 0,91,92
 228 599 228 599 250 599 c 256,93,94
 271 599 271 599 285 585 c 0,95,96
 299 571 299 571 299 550 c 256,97,98
 299 529 299 529 285 514 c 0,99,100
 271 500 271 500 250 500 c 1,101,-1
 250 500 l 1,85,86
150 599 m 1,102,103
 129 599 129 599 115 614 c 0,104,105
 101 628 101 628 100 649 c 256,106,107
 100 670 100 670 115 684 c 256,108,109
 129 698 129 698 150 699 c 0,110,111
 171 699 171 699 184 684 c 256,112,113
 198 670 198 670 200 649 c 256,114,115
 200 628 200 628 184 614 c 0,116,117
 171 600 171 600 150 599 c 1,118,-1
 150 599 l 1,102,103
EndSplineSet
Validated: 5
EndChar

StartChar: asterisk
Encoding: 42 42 10
Width: 600
VWidth: 629
Flags: W
LayerCount: 2
Fore
SplineSet
250 101 m 1,0,1
 229 101 229 101 214 116 c 256,2,3
 200 130 200 130 200 151 c 0,4,5
 200 172 200 172 214 185 c 256,6,7
 228 199 228 199 250 200 c 256,8,9
 271 200 271 200 285 185 c 0,10,11
 299 172 299 172 299 151 c 0,12,13
 299 130 299 130 285 116 c 0,14,15
 271 102 271 102 250 101 c 1,16,-1
 250 101 l 1,0,1
49 200 m 1,17,18
 28 200 28 200 14 215 c 0,19,20
 0 229 0 229 0 251 c 256,21,22
 0 272 0 272 14 286 c 0,23,24
 28 300 28 300 49 300 c 256,25,26
 70 300 70 300 85 286 c 0,27,28
 99 272 99 272 100 251 c 256,29,30
 100 230 100 230 85 215 c 256,31,32
 71 201 71 201 49 200 c 1,33,-1
 49 200 l 1,17,18
250 200 m 1,34,35
 229 200 229 200 214 215 c 256,36,37
 200 229 200 229 200 251 c 256,38,39
 200 272 200 272 214 286 c 0,40,41
 228 300 228 300 250 300 c 256,42,43
 271 300 271 300 285 286 c 0,44,45
 299 272 299 272 299 251 c 256,46,47
 299 230 299 230 285 215 c 0,48,49
 271 201 271 201 250 200 c 1,50,-1
 250 200 l 1,34,35
448 200 m 1,51,52
 427 200 427 200 414 215 c 256,53,54
 400 229 400 229 399 251 c 256,55,56
 399 272 399 272 414 286 c 0,57,58
 427 300 427 300 448 300 c 0,59,60
 469 300 469 300 484 286 c 0,61,62
 498 272 498 272 499 251 c 256,63,64
 499 230 499 230 484 215 c 256,65,66
 470 201 470 201 448 200 c 1,67,-1
 448 200 l 1,51,52
150 300 m 1,68,69
 129 300 129 300 115 314 c 0,70,71
 101 328 101 328 100 350 c 256,72,73
 100 371 100 371 115 385 c 256,74,75
 129 399 129 399 150 400 c 0,76,77
 171 400 171 400 184 385 c 256,78,79
 198 371 198 371 200 350 c 256,80,81
 200 329 200 329 184 314 c 0,82,83
 171 300 171 300 150 300 c 1,84,-1
 150 300 l 1,68,69
250 300 m 1,85,86
 229 300 229 300 214 314 c 0,87,88
 200 328 200 328 200 350 c 256,89,90
 200 371 200 371 214 385 c 256,91,92
 228 399 228 399 250 400 c 256,93,94
 271 400 271 400 285 385 c 0,95,96
 299 371 299 371 299 350 c 256,97,98
 299 329 299 329 285 314 c 0,99,100
 271 300 271 300 250 300 c 1,101,-1
 250 300 l 1,85,86
349 300 m 1,102,103
 328 300 328 300 314 314 c 0,104,105
 300 328 300 328 299 350 c 256,106,107
 300 371 300 371 314 385 c 0,108,109
 328 399 328 399 349 400 c 256,110,111
 370 400 370 400 384 385 c 256,112,113
 398 371 398 371 399 350 c 256,114,115
 399 329 399 329 384 314 c 0,116,117
 370 300 370 300 349 300 c 1,118,-1
 349 300 l 1,102,103
49 400 m 1,119,120
 28 400 28 400 14 415 c 0,121,122
 0 428 0 428 0 449 c 0,123,124
 0 470 0 470 14 484 c 0,125,126
 28 498 28 498 49 500 c 256,127,128
 70 500 70 500 85 484 c 256,129,130
 99 470 99 470 100 449 c 0,131,132
 100 428 100 428 85 415 c 256,133,134
 71 401 71 401 49 400 c 1,135,-1
 49 400 l 1,119,120
250 400 m 1,136,137
 229 400 229 400 214 415 c 256,138,139
 200 428 200 428 200 449 c 0,140,141
 200 470 200 470 214 484 c 256,142,143
 228 498 228 498 250 500 c 256,144,145
 271 500 271 500 285 484 c 0,146,147
 299 470 299 470 299 449 c 0,148,149
 299 428 299 428 285 415 c 0,150,151
 271 401 271 401 250 400 c 1,152,-1
 250 400 l 1,136,137
448 400 m 1,153,154
 427 400 427 400 414 415 c 256,155,156
 400 428 400 428 399 449 c 0,157,158
 399 470 399 470 414 484 c 256,159,160
 427 498 427 498 448 500 c 0,161,162
 469 500 469 500 484 484 c 256,163,164
 498 470 498 470 499 449 c 0,165,166
 499 428 499 428 484 415 c 256,167,168
 470 401 470 401 448 400 c 1,169,-1
 448 400 l 1,153,154
250 500 m 1,170,171
 229 500 229 500 214 514 c 256,172,173
 200 528 200 528 200 550 c 256,174,175
 200 571 200 571 214 585 c 0,176,177
 228 599 228 599 250 599 c 256,178,179
 271 599 271 599 285 585 c 0,180,181
 299 571 299 571 299 550 c 256,182,183
 299 529 299 529 285 514 c 0,184,185
 271 500 271 500 250 500 c 1,186,-1
 250 500 l 1,170,171
EndSplineSet
Validated: 5
EndChar

StartChar: plus
Encoding: 43 43 11
Width: 600
VWidth: 629
Flags: W
LayerCount: 2
Fore
SplineSet
250 101 m 1,0,1
 229 101 229 101 214 116 c 256,2,3
 200 130 200 130 200 151 c 0,4,5
 200 172 200 172 214 185 c 256,6,7
 228 199 228 199 250 200 c 256,8,9
 271 200 271 200 285 185 c 0,10,11
 299 172 299 172 299 151 c 0,12,13
 299 130 299 130 285 116 c 0,14,15
 271 102 271 102 250 101 c 1,16,-1
 250 101 l 1,0,1
250 200 m 1,17,18
 229 200 229 200 214 215 c 256,19,20
 200 229 200 229 200 251 c 256,21,22
 200 272 200 272 214 286 c 0,23,24
 228 300 228 300 250 300 c 256,25,26
 271 300 271 300 285 286 c 0,27,28
 299 272 299 272 299 251 c 256,29,30
 299 230 299 230 285 215 c 0,31,32
 271 201 271 201 250 200 c 1,33,-1
 250 200 l 1,17,18
49 300 m 1,34,35
 28 300 28 300 14 314 c 0,36,37
 0 328 0 328 0 350 c 256,38,39
 0 371 0 371 14 385 c 0,40,41
 28 399 28 399 49 400 c 256,42,43
 70 400 70 400 85 385 c 256,44,45
 99 371 99 371 100 350 c 256,46,47
 100 329 100 329 85 314 c 0,48,49
 71 300 71 300 49 300 c 1,50,-1
 49 300 l 1,34,35
150 300 m 1,51,52
 129 300 129 300 115 314 c 0,53,54
 101 328 101 328 100 350 c 256,55,56
 100 371 100 371 115 385 c 256,57,58
 129 399 129 399 150 400 c 0,59,60
 171 400 171 400 184 385 c 256,61,62
 198 371 198 371 200 350 c 256,63,64
 200 329 200 329 184 314 c 0,65,66
 171 300 171 300 150 300 c 1,67,-1
 150 300 l 1,51,52
250 300 m 1,68,69
 229 300 229 300 214 314 c 0,70,71
 200 328 200 328 200 350 c 256,72,73
 200 371 200 371 214 385 c 256,74,75
 228 399 228 399 250 400 c 256,76,77
 271 400 271 400 285 385 c 0,78,79
 299 371 299 371 299 350 c 256,80,81
 299 329 299 329 285 314 c 0,82,83
 271 300 271 300 250 300 c 1,84,-1
 250 300 l 1,68,69
349 300 m 1,85,86
 328 300 328 300 314 314 c 0,87,88
 300 328 300 328 299 350 c 256,89,90
 300 371 300 371 314 385 c 0,91,92
 328 399 328 399 349 400 c 256,93,94
 370 400 370 400 384 385 c 256,95,96
 398 371 398 371 399 350 c 256,97,98
 399 329 399 329 384 314 c 0,99,100
 370 300 370 300 349 300 c 1,101,-1
 349 300 l 1,85,86
448 300 m 1,102,103
 427 300 427 300 414 314 c 0,104,105
 400 328 400 328 399 350 c 256,106,107
 399 371 399 371 414 385 c 256,108,109
 427 399 427 399 448 400 c 0,110,111
 469 400 469 400 484 385 c 256,112,113
 498 371 498 371 499 350 c 256,114,115
 499 329 499 329 484 314 c 0,116,117
 470 300 470 300 448 300 c 1,118,-1
 448 300 l 1,102,103
250 400 m 1,119,120
 229 400 229 400 214 415 c 256,121,122
 200 428 200 428 200 449 c 0,123,124
 200 470 200 470 214 484 c 256,125,126
 228 498 228 498 250 500 c 256,127,128
 271 500 271 500 285 484 c 0,129,130
 299 470 299 470 299 449 c 0,131,132
 299 428 299 428 285 415 c 0,133,134
 271 401 271 401 250 400 c 1,135,-1
 250 400 l 1,119,120
250 500 m 1,136,137
 229 500 229 500 214 514 c 256,138,139
 200 528 200 528 200 550 c 256,140,141
 200 571 200 571 214 585 c 0,142,143
 228 599 228 599 250 599 c 256,144,145
 271 599 271 599 285 585 c 0,146,147
 299 571 299 571 299 550 c 256,148,149
 299 529 299 529 285 514 c 0,150,151
 271 500 271 500 250 500 c 1,152,-1
 250 500 l 1,136,137
EndSplineSet
Validated: 5
EndChar

StartChar: comma
Encoding: 44 44 12
Width: 600
VWidth: 629
Flags: W
LayerCount: 2
Fore
SplineSet
150 1 m 1,0,1
 129 1 129 1 115 15 c 0,2,3
 101 29 101 29 100 50 c 256,4,5
 100 71 100 71 115 85 c 256,6,7
 129 99 129 99 150 101 c 0,8,9
 171 101 171 101 184 85 c 256,10,11
 198 71 198 71 200 50 c 256,12,13
 200 29 200 29 184 15 c 0,14,15
 171 1 171 1 150 1 c 1,16,-1
 150 1 l 1,0,1
200 101 m 1,17,18
 179 101 179 101 164 116 c 0,19,20
 150 130 150 130 150 151 c 0,21,22
 150 172 150 172 164 185 c 0,23,24
 178 199 178 199 200 200 c 256,25,26
 221 200 221 200 235 185 c 256,27,28
 249 172 249 172 250 151 c 0,29,30
 250 130 250 130 235 116 c 256,31,32
 222 102 222 102 200 101 c 1,33,-1
 200 101 l 1,17,18
100 200 m 1,34,35
 80 200 80 200 65 215 c 256,36,37
 51 229 51 229 49 251 c 256,38,39
 49 272 49 272 65 286 c 0,40,41
 79 300 79 300 100 300 c 256,42,43
 121 300 121 300 135 286 c 0,44,45
 150 272 150 272 150 251 c 256,46,47
 150 230 150 230 135 215 c 0,48,49
 121 201 121 201 100 200 c 1,50,-1
 100 200 l 1,34,35
200 200 m 1,51,52
 179 200 179 200 164 215 c 0,53,54
 150 229 150 229 150 251 c 256,55,56
 150 272 150 272 164 286 c 0,57,58
 178 300 178 300 200 300 c 256,59,60
 221 300 221 300 235 286 c 0,61,62
 249 272 249 272 250 251 c 256,63,64
 250 230 250 230 235 215 c 256,65,66
 222 201 222 201 200 200 c 1,67,-1
 200 200 l 1,51,52
EndSplineSet
Validated: 5
EndChar

StartChar: hyphen
Encoding: 45 45 13
Width: 600
VWidth: 629
Flags: W
LayerCount: 2
Fore
SplineSet
49 300 m 1,0,1
 28 300 28 300 14 314 c 0,2,3
 0 328 0 328 0 350 c 256,4,5
 0 371 0 371 14 385 c 0,6,7
 28 399 28 399 49 400 c 256,8,9
 70 400 70 400 85 385 c 256,10,11
 99 371 99 371 100 350 c 256,12,13
 100 329 100 329 85 314 c 0,14,15
 71 300 71 300 49 300 c 1,16,-1
 49 300 l 1,0,1
150 300 m 1,17,18
 129 300 129 300 115 314 c 0,19,20
 101 328 101 328 100 350 c 256,21,22
 100 371 100 371 115 385 c 256,23,24
 129 399 129 399 150 400 c 0,25,26
 171 400 171 400 184 385 c 256,27,28
 198 371 198 371 200 350 c 256,29,30
 200 329 200 329 184 314 c 0,31,32
 171 300 171 300 150 300 c 1,33,-1
 150 300 l 1,17,18
250 300 m 1,34,35
 229 300 229 300 214 314 c 0,36,37
 200 328 200 328 200 350 c 256,38,39
 200 371 200 371 214 385 c 256,40,41
 228 399 228 399 250 400 c 256,42,43
 271 400 271 400 285 385 c 0,44,45
 299 371 299 371 299 350 c 256,46,47
 299 329 299 329 285 314 c 0,48,49
 271 300 271 300 250 300 c 1,50,-1
 250 300 l 1,34,35
349 300 m 1,51,52
 328 300 328 300 314 314 c 0,53,54
 300 328 300 328 299 350 c 256,55,56
 300 371 300 371 314 385 c 0,57,58
 328 399 328 399 349 400 c 256,59,60
 370 400 370 400 384 385 c 256,61,62
 398 371 398 371 399 350 c 256,63,64
 399 329 399 329 384 314 c 0,65,66
 370 300 370 300 349 300 c 1,67,-1
 349 300 l 1,51,52
448 300 m 1,68,69
 427 300 427 300 414 314 c 0,70,71
 400 328 400 328 399 350 c 256,72,73
 399 371 399 371 414 385 c 256,74,75
 427 399 427 399 448 400 c 0,76,77
 469 400 469 400 484 385 c 256,78,79
 498 371 498 371 499 350 c 256,80,81
 499 329 499 329 484 314 c 0,82,83
 470 300 470 300 448 300 c 1,84,-1
 448 300 l 1,68,69
EndSplineSet
Validated: 5
EndChar

StartChar: period
Encoding: 46 46 14
Width: 600
VWidth: 629
Flags: W
LayerCount: 2
Fore
SplineSet
49 1 m 1,0,1
 28 1 28 1 14 15 c 0,2,3
 0 29 0 29 0 50 c 256,4,5
 0 71 0 71 14 85 c 0,6,7
 28 99 28 99 49 101 c 256,8,9
 70 101 70 101 85 85 c 256,10,11
 99 71 99 71 100 50 c 256,12,13
 100 29 100 29 85 15 c 0,14,15
 71 1 71 1 49 1 c 1,16,-1
 49 1 l 1,0,1
150 1 m 1,17,18
 129 1 129 1 115 15 c 0,19,20
 101 29 101 29 100 50 c 256,21,22
 100 71 100 71 115 85 c 256,23,24
 129 99 129 99 150 101 c 0,25,26
 171 101 171 101 184 85 c 256,27,28
 198 71 198 71 200 50 c 256,29,30
 200 29 200 29 184 15 c 0,31,32
 171 1 171 1 150 1 c 1,33,-1
 150 1 l 1,17,18
49 101 m 1,34,35
 28 101 28 101 14 116 c 0,36,37
 0 130 0 130 0 151 c 0,38,39
 0 172 0 172 14 185 c 0,40,41
 28 199 28 199 49 200 c 256,42,43
 70 200 70 200 85 185 c 256,44,45
 99 172 99 172 100 151 c 0,46,47
 100 130 100 130 85 116 c 256,48,49
 71 102 71 102 49 101 c 1,50,-1
 49 101 l 1,34,35
150 101 m 1,51,52
 129 101 129 101 115 116 c 256,53,54
 101 130 101 130 100 151 c 0,55,56
 100 172 100 172 115 185 c 256,57,58
 129 199 129 199 150 200 c 0,59,60
 171 200 171 200 184 185 c 256,61,62
 198 172 198 172 200 151 c 0,63,64
 200 130 200 130 184 116 c 256,65,66
 171 102 171 102 150 101 c 1,67,-1
 150 101 l 1,51,52
EndSplineSet
Validated: 5
EndChar

StartChar: slash
Encoding: 47 47 15
Width: 600
VWidth: 629
Flags: W
LayerCount: 2
Fore
SplineSet
100 1 m 1,0,1
 80 1 80 1 65 15 c 0,2,3
 51 29 51 29 49 50 c 256,4,5
 49 71 49 71 65 85 c 256,6,7
 79 99 79 99 100 101 c 256,8,9
 121 101 121 101 135 85 c 0,10,11
 150 71 150 71 150 50 c 256,12,13
 150 29 150 29 135 15 c 0,14,15
 121 1 121 1 100 1 c 1,16,-1
 100 1 l 1,0,1
150 101 m 1,17,18
 129 101 129 101 115 116 c 256,19,20
 101 130 101 130 100 151 c 0,21,22
 100 172 100 172 115 185 c 256,23,24
 129 199 129 199 150 200 c 0,25,26
 171 200 171 200 184 185 c 256,27,28
 198 172 198 172 200 151 c 0,29,30
 200 130 200 130 184 116 c 256,31,32
 171 102 171 102 150 101 c 1,33,-1
 150 101 l 1,17,18
200 200 m 1,34,35
 179 200 179 200 164.5 214.5 c 128,-1,36
 150 229 150 229 150 251 c 256,37,38
 150 272 150 272 164 286 c 0,39,40
 180 300 180 300 200 300 c 256,41,42
 221 300 221 300 235 286 c 128,-1,43
 249 272 249 272 250 251 c 256,44,45
 250 230 250 230 235 215 c 256,46,47
 222 201 222 201 200 200 c 1,48,-1
 200 200 l 1,34,35
250 300 m 1,49,50
 229 300 229 300 214 314 c 0,51,52
 200 328 200 328 200 350 c 256,53,54
 200 371 200 371 214 385 c 256,55,56
 228 399 228 399 250 400 c 256,57,58
 271 400 271 400 285 385 c 0,59,60
 299 371 299 371 299 350 c 256,61,62
 299 329 299 329 285 314.5 c 128,-1,63
 271 300 271 300 250 300 c 1,64,-1
 250 300 l 1,49,50
299 400 m 1,65,66
 278 400 278 400 264 415 c 256,67,68
 250 428 250 428 250 449 c 128,-1,69
 250 470 250 470 264 484 c 256,70,71
 278 498 278 498 299 500 c 0,72,73
 320 500 320 500 334 484 c 256,74,75
 348.516129032 469.483870968 348.516129032 469.483870968 348.516129032 447.653485952 c 0,76,77
 348.516129032 427.580645161 348.516129032 427.580645161 334 415 c 256,78,79
 320 401 320 401 299 400 c 1,80,-1
 299 400 l 1,65,66
349 500 m 1,81,82
 328 500 328 500 313.5 514 c 128,-1,83
 299 528 299 528 299 550 c 256,84,85
 299 571 299 571 313.5 585 c 128,-1,86
 328 599 328 599 349 599 c 256,87,88
 370 599 370 599 384 585 c 128,-1,89
 398 571 398 571 399 550 c 256,90,91
 399 529 399 529 384 514 c 256,92,93
 370 500 370 500 349 500 c 1,94,-1
 349 500 l 1,81,82
399 599 m 1,95,96
 378 599 378 599 363 614 c 0,97,98
 349 628 349 628 349 652 c 0,99,100
 349 671 349 671 363 684 c 256,101,102
 377 698 377 698 399 699 c 256,103,104
 420 699 420 699 434 684 c 0,105,106
 448 670 448 670 448 649 c 256,107,108
 448 628 448 628 434 613.5 c 128,-1,109
 420 599 420 599 399 599 c 1,110,-1
 399 599 l 1,95,96
EndSplineSet
Validated: 5
EndChar

StartChar: zero
Encoding: 48 48 16
Width: 600
VWidth: 629
Flags: W
LayerCount: 2
Fore
SplineSet
100 1 m 1,0,1
 80 1 80 1 65 15 c 0,2,3
 51 29 51 29 49 50 c 256,4,5
 49 71 49 71 65 85 c 256,6,7
 79 99 79 99 100 101 c 256,8,9
 121 101 121 101 135 85 c 0,10,11
 150 71 150 71 150 50 c 256,12,13
 150 29 150 29 135.5 15 c 128,-1,14
 121 1 121 1 100 1 c 1,15,-1
 100 1 l 1,0,1
200 1 m 1,16,17
 179 1 179 1 164.5 15.5 c 128,-1,18
 150 30 150 30 150 50 c 256,19,20
 150 72 150 72 164 86 c 0,21,22
 180 100 180 100 200 101 c 256,23,24
 221 101 221 101 235 85 c 256,25,26
 249 71 249 71 250 50 c 256,27,28
 250 29 250 29 235 15 c 0,29,30
 222 1 222 1 200 1 c 1,31,-1
 200 1 l 1,16,17
299 1 m 1,32,33
 278 1 278 1 264 15.5 c 128,-1,34
 250 30 250 30 250 50 c 256,35,36
 250 71 250 71 264 85 c 256,37,38
 278 99 278 99 299 101 c 0,39,40
 320 101 320 101 334 85 c 256,41,42
 348 71 348 71 349 50 c 256,43,44
 349 29 349 29 334.5 15 c 128,-1,45
 320 1 320 1 299 1 c 1,46,-1
 299 1 l 1,32,33
399 1 m 1,47,48
 378 1 378 1 363 15 c 0,49,50
 349 29 349 29 349 53 c 0,51,52
 349 72 349 72 363 85 c 256,53,54
 377 99 377 99 399 101 c 256,55,56
 420 101 420 101 434 85 c 0,57,58
 448 71 448 71 448 50 c 256,59,60
 448 29 448 29 434 15 c 128,-1,61
 420 1 420 1 399 1 c 1,62,-1
 399 1 l 1,47,48
49 101 m 1,63,64
 28 101 28 101 14 115.5 c 128,-1,65
 0 130 0 130 0 150.5 c 128,-1,66
 0 171 0 171 14.5 185.5 c 128,-1,67
 29 200 29 200 49 200 c 256,68,69
 70 200 70 200 85 185 c 256,70,71
 99 172 99 172 100 151 c 0,72,73
 100 130 100 130 85 116 c 256,74,75
 71 102 71 102 49 101 c 1,76,-1
 49 101 l 1,63,64
150 101 m 1,77,78
 129 101 129 101 115 116 c 256,79,80
 100 131 100 131 100 152 c 0,81,82
 100 172 100 172 115 185 c 256,83,84
 129 200 129 200 150 200 c 0,85,-1
 151 200 l 0,86,87
 171 200 171 200 184 185 c 256,88,89
 200 170 200 170 200 149 c 0,90,91
 200 129 200 129 184 116 c 256,92,93
 171 102 171 102 150 101 c 1,94,-1
 150 101 l 1,77,78
448 101 m 1,95,96
 427 101 427 101 414 116 c 256,97,98
 399 131 399 131 399 152 c 0,99,100
 399 172 399 172 414 185 c 256,101,102
 427 200 427 200 448 200 c 0,103,104
 449 200 449 200 450 200 c 0,105,106
 470 200 470 200 484 185 c 256,107,108
 499 170 499 170 499 149 c 0,109,110
 499 129 499 129 484 116 c 256,111,112
 470 102 470 102 448 101 c 1,113,-1
 448 101 l 1,95,96
49 200 m 1,114,115
 28 200 28 200 14 214.5 c 128,-1,116
 0 229 0 229 0 251 c 256,117,118
 0 272 0 272 14.5 286 c 128,-1,119
 29 300 29 300 49 300 c 256,120,121
 70 300 70 300 84.5 285.5 c 128,-1,122
 99 271 99 271 100 251 c 256,123,124
 100 230 100 230 85 215 c 256,125,126
 71 201 71 201 49 200 c 1,127,-1
 49 200 l 1,114,115
200 200 m 1,128,129
 179 200 179 200 164.5 214.5 c 128,-1,130
 150 229 150 229 150 251 c 256,131,132
 150 272 150 272 164 286 c 0,133,134
 180 300 180 300 200 300 c 256,135,136
 221 300 221 300 235 285.5 c 128,-1,137
 249 271 249 271 250 251 c 256,138,139
 250 230 250 230 235 215 c 256,140,141
 222 201 222 201 200 200 c 1,142,-1
 200 200 l 1,128,129
448 200 m 1,143,144
 427 200 427 200 414 215 c 256,145,146
 400 229 400 229 399 251 c 256,147,148
 399 272 399 272 413.5 286 c 128,-1,149
 428 300 428 300 448.5 300 c 128,-1,150
 469 300 469 300 484 285.5 c 128,-1,151
 499 271 499 271 499 251 c 256,152,153
 499 230 499 230 484 215 c 256,154,155
 470 201 470 201 448 200 c 1,156,-1
 448 200 l 1,143,144
49 300 m 1,157,158
 28 300 28 300 14 315 c 128,-1,159
 0 330 0 330 0 350 c 256,160,161
 0 371 0 371 14.5 385 c 128,-1,162
 29 399 29 399 49 400 c 256,163,164
 70 400 70 400 85 385 c 256,165,166
 99 371 99 371 100 350 c 256,167,168
 100 329 100 329 85 314 c 0,169,170
 71 300 71 300 49 300 c 1,171,-1
 49 300 l 1,157,158
250 300 m 1,172,173
 229 300 229 300 214 314 c 0,174,175
 200 328 200 328 200 350 c 256,176,177
 200 371 200 371 214 385 c 256,178,179
 228 399 228 399 250 400 c 256,180,181
 271 400 271 400 285 385 c 0,182,183
 299 371 299 371 299 350 c 256,184,185
 299 329 299 329 284.5 314.5 c 128,-1,186
 270 300 270 300 250 300 c 1,187,-1
 250 300 l 1,172,173
448 300 m 1,188,189
 427 300 427 300 413 315 c 128,-1,190
 399 330 399 330 399 350 c 256,191,192
 399 371 399 371 414 385 c 256,193,194
 427 399 427 399 448 400 c 0,195,196
 469 400 469 400 484 385 c 256,197,198
 498 371 498 371 499 350 c 256,199,200
 499 329 499 329 484 314.5 c 128,-1,201
 469 300 469 300 448 300 c 1,202,-1
 448 300 l 1,188,189
49 400 m 1,203,204
 28 400 28 400 14 414.5 c 128,-1,205
 0 429 0 429 0 449.5 c 128,-1,206
 0 470 0 470 14.5 485 c 128,-1,207
 29 500 29 500 49 500 c 256,208,209
 70 500 70 500 85 484 c 256,210,211
 99 470 99 470 100 449 c 0,212,213
 100 428 100 428 85 415 c 256,214,215
 71 401 71 401 49 400 c 1,216,-1
 49 400 l 1,203,204
299 400 m 1,217,218
 278 400 278 400 264 415 c 256,219,220
 250 429 250 429 250 449.5 c 128,-1,221
 250 470 250 470 264 484 c 256,222,223
 278 498 278 498 299 499 c 0,224,225
 300 499 300 499 300 500 c 0,226,227
 320 500 320 500 334 484 c 256,228,229
 348.516129032 469.483870968 348.516129032 469.483870968 348.516129032 448.184183143 c 0,230,231
 348.516129032 428.548387097 348.516129032 428.548387097 334 415 c 256,232,233
 320 401 320 401 299 400 c 1,234,-1
 299 400 l 1,217,218
448 400 m 1,235,236
 427 400 427 400 414 415 c 256,237,238
 399 430 399 430 399 451 c 0,239,240
 399 471 399 471 414 484 c 256,241,242
 427 498 427 498 448 499 c 0,243,244
 449 499 449 499 450 500 c 0,245,246
 470 500 470 500 484 484 c 256,247,248
 499 469 499 469 499 448 c 0,249,250
 499 428 499 428 484 415 c 256,251,252
 470 401 470 401 448 400 c 1,253,-1
 448 400 l 1,235,236
49 500 m 1,254,255
 28 500 28 500 14 514 c 128,-1,256
 0 528 0 528 0 550 c 256,257,258
 0 571 0 571 14.5 585 c 128,-1,259
 29 599 29 599 49 599 c 256,260,261
 70 599 70 599 84.5 584.5 c 128,-1,262
 99 570 99 570 100 550 c 256,263,264
 100 529 100 529 85 514 c 256,265,266
 71 500 71 500 49 500 c 1,267,-1
 49 500 l 1,254,255
349 500 m 1,268,269
 328 500 328 500 313.5 514 c 128,-1,270
 299 528 299 528 299 550 c 256,271,272
 299 571 299 571 314 585 c 128,-1,273
 329 599 329 599 349 599 c 256,274,275
 370 599 370 599 384 584.5 c 128,-1,276
 398 570 398 570 399 550 c 256,277,278
 399 529 399 529 384 514 c 256,279,280
 370 500 370 500 349 500 c 1,281,-1
 349 500 l 1,268,269
448 500 m 1,282,283
 427 500 427 500 414 514 c 256,284,285
 400 528 400 528 399 550 c 256,286,287
 399 571 399 571 413.5 585 c 128,-1,288
 428 599 428 599 448.5 599 c 128,-1,289
 469 599 469 599 484 584.5 c 128,-1,290
 499 570 499 570 499 550 c 256,291,292
 499 529 499 529 484 514 c 256,293,294
 470 500 470 500 448 500 c 1,295,-1
 448 500 l 1,282,283
100 599 m 1,296,297
 80 599 80 599 65 614 c 0,298,299
 51 628 51 628 49 649 c 256,300,301
 49 670 49 670 65 684 c 256,302,303
 79 698 79 698 100 699 c 256,304,305
 121 699 121 699 135 684 c 0,306,307
 150 670 150 670 150 649 c 256,308,309
 150 628 150 628 135.5 613.5 c 128,-1,310
 121 599 121 599 100 599 c 1,311,-1
 100 599 l 1,296,297
200 599 m 1,312,313
 179 599 179 599 164.5 614 c 128,-1,314
 150 629 150 629 150 649 c 256,315,316
 150 670 150 670 164 684 c 0,317,318
 180 698 180 698 200 699 c 256,319,320
 221 699 221 699 235 684 c 256,321,322
 249 670 249 670 250 649 c 256,323,324
 250 628 250 628 235 614 c 0,325,326
 222 600 222 600 200 599 c 1,327,-1
 200 599 l 1,312,313
299 599 m 1,328,329
 278 599 278 599 264 614 c 128,-1,330
 250 629 250 629 250 649 c 256,331,332
 250 670 250 670 264 684 c 256,333,334
 278 698 278 698 299 699 c 0,335,336
 320 699 320 699 334 684 c 256,337,338
 348 670 348 670 349 649 c 256,339,340
 349 628 349 628 334.5 613.5 c 128,-1,341
 320 599 320 599 299 599 c 1,342,-1
 299 599 l 1,328,329
399 599 m 1,343,344
 378 599 378 599 363 614 c 0,345,346
 349 628 349 628 349 652 c 0,347,348
 349 671 349 671 363 684 c 256,349,350
 377 698 377 698 399 699 c 256,351,352
 420 699 420 699 434 684 c 0,353,354
 448 670 448 670 448 649 c 256,355,356
 448 628 448 628 434 613.5 c 128,-1,357
 420 599 420 599 399 599 c 1,358,-1
 399 599 l 1,343,344
EndSplineSet
Validated: 5
EndChar

StartChar: one
Encoding: 49 49 17
Width: 600
VWidth: 629
Flags: W
LayerCount: 2
Fore
SplineSet
150 1 m 1,0,1
 129 1 129 1 115 15 c 0,2,3
 101 29 101 29 100 50 c 256,4,5
 100 71 100 71 115 85 c 256,6,7
 129 99 129 99 150 101 c 0,8,9
 171 101 171 101 184 85 c 256,10,11
 198 71 198 71 200 50 c 256,12,13
 200 29 200 29 184 15 c 0,14,15
 171 1 171 1 150 1 c 1,16,-1
 150 1 l 1,0,1
250 1 m 1,17,18
 229 1 229 1 214 15 c 0,19,20
 200 29 200 29 200 50 c 256,21,22
 200 71 200 71 214 85 c 256,23,24
 228 99 228 99 250 101 c 256,25,26
 271 101 271 101 285 85 c 0,27,28
 299 71 299 71 299 50 c 256,29,30
 299 29 299 29 285 15 c 0,31,32
 271 1 271 1 250 1 c 1,33,-1
 250 1 l 1,17,18
349 1 m 1,34,35
 328 1 328 1 314 15 c 0,36,37
 300 29 300 29 299 50 c 256,38,39
 300 71 300 71 314 85 c 0,40,41
 328 99 328 99 349 101 c 256,42,43
 370 101 370 101 384 85 c 256,44,45
 398 71 398 71 399 50 c 256,46,47
 399 29 399 29 384 15 c 0,48,49
 370 1 370 1 349 1 c 1,50,-1
 349 1 l 1,34,35
250 101 m 1,51,52
 229 101 229 101 214 116 c 256,53,54
 200 130 200 130 200 151 c 0,55,56
 200 172 200 172 214 185 c 256,57,58
 228 199 228 199 250 200 c 256,59,60
 271 200 271 200 285 185 c 0,61,62
 299 172 299 172 299 151 c 0,63,64
 299 130 299 130 285 116 c 0,65,66
 271 102 271 102 250 101 c 1,67,-1
 250 101 l 1,51,52
250 200 m 1,68,69
 229 200 229 200 214 215 c 256,70,71
 200 229 200 229 200 251 c 256,72,73
 200 272 200 272 214 286 c 0,74,75
 228 300 228 300 250 300 c 256,76,77
 271 300 271 300 285 286 c 0,78,79
 299 272 299 272 299 251 c 256,80,81
 299 230 299 230 285 215 c 0,82,83
 271 201 271 201 250 200 c 1,84,-1
 250 200 l 1,68,69
250 300 m 1,85,86
 229 300 229 300 214 314 c 0,87,88
 200 328 200 328 200 350 c 256,89,90
 200 371 200 371 214 385 c 256,91,92
 228 399 228 399 250 400 c 256,93,94
 271 400 271 400 285 385 c 0,95,96
 299 371 299 371 299 350 c 256,97,98
 299 329 299 329 285 314 c 0,99,100
 271 300 271 300 250 300 c 1,101,-1
 250 300 l 1,85,86
250 400 m 1,102,103
 229 400 229 400 214 415 c 256,104,105
 200 428 200 428 200 449 c 0,106,107
 200 470 200 470 214 484 c 256,108,109
 228 498 228 498 250 500 c 256,110,111
 271 500 271 500 285 484 c 0,112,113
 299 470 299 470 299 449 c 0,114,115
 299 428 299 428 285 415 c 0,116,117
 271 401 271 401 250 400 c 1,118,-1
 250 400 l 1,102,103
150 500 m 1,119,120
 129 500 129 500 115 514 c 256,121,122
 101 528 101 528 100 550 c 256,123,124
 100 571 100 571 115 585 c 0,125,126
 129 599 129 599 150 599 c 0,127,128
 171 599 171 599 184 585 c 0,129,130
 198 571 198 571 200 550 c 256,131,132
 200 529 200 529 184 514 c 256,133,134
 171 500 171 500 150 500 c 1,135,-1
 150 500 l 1,119,120
250 500 m 1,136,137
 229 500 229 500 214 514 c 256,138,139
 200 528 200 528 200 550 c 256,140,141
 200 571 200 571 214 585 c 0,142,143
 228 599 228 599 250 599 c 256,144,145
 271 599 271 599 285 585 c 0,146,147
 299 571 299 571 299 550 c 256,148,149
 299 529 299 529 285 514 c 0,150,151
 271 500 271 500 250 500 c 1,152,-1
 250 500 l 1,136,137
250 599 m 1,153,154
 229 599 229 599 214 614 c 0,155,156
 200 628 200 628 200 649 c 256,157,158
 200 670 200 670 214 684 c 256,159,160
 228 698 228 698 250 699 c 256,161,162
 271 699 271 699 285 684 c 0,163,164
 299 670 299 670 299 649 c 256,165,166
 299 628 299 628 285 614 c 0,167,168
 271 600 271 600 250 599 c 1,169,-1
 250 599 l 1,153,154
EndSplineSet
Validated: 5
EndChar

StartChar: two
Encoding: 50 50 18
Width: 600
VWidth: 629
Flags: W
LayerCount: 2
Fore
SplineSet
49 1 m 1,0,1
 28 1 28 1 14 15 c 0,2,3
 0 29 0 29 0 50 c 256,4,5
 0 71 0 71 14 85 c 0,6,7
 28 99 28 99 49 101 c 256,8,9
 70 101 70 101 85 85 c 256,10,11
 99 71 99 71 100 50 c 256,12,13
 100 29 100 29 85 15 c 0,14,15
 71 1 71 1 49 1 c 1,16,-1
 49 1 l 1,0,1
150 1 m 1,17,18
 129 1 129 1 115 15 c 0,19,20
 101 29 101 29 100 50 c 256,21,22
 100 71 100 71 115 85 c 256,23,24
 129 99 129 99 150 101 c 0,25,26
 171 101 171 101 184 85 c 256,27,28
 198 71 198 71 200 50 c 256,29,30
 200 29 200 29 184 15 c 0,31,32
 171 1 171 1 150 1 c 1,33,-1
 150 1 l 1,17,18
250 1 m 1,34,35
 229 1 229 1 214 15 c 0,36,37
 200 29 200 29 200 50 c 256,38,39
 200 71 200 71 214 85 c 256,40,41
 228 99 228 99 250 101 c 256,42,43
 271 101 271 101 285 85 c 0,44,45
 299 71 299 71 299 50 c 256,46,47
 299 29 299 29 285 15 c 0,48,49
 271 1 271 1 250 1 c 1,50,-1
 250 1 l 1,34,35
349 1 m 1,51,52
 328 1 328 1 314 15 c 0,53,54
 300 29 300 29 299 50 c 256,55,56
 300 71 300 71 314 85 c 0,57,58
 328 99 328 99 349 101 c 256,59,60
 370 101 370 101 384 85 c 256,61,62
 398 71 398 71 399 50 c 256,63,64
 399 29 399 29 384 15 c 0,65,66
 370 1 370 1 349 1 c 1,67,-1
 349 1 l 1,51,52
448 1 m 1,68,69
 427 1 427 1 414 15 c 0,70,71
 400 29 400 29 399 50 c 256,72,73
 399 71 399 71 414 85 c 256,74,75
 427 99 427 99 448 101 c 0,76,77
 469 101 469 101 484 85 c 256,78,79
 498 71 498 71 499 50 c 256,80,81
 499 29 499 29 484 15 c 0,82,83
 470 1 470 1 448 1 c 1,84,-1
 448 1 l 1,68,69
150 101 m 1,85,86
 129 101 129 101 115 116 c 256,87,88
 101 130 101 130 100 151 c 0,89,90
 100 172 100 172 115 185 c 256,91,92
 129 199 129 199 150 200 c 0,93,94
 171 200 171 200 184 185 c 256,95,96
 198 172 198 172 200 151 c 0,97,98
 200 130 200 130 184 116 c 256,99,100
 171 102 171 102 150 101 c 1,101,-1
 150 101 l 1,85,86
250 200 m 1,102,103
 229 200 229 200 214 215 c 256,104,105
 200 229 200 229 200 251 c 256,106,107
 200 272 200 272 214 286 c 0,108,109
 228 300 228 300 250 300 c 256,110,111
 271 300 271 300 285 286 c 0,112,113
 299 272 299 272 299 251 c 256,114,115
 299 230 299 230 285 215 c 0,116,117
 271 201 271 201 250 200 c 1,118,-1
 250 200 l 1,102,103
349 300 m 1,119,120
 328 300 328 300 314 314 c 0,121,122
 300 328 300 328 299 350 c 256,123,124
 300 371 300 371 314 385 c 0,125,126
 328 399 328 399 349 400 c 256,127,128
 370 400 370 400 384 385 c 256,129,130
 398 371 398 371 399 350 c 256,131,132
 399 329 399 329 384 314 c 0,133,134
 370 300 370 300 349 300 c 1,135,-1
 349 300 l 1,119,120
448 400 m 1,136,137
 427 400 427 400 414 415 c 256,138,139
 400 428 400 428 399 449 c 0,140,141
 399 470 399 470 414 484 c 256,142,143
 427 498 427 498 448 500 c 0,144,145
 469 500 469 500 484 484 c 256,146,147
 498 470 498 470 499 449 c 0,148,149
 499 428 499 428 484 415 c 256,150,151
 470 401 470 401 448 400 c 1,152,-1
 448 400 l 1,136,137
49 500 m 1,153,154
 28 500 28 500 14 514 c 0,155,156
 0 528 0 528 0 550 c 256,157,158
 0 571 0 571 14 585 c 0,159,160
 28 599 28 599 49 599 c 256,161,162
 70 599 70 599 85 585 c 0,163,164
 99 571 99 571 100 550 c 256,165,166
 100 529 100 529 85 514 c 256,167,168
 71 500 71 500 49 500 c 1,169,-1
 49 500 l 1,153,154
448 500 m 1,170,171
 427 500 427 500 414 514 c 256,172,173
 400 528 400 528 399 550 c 256,174,175
 399 571 399 571 414 585 c 0,176,177
 427 599 427 599 448 599 c 0,178,179
 469 599 469 599 484 585 c 0,180,181
 498 571 498 571 499 550 c 256,182,183
 499 529 499 529 484 514 c 256,184,185
 470 500 470 500 448 500 c 1,186,-1
 448 500 l 1,170,171
150 599 m 1,187,188
 129 599 129 599 115 614 c 0,189,190
 101 628 101 628 100 649 c 256,191,192
 100 670 100 670 115 684 c 256,193,194
 129 698 129 698 150 699 c 0,195,196
 171 699 171 699 184 684 c 256,197,198
 198 670 198 670 200 649 c 256,199,200
 200 628 200 628 184 614 c 0,201,202
 171 600 171 600 150 599 c 1,203,-1
 150 599 l 1,187,188
250 599 m 1,204,205
 229 599 229 599 214 614 c 0,206,207
 200 628 200 628 200 649 c 256,208,209
 200 670 200 670 214 684 c 256,210,211
 228 698 228 698 250 699 c 256,212,213
 271 699 271 699 285 684 c 0,214,215
 299 670 299 670 299 649 c 256,216,217
 299 628 299 628 285 614 c 0,218,219
 271 600 271 600 250 599 c 1,220,-1
 250 599 l 1,204,205
349 599 m 1,221,222
 328 599 328 599 314 614 c 0,223,224
 300 628 300 628 299 649 c 256,225,226
 300 670 300 670 314 684 c 0,227,228
 328 698 328 698 349 699 c 256,229,230
 370 699 370 699 384 684 c 256,231,232
 398 670 398 670 399 649 c 256,233,234
 399 628 399 628 384 614 c 0,235,236
 370 600 370 600 349 599 c 1,237,-1
 349 599 l 1,221,222
EndSplineSet
Validated: 5
EndChar

StartChar: three
Encoding: 51 51 19
Width: 600
VWidth: 629
Flags: W
LayerCount: 2
Fore
SplineSet
150 1 m 1,0,1
 129 1 129 1 115 15 c 0,2,3
 101 29 101 29 100 50 c 256,4,5
 100 71 100 71 115 85 c 256,6,7
 129 99 129 99 150 101 c 0,8,9
 171 101 171 101 184 85 c 256,10,11
 198 71 198 71 200 50 c 256,12,13
 200 29 200 29 184 15 c 0,14,15
 171 1 171 1 150 1 c 1,16,-1
 150 1 l 1,0,1
250 1 m 1,17,18
 229 1 229 1 214 15 c 0,19,20
 200 29 200 29 200 50 c 256,21,22
 200 71 200 71 214 85 c 256,23,24
 228 99 228 99 250 101 c 256,25,26
 271 101 271 101 285 85 c 0,27,28
 299 71 299 71 299 50 c 256,29,30
 299 29 299 29 285 15 c 0,31,32
 271 1 271 1 250 1 c 1,33,-1
 250 1 l 1,17,18
349 1 m 1,34,35
 328 1 328 1 314 15 c 0,36,37
 300 29 300 29 299 50 c 256,38,39
 300 71 300 71 314 85 c 0,40,41
 328 99 328 99 349 101 c 256,42,43
 370 101 370 101 384 85 c 256,44,45
 398 71 398 71 399 50 c 256,46,47
 399 29 399 29 384 15 c 0,48,49
 370 1 370 1 349 1 c 1,50,-1
 349 1 l 1,34,35
49 101 m 1,51,52
 28 101 28 101 14 116 c 0,53,54
 0 130 0 130 0 151 c 0,55,56
 0 172 0 172 14 185 c 0,57,58
 28 199 28 199 49 200 c 256,59,60
 70 200 70 200 85 185 c 256,61,62
 99 172 99 172 100 151 c 0,63,64
 100 130 100 130 85 116 c 256,65,66
 71 102 71 102 49 101 c 1,67,-1
 49 101 l 1,51,52
448 101 m 1,68,69
 427 101 427 101 414 116 c 256,70,71
 400 130 400 130 399 151 c 0,72,73
 399 172 399 172 414 185 c 256,74,75
 427 199 427 199 448 200 c 0,76,77
 469 200 469 200 484 185 c 256,78,79
 498 172 498 172 499 151 c 0,80,81
 499 130 499 130 484 116 c 256,82,83
 470 102 470 102 448 101 c 1,84,-1
 448 101 l 1,68,69
448 200 m 1,85,86
 427 200 427 200 414 215 c 256,87,88
 400 229 400 229 399 251 c 256,89,90
 399 272 399 272 414 286 c 0,91,92
 427 300 427 300 448 300 c 0,93,94
 469 300 469 300 484 286 c 0,95,96
 498 272 498 272 499 251 c 256,97,98
 499 230 499 230 484 215 c 256,99,100
 470 201 470 201 448 200 c 1,101,-1
 448 200 l 1,85,86
349 300 m 1,102,103
 328 300 328 300 314 314 c 0,104,105
 300 328 300 328 299 350 c 256,106,107
 300 371 300 371 314 385 c 0,108,109
 328 399 328 399 349 400 c 256,110,111
 370 400 370 400 384 385 c 256,112,113
 398 371 398 371 399 350 c 256,114,115
 399 329 399 329 384 314 c 0,116,117
 370 300 370 300 349 300 c 1,118,-1
 349 300 l 1,102,103
250 400 m 1,119,120
 229 400 229 400 214 415 c 256,121,122
 200 428 200 428 200 449 c 0,123,124
 200 470 200 470 214 484 c 256,125,126
 228 498 228 498 250 500 c 256,127,128
 271 500 271 500 285 484 c 0,129,130
 299 470 299 470 299 449 c 0,131,132
 299 428 299 428 285 415 c 0,133,134
 271 401 271 401 250 400 c 1,135,-1
 250 400 l 1,119,120
349 500 m 1,136,137
 328 500 328 500 314 514 c 0,138,139
 300 528 300 528 299 550 c 256,140,141
 300 571 300 571 314 585 c 0,142,143
 328 599 328 599 349 599 c 256,144,145
 370 599 370 599 384 585 c 0,146,147
 398 571 398 571 399 550 c 256,148,149
 399 529 399 529 384 514 c 256,150,151
 370 500 370 500 349 500 c 1,152,-1
 349 500 l 1,136,137
49 599 m 1,153,154
 28 599 28 599 14 614 c 0,155,156
 0 628 0 628 0 649 c 256,157,158
 0 670 0 670 14 684 c 0,159,160
 28 698 28 698 49 699 c 256,161,162
 70 699 70 699 85 684 c 256,163,164
 99 670 99 670 100 649 c 256,165,166
 100 628 100 628 85 614 c 0,167,168
 71 600 71 600 49 599 c 1,169,-1
 49 599 l 1,153,154
150 599 m 1,170,171
 129 599 129 599 115 614 c 0,172,173
 101 628 101 628 100 649 c 256,174,175
 100 670 100 670 115 684 c 256,176,177
 129 698 129 698 150 699 c 0,178,179
 171 699 171 699 184 684 c 256,180,181
 198 670 198 670 200 649 c 256,182,183
 200 628 200 628 184 614 c 0,184,185
 171 600 171 600 150 599 c 1,186,-1
 150 599 l 1,170,171
250 599 m 1,187,188
 229 599 229 599 214 614 c 0,189,190
 200 628 200 628 200 649 c 256,191,192
 200 670 200 670 214 684 c 256,193,194
 228 698 228 698 250 699 c 256,195,196
 271 699 271 699 285 684 c 0,197,198
 299 670 299 670 299 649 c 256,199,200
 299 628 299 628 285 614 c 0,201,202
 271 600 271 600 250 599 c 1,203,-1
 250 599 l 1,187,188
349 599 m 1,204,205
 328 599 328 599 314 614 c 0,206,207
 300 628 300 628 299 649 c 256,208,209
 300 670 300 670 314 684 c 0,210,211
 328 698 328 698 349 699 c 256,212,213
 370 699 370 699 384 684 c 256,214,215
 398 670 398 670 399 649 c 256,216,217
 399 628 399 628 384 614 c 0,218,219
 370 600 370 600 349 599 c 1,220,-1
 349 599 l 1,204,205
448 599 m 1,221,222
 427 599 427 599 414 614 c 0,223,224
 400 628 400 628 399 649 c 256,225,226
 399 670 399 670 414 684 c 256,227,228
 427 698 427 698 448 699 c 0,229,230
 469 699 469 699 484 684 c 256,231,232
 498 670 498 670 499 649 c 256,233,234
 499 628 499 628 484 614 c 0,235,236
 470 600 470 600 448 599 c 1,237,-1
 448 599 l 1,221,222
EndSplineSet
Validated: 5
EndChar

StartChar: four
Encoding: 52 52 20
Width: 600
VWidth: 629
Flags: W
LayerCount: 2
Fore
SplineSet
349 1 m 1,0,1
 328 1 328 1 313.5 15.5 c 128,-1,2
 299 30 299 30 299 50 c 256,3,4
 299 71 299 71 314 85.5 c 128,-1,5
 329 100 329 100 349 101 c 256,6,7
 370 101 370 101 384 85 c 256,8,9
 398 71 398 71 399 50 c 256,10,11
 399 29 399 29 384 15 c 0,12,13
 370 1 370 1 349 1 c 1,14,-1
 349 1 l 1,0,1
49 101 m 1,15,16
 28 101 28 101 14 115.5 c 128,-1,17
 0 130 0 130 0 150.5 c 128,-1,18
 0 171 0 171 14.5 185.5 c 128,-1,19
 29 200 29 200 49 200 c 256,20,21
 70 200 70 200 85 185 c 256,22,23
 99 172 99 172 100 151 c 0,24,25
 100 130 100 130 85 116 c 256,26,27
 71 102 71 102 49 101 c 1,28,-1
 49 101 l 1,15,16
150 101 m 1,29,30
 129 101 129 101 115 116 c 256,31,32
 100 131 100 131 100 152 c 0,33,34
 100 172 100 172 115 185 c 256,35,36
 129 200 129 200 150 200 c 0,37,38
 151 200 l 0,39,40
 171 200 171 200 184 185 c 256,41,42
 200 170 200 170 200 149 c 0,43,44
 200 129 200 129 184 116 c 256,45,46
 171 102 171 102 150 101 c 1,47,-1
 150 101 l 1,29,30
250 101 m 1,48,49
 229 101 229 101 214 116 c 256,50,51
 200 130 200 130 200 150.5 c 128,-1,52
 200 171 200 171 214 185 c 256,53,54
 228 199 228 199 250 200 c 256,55,56
 271 200 271 200 285 185.5 c 128,-1,57
 299 171 299 171 299 150.5 c 128,-1,58
 299 130 299 130 284.5 115.5 c 128,-1,59
 270 101 270 101 250 101 c 1,60,-1
 250 101 l 1,48,49
349 101 m 1,61,62
 328 101 328 101 313.5 115.5 c 128,-1,63
 299 130 299 130 299 150.5 c 128,-1,64
 299 171 299 171 314 185.5 c 128,-1,65
 329 200 329 200 349 200 c 256,66,67
 370 200 370 200 384 185 c 256,68,69
 398 172 398 172 399 151 c 0,70,71
 399 130 399 130 384 116 c 256,72,73
 370 102 370 102 349 101 c 1,74,-1
 349 101 l 1,61,62
448 101 m 1,75,76
 427 101 427 101 414 116 c 256,77,78
 399 131 399 131 399 152 c 0,79,80
 399 172 399 172 414 185 c 256,81,82
 427 200 427 200 448 200 c 0,83,84
 449 200 449 200 450 200 c 0,85,86
 470 200 470 200 484 185 c 256,87,88
 499 170 499 170 499 149 c 0,89,90
 499 129 499 129 484 116 c 256,91,92
 470 102 470 102 448 101 c 1,93,-1
 448 101 l 1,75,76
49 200 m 1,94,95
 28 200 28 200 14 214.5 c 128,-1,96
 0 229 0 229 0 251 c 256,97,98
 0 272 0 272 14.5 286 c 128,-1,99
 29 300 29 300 49 300 c 256,100,101
 70 300 70 300 84.5 285.5 c 128,-1,102
 99 271 99 271 100 251 c 256,103,104
 100 230 100 230 85 215 c 256,105,106
 71 201 71 201 49 200 c 1,107,-1
 49 200 l 1,94,95
349 200 m 1,108,109
 328 200 328 200 313.5 214.5 c 128,-1,110
 299 229 299 229 299 251 c 256,111,112
 299 272 299 272 314 286 c 128,-1,113
 329 300 329 300 349 300 c 256,114,115
 370 300 370 300 384 285.5 c 128,-1,116
 398 271 398 271 399 251 c 256,117,118
 399 230 399 230 384 215 c 256,119,120
 370 201 370 201 349 200 c 1,121,-1
 349 200 l 1,108,109
100 300 m 1,122,123
 80 300 80 300 65 314 c 0,124,125
 51 328 51 328 49 350 c 256,126,127
 49 371 49 371 65 385 c 256,128,129
 79 399 79 399 100 400 c 256,130,131
 121 400 121 400 135 385 c 0,132,133
 150 371 150 371 150 350 c 256,134,135
 150 329 150 329 135.5 314.5 c 128,-1,136
 121 300 121 300 100 300 c 1,137,-1
 100 300 l 1,122,123
349 300 m 1,138,139
 328 300 328 300 313.5 315 c 128,-1,140
 299 330 299 330 299 350 c 256,141,142
 299 371 299 371 314 385 c 128,-1,143
 329 399 329 399 349 400 c 256,144,145
 370 400 370 400 384 385 c 256,146,147
 398 371 398 371 399 350 c 256,148,149
 399 329 399 329 384 314 c 0,150,151
 370 300 370 300 349 300 c 1,152,-1
 349 300 l 1,138,139
150 400 m 1,153,154
 129 400 129 400 115 415 c 256,155,156
 100 430 100 430 100 451 c 0,157,158
 100 471 100 471 115 484 c 256,159,160
 129 498 129 498 150 499 c 0,161,162
 151 499 151 499 151 500 c 0,163,164
 171 500 171 500 184 484 c 256,165,166
 200 469 200 469 200 448 c 0,167,168
 200 428 200 428 184 415 c 256,169,170
 171 401 171 401 150 400 c 1,171,-1
 150 400 l 1,153,154
349 400 m 1,172,173
 328 400 328 400 313.5 414.5 c 128,-1,174
 299 429 299 429 299 449.5 c 128,-1,175
 299 470 299 470 314 485 c 128,-1,176
 329 500 329 500 349 500 c 256,177,178
 370 500 370 500 384 484 c 256,179,180
 398 470 398 470 399 449 c 0,181,182
 399 428 399 428 384 415 c 256,183,184
 370 401 370 401 349 400 c 1,185,-1
 349 400 l 1,172,173
200 500 m 1,186,187
 179 500 179 500 164.5 514 c 128,-1,188
 150 528 150 528 150 550 c 256,189,190
 150 571 150 571 164 585 c 0,191,192
 180 599 180 599 200 599 c 256,193,194
 221 599 221 599 235 584.5 c 128,-1,195
 249 570 249 570 250 550 c 256,196,197
 250 529 250 529 235 514 c 256,198,199
 222 500 222 500 200 500 c 1,200,-1
 200 500 l 1,186,187
250 599 m 1,201,202
 229 599 229 599 214 614 c 0,203,204
 200 628 200 628 200 649 c 256,205,206
 200 670 200 670 214 684 c 256,207,208
 228 698 228 698 250 699 c 256,209,210
 271 699 271 699 285 684 c 0,211,212
 299 670 299 670 299 649 c 256,213,214
 299 628 299 628 284.5 613.5 c 128,-1,215
 270 599 270 599 250 599 c 1,216,-1
 250 599 l 1,201,202
EndSplineSet
Validated: 5
EndChar

StartChar: five
Encoding: 53 53 21
Width: 600
VWidth: 629
Flags: W
LayerCount: 2
Fore
SplineSet
100 1 m 1,0,1
 80 1 80 1 65 15 c 0,2,3
 51 29 51 29 49 50 c 256,4,5
 49 71 49 71 65 85 c 256,6,7
 79 99 79 99 100 101 c 256,8,9
 121 101 121 101 135 85 c 0,10,11
 150 71 150 71 150 50 c 256,12,13
 150 29 150 29 135 15 c 0,14,15
 121 1 121 1 100 1 c 1,16,-1
 100 1 l 1,0,1
200 1 m 1,17,18
 179 1 179 1 164.5 15 c 128,-1,19
 150 29 150 29 150 50 c 256,20,21
 150 72 150 72 164 86 c 0,22,23
 180 100 180 100 200 101 c 256,24,25
 221 101 221 101 235 85 c 256,26,27
 249 71 249 71 250 50 c 256,28,29
 250 29 250 29 235 15 c 0,30,31
 222 1 222 1 200 1 c 1,32,-1
 200 1 l 1,17,18
299 1 m 1,33,34
 278 1 278 1 264 15 c 128,-1,35
 250 29 250 29 250 50 c 256,36,37
 250 71 250 71 264 85 c 256,38,39
 278 99 278 99 299 101 c 0,40,41
 320 101 320 101 334 85 c 256,42,43
 348 71 348 71 349 50 c 256,44,45
 349 29 349 29 334.5 15 c 128,-1,46
 320 1 320 1 299 1 c 1,47,-1
 299 1 l 1,33,34
399 1 m 1,48,49
 378 1 378 1 363 15 c 0,50,51
 349 29 349 29 349 53 c 0,52,53
 349 72 349 72 363 85 c 256,54,55
 377 99 377 99 399 101 c 256,56,57
 420 101 420 101 434 85 c 0,58,59
 448 71 448 71 448 50 c 256,60,61
 448 29 448 29 434 15 c 128,-1,62
 420 1 420 1 399 1 c 1,63,-1
 399 1 l 1,48,49
49 101 m 1,64,65
 28 101 28 101 14 116 c 0,66,67
 0 130 0 130 0 151 c 128,-1,68
 0 172 0 172 14 185 c 0,69,70
 28 199 28 199 49 200 c 256,71,72
 70 200 70 200 85 185 c 256,73,74
 99 172 99 172 100 151 c 0,75,76
 100 130 100 130 85 116 c 256,77,78
 71 102 71 102 49 101 c 1,79,-1
 49 101 l 1,64,65
448 101 m 1,80,81
 427 101 427 101 414 116 c 256,82,83
 400 130 400 130 399 151 c 0,84,85
 399 172 399 172 414 185 c 256,86,87
 427 199 427 199 448 200 c 0,88,89
 469 200 469 200 484 185 c 256,90,91
 498 172 498 172 499 151 c 0,92,93
 499 130 499 130 484 116 c 256,94,95
 470 102 470 102 448 101 c 1,96,-1
 448 101 l 1,80,81
448 200 m 1,97,98
 427 200 427 200 414 215 c 256,99,100
 400 229 400 229 399 251 c 256,101,102
 399 272 399 272 414 286 c 0,103,104
 427 300 427 300 448 300 c 128,-1,105
 469 300 469 300 483.5 286 c 128,-1,106
 498 272 498 272 499 251 c 256,107,108
 499 230 499 230 484 215 c 256,109,110
 470 201 470 201 448 200 c 1,111,-1
 448 200 l 1,97,98
448 300 m 1,112,113
 427 300 427 300 414 314 c 0,114,115
 400 328 400 328 399 350 c 256,116,117
 399 371 399 371 414 385 c 256,118,119
 427 399 427 399 448 400 c 0,120,121
 469 400 469 400 484 385 c 256,122,123
 498 371 498 371 499 350 c 256,124,125
 499 329 499 329 484 314 c 0,126,127
 470 300 470 300 448 300 c 1,128,-1
 448 300 l 1,112,113
49 400 m 1,129,130
 28 400 28 400 14 415 c 0,131,132
 0 428 0 428 0 449 c 128,-1,133
 0 470 0 470 14 484.5 c 128,-1,134
 28 499 28 499 49 500 c 256,135,136
 70 500 70 500 85 484 c 256,137,138
 99 470 99 470 100 449 c 0,139,140
 100 428 100 428 85 415 c 256,141,142
 71 401 71 401 49 400 c 1,143,-1
 49 400 l 1,129,130
150 400 m 1,144,145
 129 400 129 400 115 415 c 256,146,147
 101 428 101 428 100 449 c 0,148,149
 100 470 100 470 115 484 c 256,150,151
 129 498 129 498 150 500 c 0,152,153
 171 500 171 500 184 484 c 256,154,155
 198 470 198 470 200 449 c 0,156,157
 200 428 200 428 184 415 c 256,158,159
 171 401 171 401 150 400 c 1,160,-1
 150 400 l 1,144,145
250 400 m 1,161,162
 229 400 229 400 214 415 c 256,163,164
 200 428 200 428 200 449 c 128,-1,165
 200 470 200 470 214 484 c 256,166,167
 228 498 228 498 250 500 c 256,168,169
 271 500 271 500 285 484 c 0,170,171
 299 470 299 470 299 449 c 128,-1,172
 299 428 299 428 285 415 c 0,173,174
 271 401 271 401 250 400 c 1,175,-1
 250 400 l 1,161,162
349 400 m 1,176,177
 328 400 328 400 314 415 c 0,178,179
 299.483333333 428.479761905 299.483333333 428.479761905 299.483333333 450.392777778 c 0,180,181
 299.483333333 470.483333333 299.483333333 470.483333333 313.5 484.5 c 0,182,183
 328 499 328 499 349 500 c 256,184,185
 370 500 370 500 384 484 c 256,186,187
 398 470 398 470 399 449 c 0,188,189
 399 428 399 428 384 415 c 256,190,191
 370 401 370 401 349 400 c 1,192,-1
 349 400 l 1,176,177
49 500 m 1,193,194
 28 500 28 500 14 514 c 128,-1,195
 0 528 0 528 0 550 c 256,196,197
 0 571 0 571 14 585 c 128,-1,198
 28 599 28 599 49 599 c 256,199,200
 70 599 70 599 84.5 585 c 128,-1,201
 99 571 99 571 100 550 c 256,202,203
 100 529 100 529 85 514 c 256,204,205
 71 500 71 500 49 500 c 1,206,-1
 49 500 l 1,193,194
49 599 m 1,207,208
 28 599 28 599 14 613.5 c 128,-1,209
 0 628 0 628 0 649 c 256,210,211
 0 670 0 670 14 684 c 128,-1,212
 28 698 28 698 49 699 c 256,213,214
 70 699 70 699 85 684 c 256,215,216
 99 670 99 670 100 649 c 256,217,218
 100 628 100 628 85 614 c 0,219,220
 71 600 71 600 49 599 c 1,221,-1
 49 599 l 1,207,208
150 599 m 1,222,223
 129 599 129 599 115 613.5 c 128,-1,224
 101 628 101 628 100 649 c 256,225,226
 100 670 100 670 115 684 c 256,227,228
 129 698 129 698 150 699 c 0,229,230
 171 699 171 699 184 684 c 256,231,232
 198 670 198 670 200 649 c 256,233,234
 200 628 200 628 184 614 c 0,235,236
 171 600 171 600 150 599 c 1,237,-1
 150 599 l 1,222,223
250 599 m 1,238,239
 229 599 229 599 214 614 c 0,240,241
 200 628 200 628 200 649 c 256,242,243
 200 670 200 670 214 684 c 256,244,245
 228 698 228 698 250 699 c 256,246,247
 271 699 271 699 285 684 c 0,248,249
 299 670 299 670 299 649 c 256,250,251
 299 628 299 628 285 613.5 c 128,-1,252
 271 599 271 599 250 599 c 1,253,-1
 250 599 l 1,238,239
349 599 m 1,254,255
 328 599 328 599 313.5 613.5 c 128,-1,256
 299 628 299 628 299 649 c 256,257,258
 299 670 299 670 313.5 684 c 128,-1,259
 328 698 328 698 349 699 c 256,260,261
 370 699 370 699 384 684 c 256,262,263
 398 670 398 670 399 649 c 256,264,265
 399 628 399 628 384 614 c 0,266,267
 370 600 370 600 349 599 c 1,268,-1
 349 599 l 1,254,255
448 599 m 1,269,270
 427 599 427 599 414 614 c 0,271,272
 400 628 400 628 399 649 c 256,273,274
 399 670 399 670 414 684 c 256,275,276
 427 698 427 698 448 699 c 0,277,278
 469 699 469 699 484 684 c 256,279,280
 498 670 498 670 499 649 c 256,281,282
 499 628 499 628 484 614 c 0,283,284
 470 600 470 600 448 599 c 1,285,-1
 448 599 l 1,269,270
EndSplineSet
Validated: 5
EndChar

StartChar: six
Encoding: 54 54 22
Width: 600
VWidth: 629
Flags: W
LayerCount: 2
Fore
SplineSet
100 1 m 1,0,1
 80 1 80 1 65 15 c 0,2,3
 51 29 51 29 49 50 c 256,4,5
 49 71 49 71 65 85 c 256,6,7
 79 99 79 99 100 101 c 256,8,9
 121 101 121 101 135 85 c 0,10,11
 150 71 150 71 150 50 c 256,12,13
 150 29 150 29 135 15 c 0,14,15
 121 1 121 1 100 1 c 1,16,-1
 100 1 l 1,0,1
200 1 m 1,17,18
 179 1 179 1 164.5 15 c 128,-1,19
 150 29 150 29 150 50 c 256,20,21
 150 72 150 72 164 86 c 0,22,23
 180 100 180 100 200 101 c 256,24,25
 221 101 221 101 235 85 c 256,26,27
 249 71 249 71 250 50 c 256,28,29
 250 29 250 29 235 15 c 0,30,31
 222 1 222 1 200 1 c 1,32,-1
 200 1 l 1,17,18
299 1 m 1,33,34
 278 1 278 1 264 15 c 128,-1,35
 250 29 250 29 250 50 c 256,36,37
 250 71 250 71 264 85 c 256,38,39
 278 99 278 99 299 101 c 0,40,41
 320 101 320 101 334 85 c 256,42,43
 348 71 348 71 349 50 c 256,44,45
 349 29 349 29 334.5 15 c 128,-1,46
 320 1 320 1 299 1 c 1,47,-1
 299 1 l 1,33,34
399 1 m 1,48,49
 378 1 378 1 363 15 c 0,50,51
 349 29 349 29 349 53 c 0,52,53
 349 72 349 72 363 85 c 256,54,55
 377 99 377 99 399 101 c 256,56,57
 420 101 420 101 434 85 c 0,58,59
 448 71 448 71 448 50 c 256,60,61
 448 29 448 29 434 15 c 128,-1,62
 420 1 420 1 399 1 c 1,63,-1
 399 1 l 1,48,49
49 101 m 1,64,65
 28 101 28 101 14 116 c 0,66,67
 0 130 0 130 0 151 c 128,-1,68
 0 172 0 172 14 185 c 0,69,70
 28 199 28 199 49 200 c 256,71,72
 70 200 70 200 85 185 c 256,73,74
 99 172 99 172 100 151 c 0,75,76
 100 130 100 130 85 116 c 256,77,78
 71 102 71 102 49 101 c 1,79,-1
 49 101 l 1,64,65
448 101 m 1,80,81
 427 101 427 101 414 116 c 256,82,83
 400 130 400 130 399 151 c 0,84,85
 399 172 399 172 414 185 c 256,86,87
 427 199 427 199 448 200 c 0,88,89
 469 200 469 200 484 185 c 256,90,91
 498 172 498 172 499 151 c 0,92,93
 499 130 499 130 484 116 c 256,94,95
 470 102 470 102 448 101 c 1,96,-1
 448 101 l 1,80,81
49 200 m 1,97,98
 28 200 28 200 14 214.5 c 128,-1,99
 0 229 0 229 0 251 c 256,100,101
 0 272 0 272 14 286 c 128,-1,102
 28 300 28 300 49 300 c 256,103,104
 70 300 70 300 84.5 286 c 128,-1,105
 99 272 99 272 100 251 c 256,106,107
 100 230 100 230 85 215 c 256,108,109
 71 201 71 201 49 200 c 1,110,-1
 49 200 l 1,97,98
448 200 m 1,111,112
 427 200 427 200 414 215 c 256,113,114
 400 229 400 229 399 251 c 256,115,116
 399 272 399 272 414 286 c 0,117,118
 427 300 427 300 448 300 c 128,-1,119
 469 300 469 300 483.5 286 c 128,-1,120
 498 272 498 272 499 251 c 256,121,122
 499 230 499 230 484 215 c 256,123,124
 470 201 470 201 448 200 c 1,125,-1
 448 200 l 1,111,112
49 300 m 1,126,127
 28 300 28 300 14 314.5 c 128,-1,128
 0 329 0 329 0 350 c 256,129,130
 0 371 0 371 14 385 c 128,-1,131
 28 399 28 399 49 400 c 256,132,133
 70 400 70 400 85 385 c 256,134,135
 99 371 99 371 100 350 c 256,136,137
 100 329 100 329 85 314 c 0,138,139
 71 300 71 300 49 300 c 1,140,-1
 49 300 l 1,126,127
150 300 m 1,141,142
 129 300 129 300 115 314.5 c 128,-1,143
 101 329 101 329 100 350 c 256,144,145
 100 371 100 371 115 385 c 256,146,147
 129 399 129 399 150 400 c 0,148,149
 171 400 171 400 184 385 c 256,150,151
 198 371 198 371 200 350 c 256,152,153
 200 329 200 329 184 314 c 0,154,155
 171 300 171 300 150 300 c 1,156,-1
 150 300 l 1,141,142
250 300 m 1,157,158
 229 300 229 300 214 314 c 0,159,160
 200 328 200 328 200 350 c 256,161,162
 200 371 200 371 214 385 c 256,163,164
 228 399 228 399 250 400 c 256,165,166
 271 400 271 400 285 385 c 0,167,168
 299 371 299 371 299 350 c 256,169,170
 299 329 299 329 285 314.5 c 128,-1,171
 271 300 271 300 250 300 c 1,172,-1
 250 300 l 1,157,158
349 300 m 1,173,174
 328 300 328 300 313.5 314.5 c 128,-1,175
 299 329 299 329 299 350 c 256,176,177
 299 371 299 371 313.5 385 c 128,-1,178
 328 399 328 399 349 400 c 256,179,180
 370 400 370 400 384 385 c 256,181,182
 398 371 398 371 399 350 c 256,183,184
 399 329 399 329 384 314 c 0,185,186
 370 300 370 300 349 300 c 1,187,-1
 349 300 l 1,173,174
49 400 m 1,188,189
 28 400 28 400 14 415 c 0,190,191
 0 428 0 428 0 449 c 128,-1,192
 0 470 0 470 14 484.5 c 128,-1,193
 28 499 28 499 49 500 c 256,194,195
 70 500 70 500 85 484 c 256,196,197
 99 470 99 470 100 449 c 0,198,199
 100 428 100 428 85 415 c 256,200,201
 71 401 71 401 49 400 c 1,202,-1
 49 400 l 1,188,189
49 500 m 1,203,204
 28 500 28 500 14 514 c 128,-1,205
 0 528 0 528 0 550 c 256,206,207
 0 571 0 571 14 585 c 128,-1,208
 28 599 28 599 49 599 c 256,209,210
 70 599 70 599 84.5 585 c 128,-1,211
 99 571 99 571 100 550 c 256,212,213
 100 529 100 529 85 514 c 256,214,215
 71 500 71 500 49 500 c 1,216,-1
 49 500 l 1,203,204
100 599 m 1,217,218
 80 599 80 599 65 614 c 0,219,220
 51 628 51 628 49 649 c 256,221,222
 49 670 49 670 65 684 c 256,223,224
 79 698 79 698 100 699 c 256,225,226
 121 699 121 699 135 684 c 0,227,228
 150 670 150 670 150 649 c 256,229,230
 150 628 150 628 135 614 c 0,231,232
 121 600 121 600 100 599 c 1,233,-1
 100 599 l 1,217,218
200 599 m 1,234,235
 179 599 179 599 164.5 613.5 c 128,-1,236
 150 628 150 628 150 649 c 256,237,238
 150 670 150 670 164 684 c 0,239,240
 180 698 180 698 200 699 c 256,241,242
 221 699 221 699 235 684 c 256,243,244
 249 670 249 670 250 649 c 256,245,246
 250 628 250 628 235 614 c 0,247,248
 222 600 222 600 200 599 c 1,249,-1
 200 599 l 1,234,235
299 599 m 1,250,251
 278 599 278 599 264 613.5 c 128,-1,252
 250 628 250 628 250 649 c 256,253,254
 250 670 250 670 264 684 c 256,255,256
 278 698 278 698 299 699 c 0,257,258
 320 699 320 699 334 684 c 256,259,260
 348 670 348 670 349 649 c 256,261,262
 349 628 349 628 334.5 613.5 c 128,-1,263
 320 599 320 599 299 599 c 1,264,-1
 299 599 l 1,250,251
399 599 m 1,265,266
 378 599 378 599 363 614 c 0,267,268
 349 628 349 628 349 652 c 0,269,270
 349 671 349 671 363 684 c 256,271,272
 377 698 377 698 399 699 c 256,273,274
 420 699 420 699 434 684 c 0,275,276
 448 670 448 670 448 649 c 256,277,278
 448 628 448 628 434 613.5 c 128,-1,279
 420 599 420 599 399 599 c 1,280,-1
 399 599 l 1,265,266
EndSplineSet
Validated: 5
EndChar

StartChar: seven
Encoding: 55 55 23
Width: 600
VWidth: 629
Flags: W
LayerCount: 2
Fore
SplineSet
200 1 m 1,0,1
 179 1 179 1 164.5 15 c 128,-1,2
 150 29 150 29 150 50 c 256,3,4
 150 72 150 72 164 86 c 0,5,6
 180 100 180 100 200 101 c 256,7,8
 221 101 221 101 235 85 c 256,9,10
 249 71 249 71 250 50 c 256,11,12
 250 29 250 29 235 15 c 0,13,14
 222 1 222 1 200 1 c 1,15,-1
 200 1 l 1,0,1
200 101 m 1,16,17
 179 101 179 101 164 116 c 0,18,19
 150 130 150 130 150 151 c 128,-1,20
 150 172 150 172 164 185 c 0,21,22
 178 199 178 199 200 200 c 256,23,24
 221 200 221 200 235 185 c 256,25,26
 249 172 249 172 250 151 c 0,27,28
 250 130 250 130 235 116 c 256,29,30
 222 102 222 102 200 101 c 1,31,-1
 200 101 l 1,16,17
250 200 m 1,32,33
 229 200 229 200 214 215 c 256,34,35
 200 229 200 229 200 251 c 256,36,37
 200 272 200 272 214 286 c 128,-1,38
 228 300 228 300 250 300 c 256,39,40
 271 300 271 300 285 286 c 128,-1,41
 299 272 299 272 299 251 c 256,42,43
 299 230 299 230 285 215 c 0,44,45
 271 201 271 201 250 200 c 1,46,-1
 250 200 l 1,32,33
299 300 m 1,47,48
 278 300 278 300 264 314.5 c 128,-1,49
 250 329 250 329 250 350 c 256,50,51
 250 371 250 371 264 385 c 256,52,53
 278 399 278 399 299 400 c 0,54,55
 320 400 320 400 334 385 c 256,56,57
 348 371 348 371 349 350 c 256,58,59
 349 329 349 329 334.5 314.5 c 128,-1,60
 320 300 320 300 299 300 c 1,61,-1
 299 300 l 1,47,48
349 400 m 1,62,63
 328 400 328 400 314 415 c 0,64,65
 299.483333333 428.479761905 299.483333333 428.479761905 299.483333333 450.392777778 c 0,66,67
 299.483333333 470.483333333 299.483333333 470.483333333 313.5 484.5 c 0,68,69
 328 499 328 499 349 500 c 256,70,71
 370 500 370 500 384 484 c 256,72,73
 398 470 398 470 399 449 c 0,74,75
 399 428 399 428 384 415 c 256,76,77
 370 401 370 401 349 400 c 1,78,-1
 349 400 l 1,62,63
399 500 m 1,79,80
 378 500 378 500 363 514 c 256,81,82
 349 528 349 528 349 553 c 0,83,84
 349 572 349 572 363 585 c 0,85,86
 377 599 377 599 399 599 c 256,87,88
 420 599 420 599 434 585 c 128,-1,89
 448 571 448 571 448 550 c 256,90,91
 448 529 448 529 434 514 c 0,92,93
 420 500 420 500 399 500 c 1,94,-1
 399 500 l 1,79,80
49 599 m 1,95,96
 28 599 28 599 14 613.5 c 128,-1,97
 0 628 0 628 0 649 c 256,98,99
 0 670 0 670 14 684 c 128,-1,100
 28 698 28 698 49 699 c 256,101,102
 70 699 70 699 85 684 c 256,103,104
 99 670 99 670 100 649 c 256,105,106
 100 628 100 628 85 614 c 0,107,108
 71 600 71 600 49 599 c 1,109,-1
 49 599 l 1,95,96
150 599 m 1,110,111
 129 599 129 599 115 613.5 c 128,-1,112
 101 628 101 628 100 649 c 256,113,114
 100 670 100 670 115 684 c 256,115,116
 129 698 129 698 150 699 c 0,117,118
 171 699 171 699 184 684 c 256,119,120
 198 670 198 670 200 649 c 256,121,122
 200 628 200 628 184 614 c 0,123,124
 171 600 171 600 150 599 c 1,125,-1
 150 599 l 1,110,111
250 599 m 1,126,127
 229 599 229 599 214 614 c 0,128,129
 200 628 200 628 200 649 c 256,130,131
 200 670 200 670 214 684 c 256,132,133
 228 698 228 698 250 699 c 256,134,135
 271 699 271 699 285 684 c 0,136,137
 299 670 299 670 299 649 c 256,138,139
 299 628 299 628 285 613.5 c 128,-1,140
 271 599 271 599 250 599 c 1,141,-1
 250 599 l 1,126,127
349 599 m 1,142,143
 328 599 328 599 313.5 613.5 c 128,-1,144
 299 628 299 628 299 649 c 256,145,146
 299 670 299 670 313.5 684 c 128,-1,147
 328 698 328 698 349 699 c 256,148,149
 370 699 370 699 384 684 c 256,150,151
 398 670 398 670 399 649 c 256,152,153
 399 628 399 628 384 614 c 0,154,155
 370 600 370 600 349 599 c 1,156,-1
 349 599 l 1,142,143
448 599 m 1,157,158
 427 599 427 599 414 614 c 0,159,160
 400 628 400 628 399 649 c 256,161,162
 399 670 399 670 414 684 c 256,163,164
 427 698 427 698 448 699 c 0,165,166
 469 699 469 699 484 684 c 256,167,168
 498 670 498 670 499 649 c 256,169,170
 499 628 499 628 484 614 c 0,171,172
 470 600 470 600 448 599 c 1,173,-1
 448 599 l 1,157,158
EndSplineSet
Validated: 5
EndChar

StartChar: eight
Encoding: 56 56 24
Width: 600
VWidth: 629
Flags: W
LayerCount: 2
Fore
SplineSet
100 1 m 1,0,1
 80 1 80 1 65 15 c 0,2,3
 51 29 51 29 49 50 c 256,4,5
 49 71 49 71 65 85 c 256,6,7
 79 99 79 99 100 101 c 256,8,9
 121 101 121 101 135 85 c 0,10,11
 150 71 150 71 150 50 c 256,12,13
 150 29 150 29 135 15 c 0,14,15
 121 1 121 1 100 1 c 1,16,-1
 100 1 l 1,0,1
200 1 m 1,17,18
 179 1 179 1 164.5 15 c 128,-1,19
 150 29 150 29 150 50 c 256,20,21
 150 72 150 72 164 86 c 0,22,23
 180 100 180 100 200 101 c 256,24,25
 221 101 221 101 235 85 c 256,26,27
 249 71 249 71 250 50 c 256,28,29
 250 29 250 29 235 15 c 0,30,31
 222 1 222 1 200 1 c 1,32,-1
 200 1 l 1,17,18
299 1 m 1,33,34
 278 1 278 1 264 15 c 128,-1,35
 250 29 250 29 250 50 c 256,36,37
 250 71 250 71 264 85 c 256,38,39
 278 99 278 99 299 101 c 0,40,41
 320 101 320 101 334 85 c 256,42,43
 348 71 348 71 349 50 c 256,44,45
 349 29 349 29 334.5 15 c 128,-1,46
 320 1 320 1 299 1 c 1,47,-1
 299 1 l 1,33,34
399 1 m 1,48,49
 378 1 378 1 363 15 c 0,50,51
 349 29 349 29 349 53 c 0,52,53
 349 72 349 72 363 85 c 256,54,55
 377 99 377 99 399 101 c 256,56,57
 420 101 420 101 434 85 c 0,58,59
 448 71 448 71 448 50 c 256,60,61
 448 29 448 29 434 15 c 128,-1,62
 420 1 420 1 399 1 c 1,63,-1
 399 1 l 1,48,49
49 101 m 1,64,65
 28 101 28 101 14 116 c 0,66,67
 0 130 0 130 0 151 c 128,-1,68
 0 172 0 172 14 185 c 0,69,70
 28 199 28 199 49 200 c 256,71,72
 70 200 70 200 85 185 c 256,73,74
 99 172 99 172 100 151 c 0,75,76
 100 130 100 130 85 116 c 256,77,78
 71 102 71 102 49 101 c 1,79,-1
 49 101 l 1,64,65
448 101 m 1,80,81
 427 101 427 101 414 116 c 256,82,83
 400 130 400 130 399 151 c 0,84,85
 399 172 399 172 414 185 c 256,86,87
 427 199 427 199 448 200 c 0,88,89
 469 200 469 200 484 185 c 256,90,91
 498 172 498 172 499 151 c 0,92,93
 499 130 499 130 484 116 c 256,94,95
 470 102 470 102 448 101 c 1,96,-1
 448 101 l 1,80,81
49 200 m 1,97,98
 28 200 28 200 14 214.5 c 128,-1,99
 0 229 0 229 0 251 c 256,100,101
 0 272 0 272 14 286 c 128,-1,102
 28 300 28 300 49 300 c 256,103,104
 70 300 70 300 84.5 286 c 128,-1,105
 99 272 99 272 100 251 c 256,106,107
 100 230 100 230 85 215 c 256,108,109
 71 201 71 201 49 200 c 1,110,-1
 49 200 l 1,97,98
448 200 m 1,111,112
 427 200 427 200 414 215 c 256,113,114
 400 229 400 229 399 251 c 256,115,116
 399 272 399 272 414 286 c 0,117,118
 427 300 427 300 448 300 c 128,-1,119
 469 300 469 300 483.5 286 c 128,-1,120
 498 272 498 272 499 251 c 256,121,122
 499 230 499 230 484 215 c 256,123,124
 470 201 470 201 448 200 c 1,125,-1
 448 200 l 1,111,112
150 300 m 1,126,127
 129 300 129 300 115 314.5 c 128,-1,128
 101 329 101 329 100 350 c 256,129,130
 100 371 100 371 115 385 c 256,131,132
 129 399 129 399 150 400 c 0,133,134
 171 400 171 400 184 385 c 256,135,136
 198 371 198 371 200 350 c 256,137,138
 200 329 200 329 184 314 c 0,139,140
 171 300 171 300 150 300 c 1,141,-1
 150 300 l 1,126,127
250 300 m 1,142,143
 229 300 229 300 214 314 c 0,144,145
 200 328 200 328 200 350 c 256,146,147
 200 371 200 371 214 385 c 256,148,149
 228 399 228 399 250 400 c 256,150,151
 271 400 271 400 285 385 c 0,152,153
 299 371 299 371 299 350 c 256,154,155
 299 329 299 329 285 314.5 c 128,-1,156
 271 300 271 300 250 300 c 1,157,-1
 250 300 l 1,142,143
349 300 m 1,158,159
 328 300 328 300 313.5 314.5 c 128,-1,160
 299 329 299 329 299 350 c 256,161,162
 299 371 299 371 313.5 385 c 128,-1,163
 328 399 328 399 349 400 c 256,164,165
 370 400 370 400 384 385 c 256,166,167
 398 371 398 371 399 350 c 256,168,169
 399 329 399 329 384 314 c 0,170,171
 370 300 370 300 349 300 c 1,172,-1
 349 300 l 1,158,159
49 400 m 1,173,174
 28 400 28 400 14 415 c 0,175,176
 0 428 0 428 0 449 c 128,-1,177
 0 470 0 470 14 484.5 c 128,-1,178
 28 499 28 499 49 500 c 256,179,180
 70 500 70 500 85 484 c 256,181,182
 99 470 99 470 100 449 c 0,183,184
 100 428 100 428 85 415 c 256,185,186
 71 401 71 401 49 400 c 1,187,-1
 49 400 l 1,173,174
448 400 m 1,188,189
 427 400 427 400 414 415 c 256,190,191
 400 428 400 428 399 449 c 0,192,193
 399 470 399 470 414 484 c 256,194,195
 427 498 427 498 448 500 c 0,196,197
 469 500 469 500 484 484 c 256,198,199
 498 470 498 470 499 449 c 0,200,201
 499 428 499 428 484 415 c 256,202,203
 470 401 470 401 448 400 c 1,204,-1
 448 400 l 1,188,189
49 500 m 1,205,206
 28 500 28 500 14 514 c 128,-1,207
 0 528 0 528 0 550 c 256,208,209
 0 571 0 571 14 585 c 128,-1,210
 28 599 28 599 49 599 c 256,211,212
 70 599 70 599 84.5 585 c 128,-1,213
 99 571 99 571 100 550 c 256,214,215
 100 529 100 529 85 514 c 256,216,217
 71 500 71 500 49 500 c 1,218,-1
 49 500 l 1,205,206
448 500 m 1,219,220
 427 500 427 500 414 514 c 256,221,222
 400 528 400 528 399 550 c 256,223,224
 399 571 399 571 414 585 c 0,225,226
 427 599 427 599 448 599 c 128,-1,227
 469 599 469 599 483.5 585 c 128,-1,228
 498 571 498 571 499 550 c 256,229,230
 499 529 499 529 484 514 c 256,231,232
 470 500 470 500 448 500 c 1,233,-1
 448 500 l 1,219,220
100 599 m 1,234,235
 80 599 80 599 65 614 c 0,236,237
 51 628 51 628 49 649 c 256,238,239
 49 670 49 670 65 684 c 256,240,241
 79 698 79 698 100 699 c 256,242,243
 121 699 121 699 135 684 c 0,244,245
 150 670 150 670 150 649 c 256,246,247
 150 628 150 628 135 614 c 0,248,249
 121 600 121 600 100 599 c 1,250,-1
 100 599 l 1,234,235
200 599 m 1,251,252
 179 599 179 599 164.5 613.5 c 128,-1,253
 150 628 150 628 150 649 c 256,254,255
 150 670 150 670 164 684 c 0,256,257
 180 698 180 698 200 699 c 256,258,259
 221 699 221 699 235 684 c 256,260,261
 249 670 249 670 250 649 c 256,262,263
 250 628 250 628 235 614 c 0,264,265
 222 600 222 600 200 599 c 1,266,-1
 200 599 l 1,251,252
299 599 m 1,267,268
 278 599 278 599 264 613.5 c 128,-1,269
 250 628 250 628 250 649 c 256,270,271
 250 670 250 670 264 684 c 256,272,273
 278 698 278 698 299 699 c 0,274,275
 320 699 320 699 334 684 c 256,276,277
 348 670 348 670 349 649 c 256,278,279
 349 628 349 628 334.5 613.5 c 128,-1,280
 320 599 320 599 299 599 c 1,281,-1
 299 599 l 1,267,268
399 599 m 1,282,283
 378 599 378 599 363 614 c 0,284,285
 349 628 349 628 349 652 c 0,286,287
 349 671 349 671 363 684 c 256,288,289
 377 698 377 698 399 699 c 256,290,291
 420 699 420 699 434 684 c 0,292,293
 448 670 448 670 448 649 c 256,294,295
 448 628 448 628 434 613.5 c 128,-1,296
 420 599 420 599 399 599 c 1,297,-1
 399 599 l 1,282,283
EndSplineSet
Validated: 5
EndChar

StartChar: nine
Encoding: 57 57 25
Width: 600
VWidth: 629
Flags: W
LayerCount: 2
Fore
SplineSet
100 1 m 1,0,1
 80 1 80 1 65 15 c 0,2,3
 51 29 51 29 49 50 c 256,4,5
 49 71 49 71 65 85 c 256,6,7
 79 99 79 99 100 101 c 256,8,9
 121 101 121 101 135 85 c 0,10,11
 150 71 150 71 150 50 c 256,12,13
 150 29 150 29 135 15 c 0,14,15
 121 1 121 1 100 1 c 1,16,-1
 100 1 l 1,0,1
200 1 m 1,17,18
 179 1 179 1 164.5 15 c 128,-1,19
 150 29 150 29 150 50 c 256,20,21
 150 72 150 72 164 86 c 0,22,23
 180 100 180 100 200 101 c 256,24,25
 221 101 221 101 235 85 c 256,26,27
 249 71 249 71 250 50 c 256,28,29
 250 29 250 29 235 15 c 0,30,31
 222 1 222 1 200 1 c 1,32,-1
 200 1 l 1,17,18
299 1 m 1,33,34
 278 1 278 1 264 15 c 128,-1,35
 250 29 250 29 250 50 c 256,36,37
 250 71 250 71 264 85 c 256,38,39
 278 99 278 99 299 101 c 0,40,41
 320 101 320 101 334 85 c 256,42,43
 348 71 348 71 349 50 c 256,44,45
 349 29 349 29 334.5 15 c 128,-1,46
 320 1 320 1 299 1 c 1,47,-1
 299 1 l 1,33,34
399 1 m 1,48,49
 378 1 378 1 363 15 c 0,50,51
 349 29 349 29 349 53 c 0,52,53
 349 72 349 72 363 85 c 256,54,55
 377 99 377 99 399 101 c 256,56,57
 420 101 420 101 434 85 c 0,58,59
 448 71 448 71 448 50 c 256,60,61
 448 29 448 29 434 15 c 128,-1,62
 420 1 420 1 399 1 c 1,63,-1
 399 1 l 1,48,49
448 101 m 1,64,65
 427 101 427 101 414 116 c 256,66,67
 400 130 400 130 399 151 c 0,68,69
 399 172 399 172 414 185 c 256,70,71
 427 199 427 199 448 200 c 0,72,73
 469 200 469 200 484 185 c 256,74,75
 498 172 498 172 499 151 c 0,76,77
 499 130 499 130 484 116 c 256,78,79
 470 102 470 102 448 101 c 1,80,-1
 448 101 l 1,64,65
448 200 m 1,81,82
 427 200 427 200 414 215 c 256,83,84
 400 229 400 229 399 251 c 256,85,86
 399 272 399 272 414 286 c 0,87,88
 427 300 427 300 448 300 c 128,-1,89
 469 300 469 300 483.5 286 c 128,-1,90
 498 272 498 272 499 251 c 256,91,92
 499 230 499 230 484 215 c 256,93,94
 470 201 470 201 448 200 c 1,95,-1
 448 200 l 1,81,82
150 300 m 1,96,97
 129 300 129 300 115 314.5 c 128,-1,98
 101 329 101 329 100 350 c 256,99,100
 100 371 100 371 115 385 c 256,101,102
 129 399 129 399 150 400 c 0,103,104
 171 400 171 400 184 385 c 256,105,106
 198 371 198 371 200 350 c 256,107,108
 200 329 200 329 184 314 c 0,109,110
 171 300 171 300 150 300 c 1,111,-1
 150 300 l 1,96,97
250 300 m 1,112,113
 229 300 229 300 214 314 c 0,114,115
 200 328 200 328 200 350 c 256,116,117
 200 371 200 371 214 385 c 256,118,119
 228 399 228 399 250 400 c 256,120,121
 271 400 271 400 285 385 c 0,122,123
 299 371 299 371 299 350 c 256,124,125
 299 329 299 329 285 314.5 c 128,-1,126
 271 300 271 300 250 300 c 1,127,-1
 250 300 l 1,112,113
349 300 m 1,128,129
 328 300 328 300 313.5 314.5 c 128,-1,130
 299 329 299 329 299 350 c 256,131,132
 299 371 299 371 313.5 385 c 128,-1,133
 328 399 328 399 349 400 c 256,134,135
 370 400 370 400 384 385 c 256,136,137
 398 371 398 371 399 350 c 256,138,139
 399 329 399 329 384 314 c 0,140,141
 370 300 370 300 349 300 c 1,142,-1
 349 300 l 1,128,129
448 300 m 1,143,144
 427 300 427 300 414 314 c 0,145,146
 400 328 400 328 399 350 c 256,147,148
 399 371 399 371 414 385 c 256,149,150
 427 399 427 399 448 400 c 0,151,152
 469 400 469 400 484 385 c 256,153,154
 498 371 498 371 499 350 c 256,155,156
 499 329 499 329 484 314 c 0,157,158
 470 300 470 300 448 300 c 1,159,-1
 448 300 l 1,143,144
49 400 m 1,160,161
 28 400 28 400 14 415 c 0,162,163
 0 428 0 428 0 449 c 128,-1,164
 0 470 0 470 14 484.5 c 128,-1,165
 28 499 28 499 49 500 c 256,166,167
 70 500 70 500 85 484 c 256,168,169
 99 470 99 470 100 449 c 0,170,171
 100 428 100 428 85 415 c 256,172,173
 71 401 71 401 49 400 c 1,174,-1
 49 400 l 1,160,161
448 400 m 1,175,176
 427 400 427 400 414 415 c 256,177,178
 400 428 400 428 399 449 c 0,179,180
 399 470 399 470 414 484 c 256,181,182
 427 498 427 498 448 500 c 0,183,184
 469 500 469 500 484 484 c 256,185,186
 498 470 498 470 499 449 c 0,187,188
 499 428 499 428 484 415 c 256,189,190
 470 401 470 401 448 400 c 1,191,-1
 448 400 l 1,175,176
49 500 m 1,192,193
 28 500 28 500 14 514 c 128,-1,194
 0 528 0 528 0 550 c 256,195,196
 0 571 0 571 14 585 c 128,-1,197
 28 599 28 599 49 599 c 256,198,199
 70 599 70 599 84.5 585 c 128,-1,200
 99 571 99 571 100 550 c 256,201,202
 100 529 100 529 85 514 c 256,203,204
 71 500 71 500 49 500 c 1,205,-1
 49 500 l 1,192,193
448 500 m 1,206,207
 427 500 427 500 414 514 c 256,208,209
 400 528 400 528 399 550 c 256,210,211
 399 571 399 571 414 585 c 0,212,213
 427 599 427 599 448 599 c 128,-1,214
 469 599 469 599 483.5 585 c 128,-1,215
 498 571 498 571 499 550 c 256,216,217
 499 529 499 529 484 514 c 256,218,219
 470 500 470 500 448 500 c 1,220,-1
 448 500 l 1,206,207
100 599 m 1,221,222
 80 599 80 599 65 614 c 0,223,224
 51 628 51 628 49 649 c 256,225,226
 49 670 49 670 65 684 c 256,227,228
 79 698 79 698 100 699 c 256,229,230
 121 699 121 699 135 684 c 0,231,232
 150 670 150 670 150 649 c 256,233,234
 150 628 150 628 135 614 c 0,235,236
 121 600 121 600 100 599 c 1,237,-1
 100 599 l 1,221,222
200 599 m 1,238,239
 179 599 179 599 164.5 613.5 c 128,-1,240
 150 628 150 628 150 649 c 256,241,242
 150 670 150 670 164 684 c 0,243,244
 180 698 180 698 200 699 c 256,245,246
 221 699 221 699 235 684 c 256,247,248
 249 670 249 670 250 649 c 256,249,250
 250 628 250 628 235 614 c 0,251,252
 222 600 222 600 200 599 c 1,253,-1
 200 599 l 1,238,239
299 599 m 1,254,255
 278 599 278 599 264 613.5 c 128,-1,256
 250 628 250 628 250 649 c 256,257,258
 250 670 250 670 264 684 c 256,259,260
 278 698 278 698 299 699 c 0,261,262
 320 699 320 699 334 684 c 256,263,264
 348 670 348 670 349 649 c 256,265,266
 349 628 349 628 334.5 613.5 c 128,-1,267
 320 599 320 599 299 599 c 1,268,-1
 299 599 l 1,254,255
399 599 m 1,269,270
 378 599 378 599 363 614 c 0,271,272
 349 628 349 628 349 652 c 0,273,274
 349 671 349 671 363 684 c 256,275,276
 377 698 377 698 399 699 c 256,277,278
 420 699 420 699 434 684 c 0,279,280
 448 670 448 670 448 649 c 256,281,282
 448 628 448 628 434 613.5 c 128,-1,283
 420 599 420 599 399 599 c 1,284,-1
 399 599 l 1,269,270
EndSplineSet
Validated: 5
EndChar

StartChar: colon
Encoding: 58 58 26
Width: 600
VWidth: 629
Flags: W
LayerCount: 2
Fore
SplineSet
150 101 m 1,0,1
 129 101 129 101 115 116 c 256,2,3
 101 130 101 130 100 151 c 0,4,5
 100 172 100 172 115 185 c 256,6,7
 129 199 129 199 150 200 c 0,8,9
 171 200 171 200 184 185 c 256,10,11
 198 172 198 172 200 151 c 0,12,13
 200 130 200 130 184 116 c 256,14,15
 171 102 171 102 150 101 c 1,16,-1
 150 101 l 1,0,1
250 101 m 1,17,18
 229 101 229 101 214 116 c 256,19,20
 200 130 200 130 200 151 c 0,21,22
 200 172 200 172 214 185 c 256,23,24
 228 199 228 199 250 200 c 256,25,26
 271 200 271 200 285 185 c 0,27,28
 299 172 299 172 299 151 c 0,29,30
 299 130 299 130 285 116 c 0,31,32
 271 102 271 102 250 101 c 1,33,-1
 250 101 l 1,17,18
150 200 m 1,34,35
 129 200 129 200 115 215 c 256,36,37
 101 229 101 229 100 251 c 256,38,39
 100 272 100 272 115 286 c 0,40,41
 129 300 129 300 150 300 c 0,42,43
 171 300 171 300 184 286 c 0,44,45
 198 272 198 272 200 251 c 256,46,47
 200 230 200 230 184 215 c 256,48,49
 171 201 171 201 150 200 c 1,50,-1
 150 200 l 1,34,35
250 200 m 1,51,52
 229 200 229 200 214 215 c 256,53,54
 200 229 200 229 200 251 c 256,55,56
 200 272 200 272 214 286 c 0,57,58
 228 300 228 300 250 300 c 256,59,60
 271 300 271 300 285 286 c 0,61,62
 299 272 299 272 299 251 c 256,63,64
 299 230 299 230 285 215 c 0,65,66
 271 201 271 201 250 200 c 1,67,-1
 250 200 l 1,51,52
150 400 m 1,68,69
 129 400 129 400 115 415 c 256,70,71
 101 428 101 428 100 449 c 0,72,73
 100 470 100 470 115 484 c 256,74,75
 129 498 129 498 150 500 c 0,76,77
 171 500 171 500 184 484 c 256,78,79
 198 470 198 470 200 449 c 0,80,81
 200 428 200 428 184 415 c 256,82,83
 171 401 171 401 150 400 c 1,84,-1
 150 400 l 1,68,69
250 400 m 1,85,86
 229 400 229 400 214 415 c 256,87,88
 200 428 200 428 200 449 c 0,89,90
 200 470 200 470 214 484 c 256,91,92
 228 498 228 498 250 500 c 256,93,94
 271 500 271 500 285 484 c 0,95,96
 299 470 299 470 299 449 c 0,97,98
 299 428 299 428 285 415 c 0,99,100
 271 401 271 401 250 400 c 1,101,-1
 250 400 l 1,85,86
150 500 m 1,102,103
 129 500 129 500 115 514 c 256,104,105
 101 528 101 528 100 550 c 256,106,107
 100 571 100 571 115 585 c 0,108,109
 129 599 129 599 150 599 c 0,110,111
 171 599 171 599 184 585 c 0,112,113
 198 571 198 571 200 550 c 256,114,115
 200 529 200 529 184 514 c 256,116,117
 171 500 171 500 150 500 c 1,118,-1
 150 500 l 1,102,103
250 500 m 1,119,120
 229 500 229 500 214 514 c 256,121,122
 200 528 200 528 200 550 c 256,123,124
 200 571 200 571 214 585 c 0,125,126
 228 599 228 599 250 599 c 256,127,128
 271 599 271 599 285 585 c 0,129,130
 299 571 299 571 299 550 c 256,131,132
 299 529 299 529 285 514 c 0,133,134
 271 500 271 500 250 500 c 1,135,-1
 250 500 l 1,119,120
EndSplineSet
Validated: 5
EndChar

StartChar: semicolon
Encoding: 59 59 27
Width: 600
VWidth: 629
Flags: W
LayerCount: 2
Fore
SplineSet
200 1 m 1,0,1
 179 1 179 1 164 15 c 0,2,3
 150 29 150 29 150 50 c 256,4,5
 150 71 150 71 164 85 c 0,6,7
 178 99 178 99 200 101 c 256,8,9
 221 101 221 101 235 85 c 256,10,11
 249 71 249 71 250 50 c 256,12,13
 250 29 250 29 235 15 c 0,14,15
 222 1 222 1 200 1 c 1,16,-1
 200 1 l 1,0,1
250 101 m 1,17,18
 229 101 229 101 214 116 c 256,19,20
 200 130 200 130 200 151 c 0,21,22
 200 172 200 172 214 185 c 256,23,24
 228 199 228 199 250 200 c 256,25,26
 271 200 271 200 285 185 c 0,27,28
 299 172 299 172 299 151 c 0,29,30
 299 130 299 130 285 116 c 0,31,32
 271 102 271 102 250 101 c 1,33,-1
 250 101 l 1,17,18
150 200 m 1,34,35
 129 200 129 200 115 215 c 256,36,37
 101 229 101 229 100 251 c 256,38,39
 100 272 100 272 115 286 c 0,40,41
 129 300 129 300 150 300 c 0,42,43
 171 300 171 300 184 286 c 0,44,45
 198 272 198 272 200 251 c 256,46,47
 200 230 200 230 184 215 c 256,48,49
 171 201 171 201 150 200 c 1,50,-1
 150 200 l 1,34,35
250 200 m 1,51,52
 229 200 229 200 214 215 c 256,53,54
 200 229 200 229 200 251 c 256,55,56
 200 272 200 272 214 286 c 0,57,58
 228 300 228 300 250 300 c 256,59,60
 271 300 271 300 285 286 c 0,61,62
 299 272 299 272 299 251 c 256,63,64
 299 230 299 230 285 215 c 0,65,66
 271 201 271 201 250 200 c 1,67,-1
 250 200 l 1,51,52
150 400 m 1,68,69
 129 400 129 400 115 415 c 256,70,71
 101 428 101 428 100 449 c 0,72,73
 100 470 100 470 115 484 c 256,74,75
 129 498 129 498 150 500 c 0,76,77
 171 500 171 500 184 484 c 256,78,79
 198 470 198 470 200 449 c 0,80,81
 200 428 200 428 184 415 c 256,82,83
 171 401 171 401 150 400 c 1,84,-1
 150 400 l 1,68,69
250 400 m 1,85,86
 229 400 229 400 214 415 c 256,87,88
 200 428 200 428 200 449 c 0,89,90
 200 470 200 470 214 484 c 256,91,92
 228 498 228 498 250 500 c 256,93,94
 271 500 271 500 285 484 c 0,95,96
 299 470 299 470 299 449 c 0,97,98
 299 428 299 428 285 415 c 0,99,100
 271 401 271 401 250 400 c 1,101,-1
 250 400 l 1,85,86
150 500 m 1,102,103
 129 500 129 500 115 514 c 256,104,105
 101 528 101 528 100 550 c 256,106,107
 100 571 100 571 115 585 c 0,108,109
 129 599 129 599 150 599 c 0,110,111
 171 599 171 599 184 585 c 0,112,113
 198 571 198 571 200 550 c 256,114,115
 200 529 200 529 184 514 c 256,116,117
 171 500 171 500 150 500 c 1,118,-1
 150 500 l 1,102,103
250 500 m 1,119,120
 229 500 229 500 214 514 c 256,121,122
 200 528 200 528 200 550 c 256,123,124
 200 571 200 571 214 585 c 0,125,126
 228 599 228 599 250 599 c 256,127,128
 271 599 271 599 285 585 c 0,129,130
 299 571 299 571 299 550 c 256,131,132
 299 529 299 529 285 514 c 0,133,134
 271 500 271 500 250 500 c 1,135,-1
 250 500 l 1,119,120
EndSplineSet
Validated: 5
EndChar

StartChar: less
Encoding: 60 60 28
Width: 600
VWidth: 629
Flags: W
LayerCount: 2
Fore
SplineSet
399 1 m 1,0,1
 378 1 378 1 363 15 c 0,2,3
 349 29 349 29 349 53 c 0,4,5
 349 72 349 72 363 85 c 256,6,7
 377 99 377 99 399 101 c 256,8,9
 420 101 420 101 434 85 c 0,10,11
 448 71 448 71 448 50 c 256,12,13
 448 29 448 29 434 15 c 128,-1,14
 420 1 420 1 399 1 c 1,15,-1
 399 1 l 1,0,1
349 101 m 1,16,17
 328 101 328 101 314 116 c 0,18,19
 300 130 300 130 300 151 c 128,-1,20
 300 172 300 172 314 185 c 0,21,22
 328 199 328 199 349 200 c 256,23,24
 370 200 370 200 384 185 c 256,25,26
 398 172 398 172 399 151 c 0,27,28
 399 130 399 130 384 116 c 256,29,30
 370 102 370 102 349 101 c 1,31,-1
 349 101 l 1,16,17
299 200 m 1,32,33
 278 200 278 200 264 215 c 256,34,35
 250 229 250 229 250 251 c 256,36,37
 250 272 250 272 264 286 c 128,-1,38
 278 300 278 300 299 300 c 128,-1,39
 320 300 320 300 334.5 286 c 128,-1,40
 349 272 349 272 349 251 c 256,41,42
 349 230 349 230 334 215 c 256,43,44
 320 201 320 201 299 200 c 1,45,-1
 299 200 l 1,32,33
250 300 m 1,46,47
 229 300 229 300 214 314 c 0,48,49
 200 328 200 328 200 350 c 256,50,51
 200 371 200 371 214 385 c 256,52,53
 228 399 228 399 250 400 c 256,54,55
 271 400 271 400 285 385 c 0,56,57
 299 371 299 371 299 350 c 256,58,59
 299 329 299 329 285 314.5 c 128,-1,60
 271 300 271 300 250 300 c 1,61,-1
 250 300 l 1,46,47
299 400 m 1,62,63
 278 400 278 400 264 415 c 256,64,65
 250 428 250 428 250 449 c 128,-1,66
 250 470 250 470 264 484 c 256,67,68
 278 498 278 498 299 500 c 0,69,70
 320 500 320 500 334 484 c 256,71,72
 348.516129032 469.483870968 348.516129032 469.483870968 348.516129032 447.653485952 c 0,73,74
 348.516129032 427.580645161 348.516129032 427.580645161 334 415 c 256,75,76
 320 401 320 401 299 400 c 1,77,-1
 299 400 l 1,62,63
349 500 m 1,78,79
 328 500 328 500 313.5 514 c 128,-1,80
 299 528 299 528 299 550 c 256,81,82
 299 571 299 571 313.5 585 c 128,-1,83
 328 599 328 599 349 599 c 256,84,85
 370 599 370 599 384 585 c 128,-1,86
 398 571 398 571 399 550 c 256,87,88
 399 529 399 529 384 514 c 256,89,90
 370 500 370 500 349 500 c 1,91,-1
 349 500 l 1,78,79
399 599 m 1,92,93
 378 599 378 599 363 614 c 0,94,95
 349 628 349 628 349 652 c 0,96,97
 349 671 349 671 363 684 c 256,98,99
 377 698 377 698 399 699 c 256,100,101
 420 699 420 699 434 684 c 0,102,103
 448 670 448 670 448 649 c 256,104,105
 448 628 448 628 434 613.5 c 128,-1,106
 420 599 420 599 399 599 c 1,107,-1
 399 599 l 1,92,93
EndSplineSet
Validated: 5
EndChar

StartChar: equal
Encoding: 61 61 29
Width: 600
VWidth: 629
Flags: W
LayerCount: 2
Fore
SplineSet
49 200 m 1,0,1
 28 200 28 200 14 215 c 0,2,3
 0 229 0 229 0 251 c 256,4,5
 0 272 0 272 14 286 c 0,6,7
 28 300 28 300 49 300 c 256,8,9
 70 300 70 300 85 286 c 0,10,11
 99 272 99 272 100 251 c 256,12,13
 100 230 100 230 85 215 c 256,14,15
 71 201 71 201 49 200 c 1,16,-1
 49 200 l 1,0,1
150 200 m 1,17,18
 129 200 129 200 115 215 c 256,19,20
 101 229 101 229 100 251 c 256,21,22
 100 272 100 272 115 286 c 0,23,24
 129 300 129 300 150 300 c 0,25,26
 171 300 171 300 184 286 c 0,27,28
 198 272 198 272 200 251 c 256,29,30
 200 230 200 230 184 215 c 256,31,32
 171 201 171 201 150 200 c 1,33,-1
 150 200 l 1,17,18
250 200 m 1,34,35
 229 200 229 200 214 215 c 256,36,37
 200 229 200 229 200 251 c 256,38,39
 200 272 200 272 214 286 c 0,40,41
 228 300 228 300 250 300 c 256,42,43
 271 300 271 300 285 286 c 0,44,45
 299 272 299 272 299 251 c 256,46,47
 299 230 299 230 285 215 c 0,48,49
 271 201 271 201 250 200 c 1,50,-1
 250 200 l 1,34,35
349 200 m 1,51,52
 328 200 328 200 314 215 c 0,53,54
 300 229 300 229 299 251 c 256,55,56
 300 272 300 272 314 286 c 0,57,58
 328 300 328 300 349 300 c 256,59,60
 370 300 370 300 384 286 c 0,61,62
 398 272 398 272 399 251 c 256,63,64
 399 230 399 230 384 215 c 256,65,66
 370 201 370 201 349 200 c 1,67,-1
 349 200 l 1,51,52
448 200 m 1,68,69
 427 200 427 200 414 215 c 256,70,71
 400 229 400 229 399 251 c 256,72,73
 399 272 399 272 414 286 c 0,74,75
 427 300 427 300 448 300 c 0,76,77
 469 300 469 300 484 286 c 0,78,79
 498 272 498 272 499 251 c 256,80,81
 499 230 499 230 484 215 c 256,82,83
 470 201 470 201 448 200 c 1,84,-1
 448 200 l 1,68,69
49 400 m 1,85,86
 28 400 28 400 14 415 c 0,87,88
 0 428 0 428 0 449 c 0,89,90
 0 470 0 470 14 484 c 0,91,92
 28 498 28 498 49 500 c 256,93,94
 70 500 70 500 85 484 c 256,95,96
 99 470 99 470 100 449 c 0,97,98
 100 428 100 428 85 415 c 256,99,100
 71 401 71 401 49 400 c 1,101,-1
 49 400 l 1,85,86
150 400 m 1,102,103
 129 400 129 400 115 415 c 256,104,105
 101 428 101 428 100 449 c 0,106,107
 100 470 100 470 115 484 c 256,108,109
 129 498 129 498 150 500 c 0,110,111
 171 500 171 500 184 484 c 256,112,113
 198 470 198 470 200 449 c 0,114,115
 200 428 200 428 184 415 c 256,116,117
 171 401 171 401 150 400 c 1,118,-1
 150 400 l 1,102,103
250 400 m 1,119,120
 229 400 229 400 214 415 c 256,121,122
 200 428 200 428 200 449 c 0,123,124
 200 470 200 470 214 484 c 256,125,126
 228 498 228 498 250 500 c 256,127,128
 271 500 271 500 285 484 c 0,129,130
 299 470 299 470 299 449 c 0,131,132
 299 428 299 428 285 415 c 0,133,134
 271 401 271 401 250 400 c 1,135,-1
 250 400 l 1,119,120
349 400 m 1,136,137
 328 400 328 400 314 415 c 0,138,139
 300 428 300 428 299 449 c 0,140,141
 300 470 300 470 314 484 c 0,142,143
 328 498 328 498 349 500 c 256,144,145
 370 500 370 500 384 484 c 256,146,147
 398 470 398 470 399 449 c 0,148,149
 399 428 399 428 384 415 c 256,150,151
 370 401 370 401 349 400 c 1,152,-1
 349 400 l 1,136,137
448 400 m 1,153,154
 427 400 427 400 414 415 c 256,155,156
 400 428 400 428 399 449 c 0,157,158
 399 470 399 470 414 484 c 256,159,160
 427 498 427 498 448 500 c 0,161,162
 469 500 469 500 484 484 c 256,163,164
 498 470 498 470 499 449 c 0,165,166
 499 428 499 428 484 415 c 256,167,168
 470 401 470 401 448 400 c 1,169,-1
 448 400 l 1,153,154
EndSplineSet
Validated: 5
EndChar

StartChar: greater
Encoding: 62 62 30
Width: 600
VWidth: 629
Flags: W
LayerCount: 2
Fore
SplineSet
100 1 m 1,0,1
 80 1 80 1 65 15 c 0,2,3
 51 29 51 29 49 50 c 256,4,5
 49 71 49 71 65 85 c 256,6,7
 79 99 79 99 100 101 c 256,8,9
 121 101 121 101 135 85 c 0,10,11
 150 71 150 71 150 50 c 256,12,13
 150 29 150 29 135 15 c 0,14,15
 121 1 121 1 100 1 c 1,16,-1
 100 1 l 1,0,1
150 101 m 1,17,18
 129 101 129 101 115 116 c 256,19,20
 101 130 101 130 100 151 c 0,21,22
 100 172 100 172 115 185 c 256,23,24
 129 199 129 199 150 200 c 0,25,26
 171 200 171 200 184 185 c 256,27,28
 198 172 198 172 200 151 c 0,29,30
 200 130 200 130 184 116 c 256,31,32
 171 102 171 102 150 101 c 1,33,-1
 150 101 l 1,17,18
200 200 m 1,34,35
 179 200 179 200 164 215 c 0,36,37
 150 229 150 229 150 251 c 256,38,39
 150 272 150 272 164 286 c 0,40,41
 178 300 178 300 200 300 c 256,42,43
 221 300 221 300 235 286 c 0,44,45
 249 272 249 272 250 251 c 256,46,47
 250 230 250 230 235 215 c 256,48,49
 222 201 222 201 200 200 c 1,50,-1
 200 200 l 1,34,35
250 300 m 1,51,52
 229 300 229 300 214 314 c 0,53,54
 200 328 200 328 200 350 c 256,55,56
 200 371 200 371 214 385 c 256,57,58
 228 399 228 399 250 400 c 256,59,60
 271 400 271 400 285 385 c 0,61,62
 299 371 299 371 299 350 c 256,63,64
 299 329 299 329 285 314 c 0,65,66
 271 300 271 300 250 300 c 1,67,-1
 250 300 l 1,51,52
200 400 m 1,68,69
 179 400 179 400 164 415 c 0,70,71
 150 428 150 428 150 449 c 0,72,73
 150 470 150 470 164 484 c 0,74,75
 178 498 178 498 200 500 c 256,76,77
 221 500 221 500 235 484 c 256,78,79
 249 470 249 470 250 449 c 0,80,81
 250 428 250 428 235 415 c 256,82,83
 222 401 222 401 200 400 c 1,84,-1
 200 400 l 1,68,69
150 500 m 1,85,86
 129 500 129 500 115 514 c 256,87,88
 101 528 101 528 100 550 c 256,89,90
 100 571 100 571 115 585 c 0,91,92
 129 599 129 599 150 599 c 0,93,94
 171 599 171 599 184 585 c 0,95,96
 198 571 198 571 200 550 c 256,97,98
 200 529 200 529 184 514 c 256,99,100
 171 500 171 500 150 500 c 1,101,-1
 150 500 l 1,85,86
100 599 m 1,102,103
 80 599 80 599 65 614 c 0,104,105
 51 628 51 628 49 649 c 256,106,107
 49 670 49 670 65 684 c 256,108,109
 79 698 79 698 100 699 c 256,110,111
 121 699 121 699 135 684 c 0,112,113
 150 670 150 670 150 649 c 256,114,115
 150 628 150 628 135 614 c 0,116,117
 121 600 121 600 100 599 c 1,118,-1
 100 599 l 1,102,103
EndSplineSet
Validated: 5
EndChar

StartChar: question
Encoding: 63 63 31
Width: 600
VWidth: 629
Flags: W
LayerCount: 2
Fore
SplineSet
250 1 m 1,0,1
 229 1 229 1 214 15 c 0,2,3
 200 29 200 29 200 50 c 256,4,5
 200 71 200 71 214 85 c 256,6,7
 228 99 228 99 250 101 c 256,8,9
 271 101 271 101 285 85 c 0,10,11
 299 71 299 71 299 50 c 256,12,13
 299 29 299 29 285 15 c 128,-1,14
 271 1 271 1 250 1 c 1,15,-1
 250 1 l 1,0,1
250 200 m 1,16,17
 229 200 229 200 214 215 c 256,18,19
 200 229 200 229 200 251 c 256,20,21
 200 272 200 272 214 286 c 128,-1,22
 228 300 228 300 250 300 c 256,23,24
 271 300 271 300 285 286 c 128,-1,25
 299 272 299 272 299 251 c 256,26,27
 299 230 299 230 285 215 c 0,28,29
 271 201 271 201 250 200 c 1,30,-1
 250 200 l 1,16,17
349 300 m 1,31,32
 328 300 328 300 313.5 314.5 c 128,-1,33
 299 329 299 329 299 350 c 256,34,35
 299 371 299 371 313.5 385 c 128,-1,36
 328 399 328 399 349 400 c 256,37,38
 370 400 370 400 384 385 c 256,39,40
 398 371 398 371 399 350 c 256,41,42
 399 329 399 329 384 314 c 0,43,44
 370 300 370 300 349 300 c 1,45,-1
 349 300 l 1,31,32
399 400 m 1,46,47
 378 400 378 400 363 415 c 256,48,49
 349 428 349 428 349 452 c 0,50,51
 349 471 349 471 363 484 c 256,52,53
 377 498 377 498 399 500 c 256,54,55
 420 500 420 500 434 484 c 0,56,57
 448 470 448 470 448 449 c 128,-1,58
 448 428 448 428 434 415 c 0,59,60
 420 401 420 401 399 400 c 1,61,-1
 399 400 l 1,46,47
100 500 m 1,62,63
 80 500 80 500 65 514 c 256,64,65
 51 528 51 528 49 550 c 256,66,67
 49 571 49 571 65 585 c 0,68,69
 79 599 79 599 100 599 c 256,70,71
 121 599 121 599 135 585 c 0,72,73
 150 571 150 571 150 550 c 256,74,75
 150 529 150 529 135 514 c 0,76,77
 121 500 121 500 100 500 c 1,78,-1
 100 500 l 1,62,63
399 500 m 1,79,80
 378 500 378 500 363 514 c 256,81,82
 349 528 349 528 349 553 c 0,83,84
 349 572 349 572 363 585 c 0,85,86
 377 599 377 599 399 599 c 256,87,88
 420 599 420 599 434 585 c 128,-1,89
 448 571 448 571 448 550 c 256,90,91
 448 529 448 529 434 514 c 0,92,93
 420 500 420 500 399 500 c 1,94,-1
 399 500 l 1,79,80
150 599 m 1,95,96
 129 599 129 599 115 613.5 c 128,-1,97
 101 628 101 628 100 649 c 256,98,99
 100 670 100 670 115 684 c 256,100,101
 129 698 129 698 150 699 c 0,102,103
 171 699 171 699 184 684 c 256,104,105
 198 670 198 670 200 649 c 256,106,107
 200 628 200 628 184 614 c 0,108,109
 171 600 171 600 150 599 c 1,110,-1
 150 599 l 1,95,96
250 599 m 1,111,112
 229 599 229 599 214 614 c 0,113,114
 200 628 200 628 200 649 c 256,115,116
 200 670 200 670 214 684 c 256,117,118
 228 698 228 698 250 699 c 256,119,120
 271 699 271 699 285 684 c 0,121,122
 299 670 299 670 299 649 c 256,123,124
 299 628 299 628 285 613.5 c 128,-1,125
 271 599 271 599 250 599 c 1,126,-1
 250 599 l 1,111,112
349 599 m 1,127,128
 328 599 328 599 313.5 613.5 c 128,-1,129
 299 628 299 628 299 649 c 256,130,131
 299 670 299 670 313.5 684 c 128,-1,132
 328 698 328 698 349 699 c 256,133,134
 370 699 370 699 384 684 c 256,135,136
 398 670 398 670 399 649 c 256,137,138
 399 628 399 628 384 614 c 0,139,140
 370 600 370 600 349 599 c 1,141,-1
 349 599 l 1,127,128
EndSplineSet
Validated: 5
EndChar

StartChar: at
Encoding: 64 64 32
Width: 600
VWidth: 629
Flags: W
LayerCount: 2
Fore
SplineSet
100 1 m 1,0,1
 80 1 80 1 65 15 c 0,2,3
 51 29 51 29 49 50 c 256,4,5
 49 71 49 71 65 85 c 256,6,7
 79 99 79 99 100 101 c 256,8,9
 121 101 121 101 135 85 c 0,10,11
 150 71 150 71 150 50 c 256,12,13
 150 29 150 29 135 15 c 0,14,15
 121 1 121 1 100 1 c 1,16,-1
 100 1 l 1,0,1
200 1 m 1,17,18
 179 1 179 1 164.5 15 c 128,-1,19
 150 29 150 29 150 50 c 256,20,21
 150 72 150 72 164 86 c 0,22,23
 180 100 180 100 200 101 c 256,24,25
 221 101 221 101 235 85 c 256,26,27
 249 71 249 71 250 50 c 256,28,29
 250 29 250 29 235 15 c 0,30,31
 222 1 222 1 200 1 c 1,32,-1
 200 1 l 1,17,18
299 1 m 1,33,34
 278 1 278 1 264 15 c 128,-1,35
 250 29 250 29 250 50 c 256,36,37
 250 71 250 71 264 85 c 256,38,39
 278 99 278 99 299 101 c 0,40,41
 320 101 320 101 334 85 c 256,42,43
 348 71 348 71 349 50 c 256,44,45
 349 29 349 29 334.5 15 c 128,-1,46
 320 1 320 1 299 1 c 1,47,-1
 299 1 l 1,33,34
399 1 m 1,48,49
 378 1 378 1 363 15 c 0,50,51
 349 29 349 29 349 53 c 0,52,53
 349 72 349 72 363 85 c 256,54,55
 377 99 377 99 399 101 c 256,56,57
 420 101 420 101 434 85 c 0,58,59
 448 71 448 71 448 50 c 256,60,61
 448 29 448 29 434 15 c 128,-1,62
 420 1 420 1 399 1 c 1,63,-1
 399 1 l 1,48,49
49 101 m 1,64,65
 28 101 28 101 14 116 c 0,66,67
 0 130 0 130 0 151 c 128,-1,68
 0 172 0 172 14 185 c 0,69,70
 28 199 28 199 49 200 c 256,71,72
 70 200 70 200 85 185 c 256,73,74
 99 172 99 172 100 151 c 0,75,76
 100 130 100 130 85 116 c 256,77,78
 71 102 71 102 49 101 c 1,79,-1
 49 101 l 1,64,65
299 101 m 1,80,81
 278 101 278 101 264 116 c 256,82,83
 250 130 250 130 250 151 c 128,-1,84
 250 172 250 172 264 185 c 256,85,86
 278 199 278 199 299 200 c 0,87,88
 320 200 320 200 334 185 c 256,89,90
 348.516129032 171.520737327 348.516129032 171.520737327 348.516129032 149.652445369 c 0,91,92
 348.516129032 129.548387097 348.516129032 129.548387097 334 116 c 256,93,94
 320 102 320 102 299 101 c 1,95,-1
 299 101 l 1,80,81
448 101 m 1,96,97
 427 101 427 101 414 116 c 256,98,99
 400 130 400 130 399 151 c 0,100,101
 399 172 399 172 414 185 c 256,102,103
 427 199 427 199 448 200 c 0,104,105
 469 200 469 200 484 185 c 256,106,107
 498 172 498 172 499 151 c 0,108,109
 499 130 499 130 484 116 c 256,110,111
 470 102 470 102 448 101 c 1,112,-1
 448 101 l 1,96,97
49 200 m 1,113,114
 28 200 28 200 14 214.5 c 128,-1,115
 0 229 0 229 0 251 c 256,116,117
 0 272 0 272 14 286 c 128,-1,118
 28 300 28 300 49 300 c 256,119,120
 70 300 70 300 84.5 286 c 128,-1,121
 99 272 99 272 100 251 c 256,122,123
 100 230 100 230 85 215 c 256,124,125
 71 201 71 201 49 200 c 1,126,-1
 49 200 l 1,113,114
299 200 m 1,127,128
 278 200 278 200 264 215 c 256,129,130
 250 229 250 229 250 251 c 256,131,132
 250 272 250 272 264 286 c 128,-1,133
 278 300 278 300 299 300 c 128,-1,134
 320 300 320 300 334.5 286 c 128,-1,135
 349 272 349 272 349 251 c 256,136,137
 349 230 349 230 334 215 c 256,138,139
 320 201 320 201 299 200 c 1,140,-1
 299 200 l 1,127,128
448 200 m 1,141,142
 427 200 427 200 414 215 c 256,143,144
 400 229 400 229 399 251 c 256,145,146
 399 272 399 272 414 286 c 0,147,148
 427 300 427 300 448 300 c 128,-1,149
 469 300 469 300 483.5 286 c 128,-1,150
 498 272 498 272 499 251 c 256,151,152
 499 230 499 230 484 215 c 256,153,154
 470 201 470 201 448 200 c 1,155,-1
 448 200 l 1,141,142
100 300 m 1,156,157
 80 300 80 300 65 314 c 0,158,159
 51 328 51 328 49 350 c 256,160,161
 49 371 49 371 65 385 c 256,162,163
 79 399 79 399 100 400 c 256,164,165
 121 400 121 400 135 385 c 0,166,167
 150 371 150 371 150 350 c 256,168,169
 150 329 150 329 135 314 c 0,170,171
 121 300 121 300 100 300 c 1,172,-1
 100 300 l 1,156,157
200 300 m 1,173,174
 179 300 179 300 164.5 314.5 c 128,-1,175
 150 329 150 329 150 350 c 256,176,177
 150 371 150 371 164 385 c 0,178,179
 180 399 180 399 200 400 c 256,180,181
 221 400 221 400 235 385 c 256,182,183
 249 371 249 371 250 350 c 256,184,185
 250 329 250 329 235 314 c 0,186,187
 222 300 222 300 200 300 c 1,188,-1
 200 300 l 1,173,174
299 300 m 1,189,190
 278 300 278 300 264 314.5 c 128,-1,191
 250 329 250 329 250 350 c 256,192,193
 250 371 250 371 264 385 c 256,194,195
 278 399 278 399 299 400 c 0,196,197
 320 400 320 400 334 385 c 256,198,199
 348 371 348 371 349 350 c 256,200,201
 349 329 349 329 334.5 314.5 c 128,-1,202
 320 300 320 300 299 300 c 1,203,-1
 299 300 l 1,189,190
448 300 m 1,204,205
 427 300 427 300 414 314 c 0,206,207
 400 328 400 328 399 350 c 256,208,209
 399 371 399 371 414 385 c 256,210,211
 427 399 427 399 448 400 c 0,212,213
 469 400 469 400 484 385 c 256,214,215
 498 371 498 371 499 350 c 256,216,217
 499 329 499 329 484 314 c 0,218,219
 470 300 470 300 448 300 c 1,220,-1
 448 300 l 1,204,205
448 400 m 1,221,222
 427 400 427 400 414 415 c 256,223,224
 400 428 400 428 399 449 c 0,225,226
 399 470 399 470 414 484 c 256,227,228
 427 498 427 498 448 500 c 0,229,230
 469 500 469 500 484 484 c 256,231,232
 498 470 498 470 499 449 c 0,233,234
 499 428 499 428 484 415 c 256,235,236
 470 401 470 401 448 400 c 1,237,-1
 448 400 l 1,221,222
49 500 m 1,238,239
 28 500 28 500 14 514 c 128,-1,240
 0 528 0 528 0 550 c 256,241,242
 0 571 0 571 14 585 c 128,-1,243
 28 599 28 599 49 599 c 256,244,245
 70 599 70 599 84.5 585 c 128,-1,246
 99 571 99 571 100 550 c 256,247,248
 100 529 100 529 85 514 c 256,249,250
 71 500 71 500 49 500 c 1,251,-1
 49 500 l 1,238,239
448 500 m 1,252,253
 427 500 427 500 414 514 c 256,254,255
 400 528 400 528 399 550 c 256,256,257
 399 571 399 571 414 585 c 0,258,259
 427 599 427 599 448 599 c 128,-1,260
 469 599 469 599 483.5 585 c 128,-1,261
 498 571 498 571 499 550 c 256,262,263
 499 529 499 529 484 514 c 256,264,265
 470 500 470 500 448 500 c 1,266,-1
 448 500 l 1,252,253
100 599 m 1,267,268
 80 599 80 599 65 614 c 0,269,270
 51 628 51 628 49 649 c 256,271,272
 49 670 49 670 65 684 c 256,273,274
 79 698 79 698 100 699 c 256,275,276
 121 699 121 699 135 684 c 0,277,278
 150 670 150 670 150 649 c 256,279,280
 150 628 150 628 135 614 c 0,281,282
 121 600 121 600 100 599 c 1,283,-1
 100 599 l 1,267,268
200 599 m 1,284,285
 179 599 179 599 164.5 613.5 c 128,-1,286
 150 628 150 628 150 649 c 256,287,288
 150 670 150 670 164 684 c 0,289,290
 180 698 180 698 200 699 c 256,291,292
 221 699 221 699 235 684 c 256,293,294
 249 670 249 670 250 649 c 256,295,296
 250 628 250 628 235 614 c 0,297,298
 222 600 222 600 200 599 c 1,299,-1
 200 599 l 1,284,285
299 599 m 1,300,301
 278 599 278 599 264 613.5 c 128,-1,302
 250 628 250 628 250 649 c 256,303,304
 250 670 250 670 264 684 c 256,305,306
 278 698 278 698 299 699 c 0,307,308
 320 699 320 699 334 684 c 256,309,310
 348 670 348 670 349 649 c 256,311,312
 349 628 349 628 334.5 613.5 c 128,-1,313
 320 599 320 599 299 599 c 1,314,-1
 299 599 l 1,300,301
399 599 m 1,315,316
 378 599 378 599 363 614 c 0,317,318
 349 628 349 628 349 652 c 0,319,320
 349 671 349 671 363 684 c 256,321,322
 377 698 377 698 399 699 c 256,323,324
 420 699 420 699 434 684 c 0,325,326
 448 670 448 670 448 649 c 256,327,328
 448 628 448 628 434 613.5 c 128,-1,329
 420 599 420 599 399 599 c 1,330,-1
 399 599 l 1,315,316
EndSplineSet
Validated: 5
EndChar

StartChar: A
Encoding: 65 65 33
Width: 600
VWidth: 629
Flags: W
LayerCount: 2
Fore
SplineSet
49 1 m 1,0,1
 28 1 28 1 14 15 c 128,-1,2
 0 29 0 29 0 50 c 256,3,4
 0 71 0 71 14 85.5 c 128,-1,5
 28 100 28 100 49 101 c 256,6,7
 70 101 70 101 85 85 c 256,8,9
 99 71 99 71 100 50 c 256,10,11
 100 29 100 29 85 15 c 0,12,13
 71 1 71 1 49 1 c 1,14,-1
 49 1 l 1,0,1
448 1 m 1,15,16
 427 1 427 1 414 15 c 0,17,18
 400 29 400 29 399 50 c 256,19,20
 399 71 399 71 414 85 c 256,21,22
 427 99 427 99 448 101 c 0,23,24
 469 101 469 101 484 85 c 256,25,26
 498 71 498 71 499 50 c 256,27,28
 499 29 499 29 484 15 c 0,29,30
 470 1 470 1 448 1 c 1,31,-1
 448 1 l 1,15,16
49 101 m 1,32,33
 28 101 28 101 14 116 c 0,34,35
 0 130 0 130 0 151 c 128,-1,36
 0 172 0 172 14 185 c 0,37,38
 28 199 28 199 49 200 c 256,39,40
 70 200 70 200 85 185 c 256,41,42
 99 172 99 172 100 151 c 0,43,44
 100 130 100 130 85 116 c 256,45,46
 71 102 71 102 49 101 c 1,47,-1
 49 101 l 1,32,33
448 101 m 1,48,49
 427 101 427 101 414 116 c 256,50,51
 400 130 400 130 399 151 c 0,52,53
 399 172 399 172 414 185 c 256,54,55
 427 199 427 199 448 200 c 0,56,57
 469 200 469 200 484 185 c 256,58,59
 498 172 498 172 499 151 c 0,60,61
 499 130 499 130 484 116 c 256,62,63
 470 102 470 102 448 101 c 1,64,-1
 448 101 l 1,48,49
49 200 m 1,65,66
 28 200 28 200 14 214.5 c 128,-1,67
 0 229 0 229 0 251 c 256,68,69
 0 272 0 272 14 286 c 128,-1,70
 28 300 28 300 49 300 c 256,71,72
 70 300 70 300 84.5 286 c 128,-1,73
 99 272 99 272 100 251 c 256,74,75
 100 230 100 230 85 215 c 256,76,77
 71 201 71 201 49 200 c 1,78,-1
 49 200 l 1,65,66
150 200 m 1,79,80
 129 200 129 200 115 215 c 256,81,82
 101 229 101 229 100 251 c 256,83,84
 100 272 100 272 115 286 c 0,85,86
 129 300 129 300 150 300 c 128,-1,87
 171 300 171 300 184 286 c 0,88,89
 198 272 198 272 200 251 c 256,90,91
 200 230 200 230 184 215 c 256,92,93
 171 201 171 201 150 200 c 1,94,-1
 150 200 l 1,79,80
250 200 m 1,95,96
 229 200 229 200 214 215 c 256,97,98
 200 229 200 229 200 251 c 256,99,100
 200 272 200 272 214 286 c 128,-1,101
 228 300 228 300 250 300 c 256,102,103
 271 300 271 300 285 286 c 128,-1,104
 299 272 299 272 299 251 c 256,105,106
 299 230 299 230 285 215 c 0,107,108
 271 201 271 201 250 200 c 1,109,-1
 250 200 l 1,95,96
349 200 m 1,110,111
 328 200 328 200 313.5 214.5 c 128,-1,112
 299 229 299 229 299 251 c 256,113,114
 299 272 299 272 313.5 286 c 128,-1,115
 328 300 328 300 349 300 c 256,116,117
 370 300 370 300 384 286 c 128,-1,118
 398 272 398 272 399 251 c 256,119,120
 399 230 399 230 384 215 c 256,121,122
 370 201 370 201 349 200 c 1,123,-1
 349 200 l 1,110,111
448 200 m 1,124,125
 427 200 427 200 414 215 c 256,126,127
 400 229 400 229 399 251 c 256,128,129
 399 272 399 272 414 286 c 0,130,131
 427 300 427 300 448 300 c 128,-1,132
 469 300 469 300 483.5 286 c 128,-1,133
 498 272 498 272 499 251 c 256,134,135
 499 230 499 230 484 215 c 256,136,137
 470 201 470 201 448 200 c 1,138,-1
 448 200 l 1,124,125
49 300 m 1,139,140
 28 300 28 300 14 314.5 c 128,-1,141
 0 329 0 329 0 350 c 256,142,143
 0 371 0 371 14 385 c 128,-1,144
 28 399 28 399 49 400 c 256,145,146
 70 400 70 400 85 385 c 256,147,148
 99 371 99 371 100 350 c 256,149,150
 100 329 100 329 85 314 c 0,151,152
 71 300 71 300 49 300 c 1,153,-1
 49 300 l 1,139,140
448 300 m 1,154,155
 427 300 427 300 414 314 c 0,156,157
 400 328 400 328 399 350 c 256,158,159
 399 371 399 371 414 385 c 256,160,161
 427 399 427 399 448 400 c 0,162,163
 469 400 469 400 484 385 c 256,164,165
 498 371 498 371 499 350 c 256,166,167
 499 329 499 329 484 314 c 0,168,169
 470 300 470 300 448 300 c 1,170,-1
 448 300 l 1,154,155
49 400 m 1,171,172
 28 400 28 400 14 415 c 0,173,174
 0 428 0 428 0 449 c 128,-1,175
 0 470 0 470 14 484.5 c 128,-1,176
 28 499 28 499 49 500 c 256,177,178
 70 500 70 500 85 484 c 256,179,180
 99 470 99 470 100 449 c 0,181,182
 100 428 100 428 85 415 c 256,183,184
 71 401 71 401 49 400 c 1,185,-1
 49 400 l 1,171,172
448 400 m 1,186,187
 427 400 427 400 414 415 c 256,188,189
 400 428 400 428 399 449 c 0,190,191
 399 470 399 470 414 484 c 256,192,193
 427 498 427 498 448 500 c 0,194,195
 469 500 469 500 484 484 c 256,196,197
 498 470 498 470 499 449 c 0,198,199
 499 428 499 428 484 415 c 256,200,201
 470 401 470 401 448 400 c 1,202,-1
 448 400 l 1,186,187
100 500 m 1,203,204
 80 500 80 500 65 514 c 256,205,206
 51 528 51 528 49 550 c 256,207,208
 49 571 49 571 65 585 c 0,209,210
 79 599 79 599 100 599 c 256,211,212
 121 599 121 599 135 585 c 0,213,214
 150 571 150 571 150 550 c 256,215,216
 150 529 150 529 135 514 c 0,217,218
 121 500 121 500 100 500 c 1,219,-1
 100 500 l 1,203,204
399 500 m 1,220,221
 378 500 378 500 363 514 c 256,222,223
 349 528 349 528 349 553 c 0,224,225
 349 572 349 572 363 585 c 0,226,227
 377 599 377 599 399 599 c 256,228,229
 420 599 420 599 434 585 c 128,-1,230
 448 571 448 571 448 550 c 256,231,232
 448 529 448 529 434 514 c 0,233,234
 420 500 420 500 399 500 c 1,235,-1
 399 500 l 1,220,221
150 599 m 1,236,237
 129 599 129 599 115 613.5 c 128,-1,238
 101 628 101 628 100 649 c 256,239,240
 100 670 100 670 115 684 c 256,241,242
 129 698 129 698 150 699 c 0,243,244
 171 699 171 699 184 684 c 256,245,246
 198 670 198 670 200 649 c 256,247,248
 200 628 200 628 184 614 c 0,249,250
 171 600 171 600 150 599 c 1,251,-1
 150 599 l 1,236,237
250 599 m 1,252,253
 229 599 229 599 214 614 c 0,254,255
 200 628 200 628 200 649 c 256,256,257
 200 670 200 670 214 684 c 256,258,259
 228 698 228 698 250 699 c 256,260,261
 271 699 271 699 285 684 c 0,262,263
 299 670 299 670 299 649 c 256,264,265
 299 628 299 628 285 613.5 c 128,-1,266
 271 599 271 599 250 599 c 1,267,-1
 250 599 l 1,252,253
349 599 m 1,268,269
 328 599 328 599 313.5 613.5 c 128,-1,270
 299 628 299 628 299 649 c 256,271,272
 299 670 299 670 313.5 684 c 128,-1,273
 328 698 328 698 349 699 c 260,274,275
 370 699 370 699 384 684 c 256,276,277
 398 670 398 670 399 649 c 256,278,279
 399 628 399 628 384 614 c 0,280,281
 370 600 370 600 349 599 c 1,282,-1
 349 599 l 1,268,269
EndSplineSet
Validated: 5
EndChar

StartChar: B
Encoding: 66 66 34
Width: 600
VWidth: 629
Flags: W
LayerCount: 2
Fore
SplineSet
49 1 m 1,0,1
 28 1 28 1 14 15 c 128,-1,2
 0 29 0 29 0 50 c 256,3,4
 0 71 0 71 14 85.5 c 128,-1,5
 28 100 28 100 49 101 c 256,6,7
 70 101 70 101 85 85 c 256,8,9
 99 71 99 71 100 50 c 256,10,11
 100 29 100 29 85 15 c 0,12,13
 71 1 71 1 49 1 c 1,14,-1
 49 1 l 1,0,1
150 1 m 1,15,16
 129 1 129 1 115 15 c 128,-1,17
 101 29 101 29 100 50 c 256,18,19
 100 71 100 71 115 85 c 256,20,21
 129 99 129 99 150 101 c 0,22,23
 171 101 171 101 184 85 c 256,24,25
 198 71 198 71 200 50 c 256,26,27
 200 29 200 29 184 15 c 0,28,29
 171 1 171 1 150 1 c 1,30,-1
 150 1 l 1,15,16
250 1 m 1,31,32
 229 1 229 1 214 15 c 0,33,34
 200 29 200 29 200 50 c 256,35,36
 200 71 200 71 214 85 c 256,37,38
 228 99 228 99 250 101 c 256,39,40
 271 101 271 101 285 85 c 0,41,42
 299 71 299 71 299 50 c 256,43,44
 299 29 299 29 285 15 c 128,-1,45
 271 1 271 1 250 1 c 1,46,-1
 250 1 l 1,31,32
349 1 m 1,47,48
 328 1 328 1 313.5 15 c 128,-1,49
 299 29 299 29 299 50 c 256,50,51
 299 71 299 71 313.5 85.5 c 128,-1,52
 328 100 328 100 349 101 c 256,53,54
 370 101 370 101 384 85 c 256,55,56
 398 71 398 71 399 50 c 256,57,58
 399 29 399 29 384 15 c 0,59,60
 370 1 370 1 349 1 c 1,61,-1
 349 1 l 1,47,48
100 101 m 1,62,63
 80 101 80 101 65 116 c 256,64,65
 51 130 51 130 49 151 c 0,66,67
 49 172 49 172 65 185 c 256,68,69
 79 199 79 199 100 200 c 256,70,71
 121 200 121 200 135 185 c 0,72,73
 150 172 150 172 150 151 c 128,-1,74
 150 130 150 130 135 116 c 0,75,76
 121 102 121 102 100 101 c 1,77,-1
 100 101 l 1,62,63
448 101 m 1,78,79
 427 101 427 101 414 116 c 256,80,81
 400 130 400 130 399 151 c 0,82,83
 399 172 399 172 414 185 c 256,84,85
 427 199 427 199 448 200 c 0,86,87
 469 200 469 200 484 185 c 256,88,89
 498 172 498 172 499 151 c 0,90,91
 499 130 499 130 484 116 c 256,92,93
 470 102 470 102 448 101 c 1,94,-1
 448 101 l 1,78,79
100 200 m 1,95,96
 80 200 80 200 65 215 c 256,97,98
 51 229 51 229 49 251 c 256,99,100
 49 272 49 272 65 286 c 0,101,102
 79 300 79 300 100 300 c 256,103,104
 121 300 121 300 135 286 c 0,105,106
 150 272 150 272 150 251 c 256,107,108
 150 230 150 230 135 215 c 0,109,110
 121 201 121 201 100 200 c 1,111,-1
 100 200 l 1,95,96
448 200 m 1,112,113
 427 200 427 200 414 215 c 256,114,115
 400 229 400 229 399 251 c 256,116,117
 399 272 399 272 414 286 c 0,118,119
 427 300 427 300 448 300 c 128,-1,120
 469 300 469 300 483.5 286 c 128,-1,121
 498 272 498 272 499 251 c 256,122,123
 499 230 499 230 484 215 c 256,124,125
 470 201 470 201 448 200 c 1,126,-1
 448 200 l 1,112,113
100 300 m 1,127,128
 80 300 80 300 65 314 c 0,129,130
 51 328 51 328 49 350 c 256,131,132
 49 371 49 371 65 385 c 256,133,134
 79 399 79 399 100 400 c 256,135,136
 121 400 121 400 135 385 c 0,137,138
 150 371 150 371 150 350 c 256,139,140
 150 329 150 329 135 314 c 0,141,142
 121 300 121 300 100 300 c 1,143,-1
 100 300 l 1,127,128
200 300 m 1,144,145
 179 300 179 300 164.5 314.5 c 128,-1,146
 150 329 150 329 150 350 c 256,147,148
 150 371 150 371 164 385 c 0,149,150
 180 399 180 399 200 400 c 256,151,152
 221 400 221 400 235 385 c 256,153,154
 249 371 249 371 250 350 c 256,155,156
 250 329 250 329 235 314 c 0,157,158
 222 300 222 300 200 300 c 1,159,-1
 200 300 l 1,144,145
299 300 m 1,160,161
 278 300 278 300 264 314.5 c 128,-1,162
 250 329 250 329 250 350 c 256,163,164
 250 371 250 371 264 385 c 256,165,166
 278 399 278 399 299 400 c 0,167,168
 320 400 320 400 334 385 c 256,169,170
 348 371 348 371 349 350 c 256,171,172
 349 329 349 329 334.5 314.5 c 128,-1,173
 320 300 320 300 299 300 c 1,174,-1
 299 300 l 1,160,161
399 300 m 1,175,176
 378 300 378 300 363 314 c 0,177,178
 349 328 349 328 349 352 c 0,179,180
 349 371 349 371 363 385 c 256,181,182
 377 399 377 399 399 400 c 256,183,184
 420 400 420 400 434 385 c 0,185,186
 448 371 448 371 448 350 c 256,187,188
 448 329 448 329 434 314.5 c 128,-1,189
 420 300 420 300 399 300 c 1,190,-1
 399 300 l 1,175,176
100 400 m 1,191,192
 80 400 80 400 65 415 c 256,193,194
 51 428 51 428 49 449 c 0,195,196
 49 470 49 470 65 484 c 256,197,198
 79 498 79 498 100 500 c 256,199,200
 121 500 121 500 135 484 c 0,201,202
 150 470 150 470 150 449 c 128,-1,203
 150 428 150 428 135 415 c 0,204,205
 121 401 121 401 100 400 c 1,206,-1
 100 400 l 1,191,192
448 400 m 1,207,208
 427 400 427 400 414 415 c 256,209,210
 400 428 400 428 399 449 c 0,211,212
 399 470 399 470 414 484 c 256,213,214
 427 498 427 498 448 500 c 0,215,216
 469 500 469 500 484 484 c 256,217,218
 498 470 498 470 499 449 c 0,219,220
 499 428 499 428 484 415 c 256,221,222
 470 401 470 401 448 400 c 1,223,-1
 448 400 l 1,207,208
100 500 m 1,224,225
 80 500 80 500 65 514 c 256,226,227
 51 528 51 528 49 550 c 256,228,229
 49 571 49 571 65 585 c 0,230,231
 79 599 79 599 100 599 c 256,232,233
 121 599 121 599 135 585 c 0,234,235
 150 571 150 571 150 550 c 256,236,237
 150 529 150 529 135 514 c 0,238,239
 121 500 121 500 100 500 c 1,240,-1
 100 500 l 1,224,225
448 500 m 1,241,242
 427 500 427 500 414 514 c 256,243,244
 400 528 400 528 399 550 c 256,245,246
 399 571 399 571 414 585 c 0,247,248
 427 599 427 599 448 599 c 128,-1,249
 469 599 469 599 483.5 585 c 128,-1,250
 498 571 498 571 499 550 c 256,251,252
 499 529 499 529 484 514 c 256,253,254
 470 500 470 500 448 500 c 1,255,-1
 448 500 l 1,241,242
49 599 m 1,256,257
 28 599 28 599 14 613.5 c 128,-1,258
 0 628 0 628 0 649 c 256,259,260
 0 670 0 670 14 684 c 128,-1,261
 28 698 28 698 49 699 c 256,262,263
 70 699 70 699 85 684 c 256,264,265
 99 670 99 670 100 649 c 256,266,267
 100 628 100 628 85 614 c 0,268,269
 71 600 71 600 49 599 c 1,270,-1
 49 599 l 1,256,257
150 599 m 1,271,272
 129 599 129 599 115 613.5 c 128,-1,273
 101 628 101 628 100 649 c 256,274,275
 100 670 100 670 115 684 c 256,276,277
 129 698 129 698 150 699 c 0,278,279
 171 699 171 699 184 684 c 256,280,281
 198 670 198 670 200 649 c 256,282,283
 200 628 200 628 184 614 c 0,284,285
 171 600 171 600 150 599 c 1,286,-1
 150 599 l 1,271,272
250 599 m 1,287,288
 229 599 229 599 214 614 c 0,289,290
 200 628 200 628 200 649 c 256,291,292
 200 670 200 670 214 684 c 256,293,294
 228 698 228 698 250 699 c 256,295,296
 271 699 271 699 285 684 c 0,297,298
 299 670 299 670 299 649 c 256,299,300
 299 628 299 628 285 613.5 c 128,-1,301
 271 599 271 599 250 599 c 1,302,-1
 250 599 l 1,287,288
349 599 m 1,303,304
 328 599 328 599 313.5 613.5 c 128,-1,305
 299 628 299 628 299 649 c 256,306,307
 299 670 299 670 313.5 684 c 128,-1,308
 328 698 328 698 349 699 c 256,309,310
 370 699 370 699 384 684 c 256,311,312
 398 670 398 670 399 649 c 256,313,314
 399 628 399 628 384 614 c 0,315,316
 370 600 370 600 349 599 c 1,317,-1
 349 599 l 1,303,304
EndSplineSet
Validated: 5
EndChar

StartChar: C
Encoding: 67 67 35
Width: 600
VWidth: 629
Flags: W
LayerCount: 2
Fore
SplineSet
100 1 m 1,0,1
 80 1 80 1 65 15 c 0,2,3
 51 29 51 29 49 50 c 256,4,5
 49 71 49 71 65 85 c 256,6,7
 79 99 79 99 100 101 c 256,8,9
 121 101 121 101 135 85 c 0,10,11
 150 71 150 71 150 50 c 256,12,13
 150 29 150 29 135 15 c 0,14,15
 121 1 121 1 100 1 c 1,16,-1
 100 1 l 1,0,1
200 1 m 1,17,18
 179 1 179 1 164.5 15 c 128,-1,19
 150 29 150 29 150 50 c 256,20,21
 150 72 150 72 164 86 c 0,22,23
 180 100 180 100 200 101 c 256,24,25
 221 101 221 101 235 85 c 256,26,27
 249 71 249 71 250 50 c 256,28,29
 250 29 250 29 235 15 c 0,30,31
 222 1 222 1 200 1 c 1,32,-1
 200 1 l 1,17,18
299 1 m 1,33,34
 278 1 278 1 264 15 c 128,-1,35
 250 29 250 29 250 50 c 256,36,37
 250 71 250 71 264 85 c 256,38,39
 278 99 278 99 299 101 c 0,40,41
 320 101 320 101 334 85 c 256,42,43
 348 71 348 71 349 50 c 256,44,45
 349 29 349 29 334.5 15 c 128,-1,46
 320 1 320 1 299 1 c 1,47,-1
 299 1 l 1,33,34
399 1 m 1,48,49
 378 1 378 1 363 15 c 0,50,51
 349 29 349 29 349 53 c 0,52,53
 349 72 349 72 363 85 c 256,54,55
 377 99 377 99 399 101 c 256,56,57
 420 101 420 101 434 85 c 0,58,59
 448 71 448 71 448 50 c 256,60,61
 448 29 448 29 434 15 c 128,-1,62
 420 1 420 1 399 1 c 1,63,-1
 399 1 l 1,48,49
49 101 m 1,64,65
 28 101 28 101 14 116 c 0,66,67
 0 130 0 130 0 151 c 128,-1,68
 0 172 0 172 14 185 c 0,69,70
 28 199 28 199 49 200 c 256,71,72
 70 200 70 200 85 185 c 256,73,74
 99 172 99 172 100 151 c 0,75,76
 100 130 100 130 85 116 c 256,77,78
 71 102 71 102 49 101 c 1,79,-1
 49 101 l 1,64,65
448 101 m 1,80,81
 427 101 427 101 414 116 c 256,82,83
 400 130 400 130 399 151 c 0,84,85
 399 172 399 172 414 185 c 256,86,87
 427 199 427 199 448 200 c 0,88,89
 469 200 469 200 484 185 c 256,90,91
 498 172 498 172 499 151 c 0,92,93
 499 130 499 130 484 116 c 256,94,95
 470 102 470 102 448 101 c 1,96,-1
 448 101 l 1,80,81
49 200 m 1,97,98
 28 200 28 200 14 214.5 c 128,-1,99
 0 229 0 229 0 251 c 256,100,101
 0 272 0 272 14 286 c 128,-1,102
 28 300 28 300 49 300 c 256,103,104
 70 300 70 300 84.5 286 c 128,-1,105
 99 272 99 272 100 251 c 256,106,107
 100 230 100 230 85 215 c 256,108,109
 71 201 71 201 49 200 c 1,110,-1
 49 200 l 1,97,98
49 300 m 1,111,112
 28 300 28 300 14 314.5 c 128,-1,113
 0 329 0 329 0 350 c 256,114,115
 0 371 0 371 14 385 c 128,-1,116
 28 399 28 399 49 400 c 256,117,118
 70 400 70 400 85 385 c 256,119,120
 99 371 99 371 100 350 c 256,121,122
 100 329 100 329 85 314 c 0,123,124
 71 300 71 300 49 300 c 1,125,-1
 49 300 l 1,111,112
49 400 m 1,126,127
 28 400 28 400 14 415 c 0,128,129
 0 428 0 428 0 449 c 128,-1,130
 0 470 0 470 14 484.5 c 128,-1,131
 28 499 28 499 49 500 c 256,132,133
 70 500 70 500 85 484 c 256,134,135
 99 470 99 470 100 449 c 0,136,137
 100 428 100 428 85 415 c 256,138,139
 71 401 71 401 49 400 c 1,140,-1
 49 400 l 1,126,127
49 500 m 1,141,142
 28 500 28 500 14 514 c 128,-1,143
 0 528 0 528 0 550 c 256,144,145
 0 571 0 571 14 585 c 128,-1,146
 28 599 28 599 49 599 c 256,147,148
 70 599 70 599 84.5 585 c 128,-1,149
 99 571 99 571 100 550 c 256,150,151
 100 529 100 529 85 514 c 256,152,153
 71 500 71 500 49 500 c 1,154,-1
 49 500 l 1,141,142
448 500 m 1,155,156
 427 500 427 500 414 514 c 256,157,158
 400 528 400 528 399 550 c 256,159,160
 399 571 399 571 414 585 c 0,161,162
 427 599 427 599 448 599 c 128,-1,163
 469 599 469 599 483.5 585 c 128,-1,164
 498 571 498 571 499 550 c 256,165,166
 499 529 499 529 484 514 c 256,167,168
 470 500 470 500 448 500 c 1,169,-1
 448 500 l 1,155,156
100 599 m 1,170,171
 80 599 80 599 65 614 c 0,172,173
 51 628 51 628 49 649 c 256,174,175
 49 670 49 670 65 684 c 256,176,177
 79 698 79 698 100 699 c 256,178,179
 121 699 121 699 135 684 c 0,180,181
 150 670 150 670 150 649 c 256,182,183
 150 628 150 628 135 614 c 0,184,185
 121 600 121 600 100 599 c 1,186,-1
 100 599 l 1,170,171
200 599 m 1,187,188
 179 599 179 599 164.5 613.5 c 128,-1,189
 150 628 150 628 150 649 c 256,190,191
 150 670 150 670 164 684 c 0,192,193
 180 698 180 698 200 699 c 256,194,195
 221 699 221 699 235 684 c 256,196,197
 249 670 249 670 250 649 c 256,198,199
 250 628 250 628 235 614 c 0,200,201
 222 600 222 600 200 599 c 1,202,-1
 200 599 l 1,187,188
299 599 m 1,203,204
 278 599 278 599 264 613.5 c 128,-1,205
 250 628 250 628 250 649 c 256,206,207
 250 670 250 670 264 684 c 256,208,209
 278 698 278 698 299 699 c 0,210,211
 320 699 320 699 334 684 c 256,212,213
 348 670 348 670 349 649 c 256,214,215
 349 628 349 628 334.5 613.5 c 128,-1,216
 320 599 320 599 299 599 c 1,217,-1
 299 599 l 1,203,204
399 599 m 1,218,219
 378 599 378 599 363 614 c 0,220,221
 349 628 349 628 349 652 c 0,222,223
 349 671 349 671 363 684 c 256,224,225
 377 698 377 698 399 699 c 256,226,227
 420 699 420 699 434 684 c 0,228,229
 448 670 448 670 448 649 c 256,230,231
 448 628 448 628 434 613.5 c 128,-1,232
 420 599 420 599 399 599 c 1,233,-1
 399 599 l 1,218,219
EndSplineSet
Validated: 5
EndChar

StartChar: D
Encoding: 68 68 36
Width: 600
VWidth: 629
Flags: W
LayerCount: 2
Fore
SplineSet
49 1 m 1,0,1
 28 1 28 1 14 15 c 128,-1,2
 0 29 0 29 0 50 c 256,3,4
 0 71 0 71 14 85.5 c 128,-1,5
 28 100 28 100 49 101 c 256,6,7
 70 101 70 101 85 85 c 256,8,9
 99 71 99 71 100 50 c 256,10,11
 100 29 100 29 85 15 c 0,12,13
 71 1 71 1 49 1 c 1,14,-1
 49 1 l 1,0,1
150 1 m 1,15,16
 129 1 129 1 115 15 c 128,-1,17
 101 29 101 29 100 50 c 256,18,19
 100 71 100 71 115 85 c 256,20,21
 129 99 129 99 150 101 c 0,22,23
 171 101 171 101 184 85 c 256,24,25
 198 71 198 71 200 50 c 256,26,27
 200 29 200 29 184 15 c 0,28,29
 171 1 171 1 150 1 c 1,30,-1
 150 1 l 1,15,16
250 1 m 1,31,32
 229 1 229 1 214 15 c 0,33,34
 200 29 200 29 200 50 c 256,35,36
 200 71 200 71 214 85 c 256,37,38
 228 99 228 99 250 101 c 256,39,40
 271 101 271 101 285 85 c 0,41,42
 299 71 299 71 299 50 c 256,43,44
 299 29 299 29 285 15 c 128,-1,45
 271 1 271 1 250 1 c 1,46,-1
 250 1 l 1,31,32
349 1 m 1,47,48
 328 1 328 1 313.5 15 c 128,-1,49
 299 29 299 29 299 50 c 256,50,51
 299 71 299 71 313.5 85.5 c 128,-1,52
 328 100 328 100 349 101 c 256,53,54
 370 101 370 101 384 85 c 256,55,56
 398 71 398 71 399 50 c 256,57,58
 399 29 399 29 384 15 c 0,59,60
 370 1 370 1 349 1 c 1,61,-1
 349 1 l 1,47,48
100 101 m 1,62,63
 80 101 80 101 65 116 c 256,64,65
 51 130 51 130 49 151 c 0,66,67
 49 172 49 172 65 185 c 256,68,69
 79 199 79 199 100 200 c 256,70,71
 121 200 121 200 135 185 c 0,72,73
 150 172 150 172 150 151 c 128,-1,74
 150 130 150 130 135 116 c 0,75,76
 121 102 121 102 100 101 c 1,77,-1
 100 101 l 1,62,63
399 101 m 1,78,79
 378 101 378 101 363 116 c 256,80,81
 349 130 349 130 349 154 c 0,82,83
 349 173 349 173 363 185 c 256,84,85
 377 199 377 199 399 200 c 256,86,87
 420 200 420 200 434 185 c 0,88,89
 448 172 448 172 448 151 c 128,-1,90
 448 130 448 130 434 116 c 128,-1,91
 420 102 420 102 399 101 c 1,92,-1
 399 101 l 1,78,79
100 200 m 1,93,94
 80 200 80 200 65 215 c 256,95,96
 51 229 51 229 49 251 c 256,97,98
 49 272 49 272 65 286 c 0,99,100
 79 300 79 300 100 300 c 256,101,102
 121 300 121 300 135 286 c 0,103,104
 150 272 150 272 150 251 c 256,105,106
 150 230 150 230 135 215 c 0,107,108
 121 201 121 201 100 200 c 1,109,-1
 100 200 l 1,93,94
448 200 m 1,110,111
 427 200 427 200 414 215 c 256,112,113
 400 229 400 229 399 251 c 256,114,115
 399 272 399 272 414 286 c 0,116,117
 427 300 427 300 448 300 c 128,-1,118
 469 300 469 300 483.5 286 c 128,-1,119
 498 272 498 272 499 251 c 256,120,121
 499 230 499 230 484 215 c 256,122,123
 470 201 470 201 448 200 c 1,124,-1
 448 200 l 1,110,111
100 300 m 1,125,126
 80 300 80 300 65 314 c 0,127,128
 51 328 51 328 49 350 c 256,129,130
 49 371 49 371 65 385 c 256,131,132
 79 399 79 399 100 400 c 256,133,134
 121 400 121 400 135 385 c 0,135,136
 150 371 150 371 150 350 c 256,137,138
 150 329 150 329 135 314 c 0,139,140
 121 300 121 300 100 300 c 1,141,-1
 100 300 l 1,125,126
448 300 m 1,142,143
 427 300 427 300 414 314 c 0,144,145
 400 328 400 328 399 350 c 256,146,147
 399 371 399 371 414 385 c 256,148,149
 427 399 427 399 448 400 c 0,150,151
 469 400 469 400 484 385 c 256,152,153
 498 371 498 371 499 350 c 256,154,155
 499 329 499 329 484 314 c 0,156,157
 470 300 470 300 448 300 c 1,158,-1
 448 300 l 1,142,143
100 400 m 1,159,160
 80 400 80 400 65 415 c 256,161,162
 51 428 51 428 49 449 c 0,163,164
 49 470 49 470 65 484 c 256,165,166
 79 498 79 498 100 500 c 256,167,168
 121 500 121 500 135 484 c 0,169,170
 150 470 150 470 150 449 c 128,-1,171
 150 428 150 428 135 415 c 0,172,173
 121 401 121 401 100 400 c 1,174,-1
 100 400 l 1,159,160
448 400 m 1,175,176
 427 400 427 400 414 415 c 256,177,178
 400 428 400 428 399 449 c 0,179,180
 399 470 399 470 414 484 c 256,181,182
 427 498 427 498 448 500 c 0,183,184
 469 500 469 500 484 484 c 256,185,186
 498 470 498 470 499 449 c 0,187,188
 499 428 499 428 484 415 c 256,189,190
 470 401 470 401 448 400 c 1,191,-1
 448 400 l 1,175,176
100 500 m 1,192,193
 80 500 80 500 65 514 c 256,194,195
 51 528 51 528 49 550 c 256,196,197
 49 571 49 571 65 585 c 0,198,199
 79 599 79 599 100 599 c 256,200,201
 121 599 121 599 135 585 c 0,202,203
 150 571 150 571 150 550 c 256,204,205
 150 529 150 529 135 514 c 0,206,207
 121 500 121 500 100 500 c 1,208,-1
 100 500 l 1,192,193
399 500 m 1,209,210
 378 500 378 500 363 514 c 256,211,212
 349 528 349 528 349 553 c 0,213,214
 349 572 349 572 363 585 c 0,215,216
 377 599 377 599 399 599 c 256,217,218
 420 599 420 599 434 585 c 128,-1,219
 448 571 448 571 448 550 c 256,220,221
 448 529 448 529 434 514 c 0,222,223
 420 500 420 500 399 500 c 1,224,-1
 399 500 l 1,209,210
49 599 m 1,225,226
 28 599 28 599 14 613.5 c 128,-1,227
 0 628 0 628 0 649 c 256,228,229
 0 670 0 670 14 684 c 128,-1,230
 28 698 28 698 49 699 c 256,231,232
 70 699 70 699 85 684 c 256,233,234
 99 670 99 670 100 649 c 256,235,236
 100 628 100 628 85 614 c 0,237,238
 71 600 71 600 49 599 c 1,239,-1
 49 599 l 1,225,226
150 599 m 1,240,241
 129 599 129 599 115 613.5 c 128,-1,242
 101 628 101 628 100 649 c 256,243,244
 100 670 100 670 115 684 c 256,245,246
 129 698 129 698 150 699 c 0,247,248
 171 699 171 699 184 684 c 256,249,250
 198 670 198 670 200 649 c 256,251,252
 200 628 200 628 184 614 c 0,253,254
 171 600 171 600 150 599 c 1,255,-1
 150 599 l 1,240,241
250 599 m 1,256,257
 229 599 229 599 214 614 c 0,258,259
 200 628 200 628 200 649 c 256,260,261
 200 670 200 670 214 684 c 256,262,263
 228 698 228 698 250 699 c 256,264,265
 271 699 271 699 285 684 c 0,266,267
 299 670 299 670 299 649 c 256,268,269
 299 628 299 628 285 613.5 c 128,-1,270
 271 599 271 599 250 599 c 1,271,-1
 250 599 l 1,256,257
349 599 m 1,272,273
 328 599 328 599 313.5 613.5 c 128,-1,274
 299 628 299 628 299 649 c 256,275,276
 299 670 299 670 313.5 684 c 128,-1,277
 328 698 328 698 349 699 c 256,278,279
 370 699 370 699 384 684 c 256,280,281
 398 670 398 670 399 649 c 256,282,283
 399 628 399 628 384 614 c 0,284,285
 370 600 370 600 349 599 c 1,286,-1
 349 599 l 1,272,273
EndSplineSet
Validated: 5
EndChar

StartChar: E
Encoding: 69 69 37
Width: 600
VWidth: 629
Flags: W
LayerCount: 2
Fore
SplineSet
49 1 m 1,0,1
 28 1 28 1 14 15 c 0,2,3
 0 29 0 29 0 50 c 256,4,5
 0 71 0 71 14 85 c 0,6,7
 28 99 28 99 49 101 c 256,8,9
 70 101 70 101 85 85 c 256,10,11
 99 71 99 71 100 50 c 256,12,13
 100 29 100 29 85 15 c 0,14,15
 71 1 71 1 49 1 c 1,16,-1
 49 1 l 1,0,1
150 1 m 1,17,18
 129 1 129 1 115 15 c 0,19,20
 101 29 101 29 100 50 c 256,21,22
 100 71 100 71 115 85 c 256,23,24
 129 99 129 99 150 101 c 0,25,26
 171 101 171 101 184 85 c 256,27,28
 198 71 198 71 200 50 c 256,29,30
 200 29 200 29 184 15 c 0,31,32
 171 1 171 1 150 1 c 1,33,-1
 150 1 l 1,17,18
250 1 m 1,34,35
 229 1 229 1 214 15 c 0,36,37
 200 29 200 29 200 50 c 256,38,39
 200 71 200 71 214 85 c 256,40,41
 228 99 228 99 250 101 c 256,42,43
 271 101 271 101 285 85 c 0,44,45
 299 71 299 71 299 50 c 256,46,47
 299 29 299 29 285 15 c 0,48,49
 271 1 271 1 250 1 c 1,50,-1
 250 1 l 1,34,35
349 1 m 1,51,52
 328 1 328 1 314 15 c 0,53,54
 300 29 300 29 299 50 c 256,55,56
 300 71 300 71 314 85 c 0,57,58
 328 99 328 99 349 101 c 256,59,60
 370 101 370 101 384 85 c 256,61,62
 398 71 398 71 399 50 c 256,63,64
 399 29 399 29 384 15 c 0,65,66
 370 1 370 1 349 1 c 1,67,-1
 349 1 l 1,51,52
448 1 m 1,68,69
 427 1 427 1 414 15 c 0,70,71
 400 29 400 29 399 50 c 256,72,73
 399 71 399 71 414 85 c 256,74,75
 427 99 427 99 448 101 c 0,76,77
 469 101 469 101 484 85 c 256,78,79
 498 71 498 71 499 50 c 256,80,81
 499 29 499 29 484 15 c 0,82,83
 470 1 470 1 448 1 c 1,84,-1
 448 1 l 1,68,69
49 101 m 1,85,86
 28 101 28 101 14 116 c 0,87,88
 0 130 0 130 0 151 c 0,89,90
 0 172 0 172 14 185 c 0,91,92
 28 199 28 199 49 200 c 256,93,94
 70 200 70 200 85 185 c 256,95,96
 99 172 99 172 100 151 c 0,97,98
 100 130 100 130 85 116 c 256,99,100
 71 102 71 102 49 101 c 1,101,-1
 49 101 l 1,85,86
49 200 m 1,102,103
 28 200 28 200 14 215 c 0,104,105
 0 229 0 229 0 251 c 256,106,107
 0 272 0 272 14 286 c 0,108,109
 28 300 28 300 49 300 c 256,110,111
 70 300 70 300 85 286 c 0,112,113
 99 272 99 272 100 251 c 256,114,115
 100 230 100 230 85 215 c 256,116,117
 71 201 71 201 49 200 c 1,118,-1
 49 200 l 1,102,103
49 300 m 1,119,120
 28 300 28 300 14 314 c 0,121,122
 0 328 0 328 0 350 c 256,123,124
 0 371 0 371 14 385 c 0,125,126
 28 399 28 399 49 400 c 256,127,128
 70 400 70 400 85 385 c 256,129,130
 99 371 99 371 100 350 c 256,131,132
 100 329 100 329 85 314 c 0,133,134
 71 300 71 300 49 300 c 1,135,-1
 49 300 l 1,119,120
150 300 m 1,136,137
 129 300 129 300 115 314 c 0,138,139
 101 328 101 328 100 350 c 256,140,141
 100 371 100 371 115 385 c 256,142,143
 129 399 129 399 150 400 c 0,144,145
 171 400 171 400 184 385 c 256,146,147
 198 371 198 371 200 350 c 256,148,149
 200 329 200 329 184 314 c 0,150,151
 171 300 171 300 150 300 c 1,152,-1
 150 300 l 1,136,137
250 300 m 1,153,154
 229 300 229 300 214 314 c 0,155,156
 200 328 200 328 200 350 c 256,157,158
 200 371 200 371 214 385 c 256,159,160
 228 399 228 399 250 400 c 256,161,162
 271 400 271 400 285 385 c 0,163,164
 299 371 299 371 299 350 c 256,165,166
 299 329 299 329 285 314 c 0,167,168
 271 300 271 300 250 300 c 1,169,-1
 250 300 l 1,153,154
349 300 m 1,170,171
 328 300 328 300 314 314 c 0,172,173
 300 328 300 328 299 350 c 256,174,175
 300 371 300 371 314 385 c 0,176,177
 328 399 328 399 349 400 c 256,178,179
 370 400 370 400 384 385 c 256,180,181
 398 371 398 371 399 350 c 256,182,183
 399 329 399 329 384 314 c 0,184,185
 370 300 370 300 349 300 c 1,186,-1
 349 300 l 1,170,171
49 400 m 1,187,188
 28 400 28 400 14 415 c 0,189,190
 0 428 0 428 0 449 c 0,191,192
 0 470 0 470 14 484 c 0,193,194
 28 498 28 498 49 500 c 256,195,196
 70 500 70 500 85 484 c 256,197,198
 99 470 99 470 100 449 c 0,199,200
 100 428 100 428 85 415 c 256,201,202
 71 401 71 401 49 400 c 1,203,-1
 49 400 l 1,187,188
49 500 m 1,204,205
 28 500 28 500 14 514 c 0,206,207
 0 528 0 528 0 550 c 256,208,209
 0 571 0 571 14 585 c 0,210,211
 28 599 28 599 49 599 c 256,212,213
 70 599 70 599 85 585 c 0,214,215
 99 571 99 571 100 550 c 256,216,217
 100 529 100 529 85 514 c 256,218,219
 71 500 71 500 49 500 c 1,220,-1
 49 500 l 1,204,205
49 599 m 1,221,222
 28 599 28 599 14 614 c 0,223,224
 0 628 0 628 0 649 c 256,225,226
 0 670 0 670 14 684 c 0,227,228
 28 698 28 698 49 699 c 256,229,230
 70 699 70 699 85 684 c 256,231,232
 99 670 99 670 100 649 c 256,233,234
 100 628 100 628 85 614 c 0,235,236
 71 600 71 600 49 599 c 1,237,-1
 49 599 l 1,221,222
150 599 m 1,238,239
 129 599 129 599 115 614 c 0,240,241
 101 628 101 628 100 649 c 256,242,243
 100 670 100 670 115 684 c 256,244,245
 129 698 129 698 150 699 c 0,246,247
 171 699 171 699 184 684 c 256,248,249
 198 670 198 670 200 649 c 256,250,251
 200 628 200 628 184 614 c 0,252,253
 171 600 171 600 150 599 c 1,254,-1
 150 599 l 1,238,239
250 599 m 1,255,256
 229 599 229 599 214 614 c 0,257,258
 200 628 200 628 200 649 c 256,259,260
 200 670 200 670 214 684 c 256,261,262
 228 698 228 698 250 699 c 256,263,264
 271 699 271 699 285 684 c 0,265,266
 299 670 299 670 299 649 c 256,267,268
 299 628 299 628 285 614 c 0,269,270
 271 600 271 600 250 599 c 1,271,-1
 250 599 l 1,255,256
349 599 m 1,272,273
 328 599 328 599 314 614 c 0,274,275
 300 628 300 628 299 649 c 256,276,277
 300 670 300 670 314 684 c 0,278,279
 328 698 328 698 349 699 c 256,280,281
 370 699 370 699 384 684 c 256,282,283
 398 670 398 670 399 649 c 256,284,285
 399 628 399 628 384 614 c 0,286,287
 370 600 370 600 349 599 c 1,288,-1
 349 599 l 1,272,273
448 599 m 1,289,290
 427 599 427 599 414 614 c 0,291,292
 400 628 400 628 399 649 c 256,293,294
 399 670 399 670 414 684 c 256,295,296
 427 698 427 698 448 699 c 0,297,298
 469 699 469 699 484 684 c 256,299,300
 498 670 498 670 499 649 c 256,301,302
 499 628 499 628 484 614 c 0,303,304
 470 600 470 600 448 599 c 1,305,-1
 448 599 l 1,289,290
EndSplineSet
Validated: 5
EndChar

StartChar: F
Encoding: 70 70 38
Width: 600
VWidth: 629
Flags: W
LayerCount: 2
Fore
SplineSet
49 1 m 1,0,1
 28 1 28 1 14 15 c 0,2,3
 0 29 0 29 0 50 c 256,4,5
 0 71 0 71 14 85 c 0,6,7
 28 99 28 99 49 101 c 256,8,9
 70 101 70 101 85 85 c 256,10,11
 99 71 99 71 100 50 c 256,12,13
 100 29 100 29 85 15 c 0,14,15
 71 1 71 1 49 1 c 1,16,-1
 49 1 l 1,0,1
49 101 m 1,17,18
 28 101 28 101 14 116 c 0,19,20
 0 130 0 130 0 151 c 0,21,22
 0 172 0 172 14 185 c 0,23,24
 28 199 28 199 49 200 c 256,25,26
 70 200 70 200 85 185 c 256,27,28
 99 172 99 172 100 151 c 0,29,30
 100 130 100 130 85 116 c 256,31,32
 71 102 71 102 49 101 c 1,33,-1
 49 101 l 1,17,18
49 200 m 1,34,35
 28 200 28 200 14 215 c 0,36,37
 0 229 0 229 0 251 c 256,38,39
 0 272 0 272 14 286 c 0,40,41
 28 300 28 300 49 300 c 256,42,43
 70 300 70 300 85 286 c 0,44,45
 99 272 99 272 100 251 c 256,46,47
 100 230 100 230 85 215 c 256,48,49
 71 201 71 201 49 200 c 1,50,-1
 49 200 l 1,34,35
49 300 m 1,51,52
 28 300 28 300 14 314 c 0,53,54
 0 328 0 328 0 350 c 256,55,56
 0 371 0 371 14 385 c 0,57,58
 28 399 28 399 49 400 c 256,59,60
 70 400 70 400 85 385 c 256,61,62
 99 371 99 371 100 350 c 256,63,64
 100 329 100 329 85 314 c 0,65,66
 71 300 71 300 49 300 c 1,67,-1
 49 300 l 1,51,52
150 300 m 1,68,69
 129 300 129 300 115 314 c 0,70,71
 101 328 101 328 100 350 c 256,72,73
 100 371 100 371 115 385 c 256,74,75
 129 399 129 399 150 400 c 0,76,77
 171 400 171 400 184 385 c 256,78,79
 198 371 198 371 200 350 c 256,80,81
 200 329 200 329 184 314 c 0,82,83
 171 300 171 300 150 300 c 1,84,-1
 150 300 l 1,68,69
250 300 m 1,85,86
 229 300 229 300 214 314 c 0,87,88
 200 328 200 328 200 350 c 256,89,90
 200 371 200 371 214 385 c 256,91,92
 228 399 228 399 250 400 c 256,93,94
 271 400 271 400 285 385 c 0,95,96
 299 371 299 371 299 350 c 256,97,98
 299 329 299 329 285 314 c 0,99,100
 271 300 271 300 250 300 c 1,101,-1
 250 300 l 1,85,86
349 300 m 1,102,103
 328 300 328 300 314 314 c 0,104,105
 300 328 300 328 299 350 c 256,106,107
 300 371 300 371 314 385 c 0,108,109
 328 399 328 399 349 400 c 256,110,111
 370 400 370 400 384 385 c 256,112,113
 398 371 398 371 399 350 c 256,114,115
 399 329 399 329 384 314 c 0,116,117
 370 300 370 300 349 300 c 1,118,-1
 349 300 l 1,102,103
49 400 m 1,119,120
 28 400 28 400 14 415 c 0,121,122
 0 428 0 428 0 449 c 0,123,124
 0 470 0 470 14 484 c 0,125,126
 28 498 28 498 49 500 c 256,127,128
 70 500 70 500 85 484 c 256,129,130
 99 470 99 470 100 449 c 0,131,132
 100 428 100 428 85 415 c 256,133,134
 71 401 71 401 49 400 c 1,135,-1
 49 400 l 1,119,120
49 500 m 1,136,137
 28 500 28 500 14 514 c 0,138,139
 0 528 0 528 0 550 c 256,140,141
 0 571 0 571 14 585 c 0,142,143
 28 599 28 599 49 599 c 256,144,145
 70 599 70 599 85 585 c 0,146,147
 99 571 99 571 100 550 c 256,148,149
 100 529 100 529 85 514 c 256,150,151
 71 500 71 500 49 500 c 1,152,-1
 49 500 l 1,136,137
49 599 m 1,153,154
 28 599 28 599 14 614 c 0,155,156
 0 628 0 628 0 649 c 256,157,158
 0 670 0 670 14 684 c 0,159,160
 28 698 28 698 49 699 c 256,161,162
 70 699 70 699 85 684 c 256,163,164
 99 670 99 670 100 649 c 256,165,166
 100 628 100 628 85 614 c 0,167,168
 71 600 71 600 49 599 c 1,169,-1
 49 599 l 1,153,154
150 599 m 1,170,171
 129 599 129 599 115 614 c 0,172,173
 101 628 101 628 100 649 c 256,174,175
 100 670 100 670 115 684 c 256,176,177
 129 698 129 698 150 699 c 0,178,179
 171 699 171 699 184 684 c 256,180,181
 198 670 198 670 200 649 c 256,182,183
 200 628 200 628 184 614 c 0,184,185
 171 600 171 600 150 599 c 1,186,-1
 150 599 l 1,170,171
250 599 m 1,187,188
 229 599 229 599 214 614 c 0,189,190
 200 628 200 628 200 649 c 256,191,192
 200 670 200 670 214 684 c 256,193,194
 228 698 228 698 250 699 c 256,195,196
 271 699 271 699 285 684 c 0,197,198
 299 670 299 670 299 649 c 256,199,200
 299 628 299 628 285 614 c 0,201,202
 271 600 271 600 250 599 c 1,203,-1
 250 599 l 1,187,188
349 599 m 1,204,205
 328 599 328 599 314 614 c 0,206,207
 300 628 300 628 299 649 c 256,208,209
 300 670 300 670 314 684 c 0,210,211
 328 698 328 698 349 699 c 256,212,213
 370 699 370 699 384 684 c 256,214,215
 398 670 398 670 399 649 c 256,216,217
 399 628 399 628 384 614 c 0,218,219
 370 600 370 600 349 599 c 1,220,-1
 349 599 l 1,204,205
448 599 m 1,221,222
 427 599 427 599 414 614 c 0,223,224
 400 628 400 628 399 649 c 256,225,226
 399 670 399 670 414 684 c 256,227,228
 427 698 427 698 448 699 c 0,229,230
 469 699 469 699 484 684 c 256,231,232
 498 670 498 670 499 649 c 256,233,234
 499 628 499 628 484 614 c 0,235,236
 470 600 470 600 448 599 c 1,237,-1
 448 599 l 1,221,222
EndSplineSet
Validated: 5
EndChar

StartChar: G
Encoding: 71 71 39
Width: 600
VWidth: 629
Flags: W
LayerCount: 2
Fore
SplineSet
100 1 m 1,0,1
 80 1 80 1 65 15 c 0,2,3
 51 29 51 29 49 50 c 256,4,5
 49 71 49 71 65 85 c 256,6,7
 79 99 79 99 100 101 c 256,8,9
 121 101 121 101 135 85 c 0,10,11
 150 71 150 71 150 50 c 256,12,13
 150 29 150 29 135 15 c 0,14,15
 121 1 121 1 100 1 c 1,16,-1
 100 1 l 1,0,1
200 1 m 1,17,18
 179 1 179 1 164.5 15 c 128,-1,19
 150 29 150 29 150 50 c 256,20,21
 150 72 150 72 164 86 c 0,22,23
 180 100 180 100 200 101 c 256,24,25
 221 101 221 101 235 85 c 256,26,27
 249 71 249 71 250 50 c 256,28,29
 250 29 250 29 235 15 c 0,30,31
 222 1 222 1 200 1 c 1,32,-1
 200 1 l 1,17,18
299 1 m 1,33,34
 278 1 278 1 264 15 c 128,-1,35
 250 29 250 29 250 50 c 256,36,37
 250 71 250 71 264 85 c 256,38,39
 278 99 278 99 299 101 c 0,40,41
 320 101 320 101 334 85 c 256,42,43
 348 71 348 71 349 50 c 256,44,45
 349 29 349 29 334.5 15 c 128,-1,46
 320 1 320 1 299 1 c 1,47,-1
 299 1 l 1,33,34
399 1 m 1,48,49
 378 1 378 1 363 15 c 0,50,51
 349 29 349 29 349 53 c 0,52,53
 349 72 349 72 363 85 c 256,54,55
 377 99 377 99 399 101 c 256,56,57
 420 101 420 101 434 85 c 0,58,59
 448 71 448 71 448 50 c 256,60,61
 448 29 448 29 434 15 c 128,-1,62
 420 1 420 1 399 1 c 1,63,-1
 399 1 l 1,48,49
49 101 m 1,64,65
 28 101 28 101 14 116 c 0,66,67
 0 130 0 130 0 151 c 128,-1,68
 0 172 0 172 14 185 c 0,69,70
 28 199 28 199 49 200 c 256,71,72
 70 200 70 200 85 185 c 256,73,74
 99 172 99 172 100 151 c 0,75,76
 100 130 100 130 85 116 c 256,77,78
 71 102 71 102 49 101 c 1,79,-1
 49 101 l 1,64,65
448 101 m 1,80,81
 427 101 427 101 414 116 c 256,82,83
 400 130 400 130 399 151 c 0,84,85
 399 172 399 172 414 185 c 256,86,87
 427 199 427 199 448 200 c 0,88,89
 469 200 469 200 484 185 c 256,90,91
 498 172 498 172 499 151 c 0,92,93
 499 130 499 130 484 116 c 256,94,95
 470 102 470 102 448 101 c 1,96,-1
 448 101 l 1,80,81
49 200 m 1,97,98
 28 200 28 200 14 214.5 c 128,-1,99
 0 229 0 229 0 251 c 256,100,101
 0 272 0 272 14 286 c 128,-1,102
 28 300 28 300 49 300 c 256,103,104
 70 300 70 300 84.5 286 c 128,-1,105
 99 272 99 272 100 251 c 256,106,107
 100 230 100 230 85 215 c 256,108,109
 71 201 71 201 49 200 c 1,110,-1
 49 200 l 1,97,98
448 200 m 1,111,112
 427 200 427 200 414 215 c 256,113,114
 400 229 400 229 399 251 c 256,115,116
 399 272 399 272 414 286 c 0,117,118
 427 300 427 300 448 300 c 128,-1,119
 469 300 469 300 483.5 286 c 128,-1,120
 498 272 498 272 499 251 c 256,121,122
 499 230 499 230 484 215 c 256,123,124
 470 201 470 201 448 200 c 1,125,-1
 448 200 l 1,111,112
49 300 m 1,126,127
 28 300 28 300 14 314.5 c 128,-1,128
 0 329 0 329 0 350 c 256,129,130
 0 371 0 371 14 385 c 128,-1,131
 28 399 28 399 49 400 c 256,132,133
 70 400 70 400 85 385 c 256,134,135
 99 371 99 371 100 350 c 256,136,137
 100 329 100 329 85 314 c 0,138,139
 71 300 71 300 49 300 c 1,140,-1
 49 300 l 1,126,127
349 300 m 1,141,142
 328 300 328 300 313.5 314.5 c 128,-1,143
 299 329 299 329 299 350 c 256,144,145
 299 371 299 371 313.5 385 c 128,-1,146
 328 399 328 399 349 400 c 256,147,148
 370 400 370 400 384 385 c 256,149,150
 398 371 398 371 399 350 c 256,151,152
 399 329 399 329 384 314 c 0,153,154
 370 300 370 300 349 300 c 1,155,-1
 349 300 l 1,141,142
448 300 m 1,156,157
 427 300 427 300 414 314 c 0,158,159
 400 328 400 328 399 350 c 256,160,161
 399 371 399 371 414 385 c 256,162,163
 427 399 427 399 448 400 c 0,164,165
 469 400 469 400 484 385 c 256,166,167
 498 371 498 371 499 350 c 256,168,169
 499 329 499 329 484 314 c 0,170,171
 470 300 470 300 448 300 c 1,172,-1
 448 300 l 1,156,157
49 400 m 1,173,174
 28 400 28 400 14 415 c 0,175,176
 0 428 0 428 0 449 c 128,-1,177
 0 470 0 470 14 484.5 c 128,-1,178
 28 499 28 499 49 500 c 256,179,180
 70 500 70 500 85 484 c 256,181,182
 99 470 99 470 100 449 c 0,183,184
 100 428 100 428 85 415 c 256,185,186
 71 401 71 401 49 400 c 1,187,-1
 49 400 l 1,173,174
49 500 m 1,188,189
 28 500 28 500 14 514 c 128,-1,190
 0 528 0 528 0 550 c 256,191,192
 0 571 0 571 14 585 c 128,-1,193
 28 599 28 599 49 599 c 256,194,195
 70 599 70 599 84.5 585 c 128,-1,196
 99 571 99 571 100 550 c 256,197,198
 100 529 100 529 85 514 c 256,199,200
 71 500 71 500 49 500 c 1,201,-1
 49 500 l 1,188,189
448 500 m 1,202,203
 427 500 427 500 414 514 c 256,204,205
 400 528 400 528 399 550 c 256,206,207
 399 571 399 571 414 585 c 0,208,209
 427 599 427 599 448 599 c 128,-1,210
 469 599 469 599 483.5 585 c 128,-1,211
 498 571 498 571 499 550 c 256,212,213
 499 529 499 529 484 514 c 256,214,215
 470 500 470 500 448 500 c 1,216,-1
 448 500 l 1,202,203
100 599 m 1,217,218
 80 599 80 599 65 614 c 0,219,220
 51 628 51 628 49 649 c 256,221,222
 49 670 49 670 65 684 c 256,223,224
 79 698 79 698 100 699 c 256,225,226
 121 699 121 699 135 684 c 0,227,228
 150 670 150 670 150 649 c 256,229,230
 150 628 150 628 135 614 c 0,231,232
 121 600 121 600 100 599 c 1,233,-1
 100 599 l 1,217,218
200 599 m 1,234,235
 179 599 179 599 164.5 613.5 c 128,-1,236
 150 628 150 628 150 649 c 256,237,238
 150 670 150 670 164 684 c 0,239,240
 180 698 180 698 200 699 c 256,241,242
 221 699 221 699 235 684 c 256,243,244
 249 670 249 670 250 649 c 256,245,246
 250 628 250 628 235 614 c 0,247,248
 222 600 222 600 200 599 c 1,249,-1
 200 599 l 1,234,235
299 599 m 1,250,251
 278 599 278 599 264 613.5 c 128,-1,252
 250 628 250 628 250 649 c 256,253,254
 250 670 250 670 264 684 c 256,255,256
 278 698 278 698 299 699 c 0,257,258
 320 699 320 699 334 684 c 256,259,260
 348 670 348 670 349 649 c 256,261,262
 349 628 349 628 334.5 613.5 c 128,-1,263
 320 599 320 599 299 599 c 1,264,-1
 299 599 l 1,250,251
399 599 m 1,265,266
 378 599 378 599 363 614 c 0,267,268
 349 628 349 628 349 652 c 0,269,270
 349 671 349 671 363 684 c 256,271,272
 377 698 377 698 399 699 c 256,273,274
 420 699 420 699 434 684 c 0,275,276
 448 670 448 670 448 649 c 256,277,278
 448 628 448 628 434 613.5 c 128,-1,279
 420 599 420 599 399 599 c 1,280,-1
 399 599 l 1,265,266
EndSplineSet
Validated: 5
EndChar

StartChar: H
Encoding: 72 72 40
Width: 600
VWidth: 629
Flags: W
LayerCount: 2
Fore
SplineSet
49 1 m 1,0,1
 28 1 28 1 14 15 c 0,2,3
 0 29 0 29 0 50 c 256,4,5
 0 71 0 71 14 85 c 0,6,7
 28 99 28 99 49 101 c 256,8,9
 70 101 70 101 85 85 c 256,10,11
 99 71 99 71 100 50 c 256,12,13
 100 29 100 29 85 15 c 0,14,15
 71 1 71 1 49 1 c 1,16,-1
 49 1 l 1,0,1
448 1 m 1,17,18
 427 1 427 1 414 15 c 0,19,20
 400 29 400 29 399 50 c 256,21,22
 399 71 399 71 414 85 c 256,23,24
 427 99 427 99 448 101 c 0,25,26
 469 101 469 101 484 85 c 256,27,28
 498 71 498 71 499 50 c 256,29,30
 499 29 499 29 484 15 c 0,31,32
 470 1 470 1 448 1 c 1,33,-1
 448 1 l 1,17,18
49 101 m 1,34,35
 28 101 28 101 14 116 c 0,36,37
 0 130 0 130 0 151 c 0,38,39
 0 172 0 172 14 185 c 0,40,41
 28 199 28 199 49 200 c 256,42,43
 70 200 70 200 85 185 c 256,44,45
 99 172 99 172 100 151 c 0,46,47
 100 130 100 130 85 116 c 256,48,49
 71 102 71 102 49 101 c 1,50,-1
 49 101 l 1,34,35
448 101 m 1,51,52
 427 101 427 101 414 116 c 256,53,54
 400 130 400 130 399 151 c 0,55,56
 399 172 399 172 414 185 c 256,57,58
 427 199 427 199 448 200 c 0,59,60
 469 200 469 200 484 185 c 256,61,62
 498 172 498 172 499 151 c 0,63,64
 499 130 499 130 484 116 c 256,65,66
 470 102 470 102 448 101 c 1,67,-1
 448 101 l 1,51,52
49 200 m 1,68,69
 28 200 28 200 14 215 c 0,70,71
 0 229 0 229 0 251 c 256,72,73
 0 272 0 272 14 286 c 0,74,75
 28 300 28 300 49 300 c 256,76,77
 70 300 70 300 85 286 c 0,78,79
 99 272 99 272 100 251 c 256,80,81
 100 230 100 230 85 215 c 256,82,83
 71 201 71 201 49 200 c 1,84,-1
 49 200 l 1,68,69
448 200 m 1,85,86
 427 200 427 200 414 215 c 256,87,88
 400 229 400 229 399 251 c 256,89,90
 399 272 399 272 414 286 c 0,91,92
 427 300 427 300 448 300 c 0,93,94
 469 300 469 300 484 286 c 0,95,96
 498 272 498 272 499 251 c 256,97,98
 499 230 499 230 484 215 c 256,99,100
 470 201 470 201 448 200 c 1,101,-1
 448 200 l 1,85,86
49 300 m 1,102,103
 28 300 28 300 14 314 c 0,104,105
 0 328 0 328 0 350 c 256,106,107
 0 371 0 371 14 385 c 0,108,109
 28 399 28 399 49 400 c 256,110,111
 70 400 70 400 85 385 c 256,112,113
 99 371 99 371 100 350 c 256,114,115
 100 329 100 329 85 314 c 0,116,117
 71 300 71 300 49 300 c 1,118,-1
 49 300 l 1,102,103
150 300 m 1,119,120
 129 300 129 300 115 314 c 0,121,122
 101 328 101 328 100 350 c 256,123,124
 100 371 100 371 115 385 c 256,125,126
 129 399 129 399 150 400 c 0,127,128
 171 400 171 400 184 385 c 256,129,130
 198 371 198 371 200 350 c 256,131,132
 200 329 200 329 184 314 c 0,133,134
 171 300 171 300 150 300 c 1,135,-1
 150 300 l 1,119,120
250 300 m 1,136,137
 229 300 229 300 214 314 c 0,138,139
 200 328 200 328 200 350 c 256,140,141
 200 371 200 371 214 385 c 256,142,143
 228 399 228 399 250 400 c 256,144,145
 271 400 271 400 285 385 c 0,146,147
 299 371 299 371 299 350 c 256,148,149
 299 329 299 329 285 314 c 0,150,151
 271 300 271 300 250 300 c 1,152,-1
 250 300 l 1,136,137
349 300 m 1,153,154
 328 300 328 300 314 314 c 0,155,156
 300 328 300 328 299 350 c 256,157,158
 300 371 300 371 314 385 c 0,159,160
 328 399 328 399 349 400 c 256,161,162
 370 400 370 400 384 385 c 256,163,164
 398 371 398 371 399 350 c 256,165,166
 399 329 399 329 384 314 c 0,167,168
 370 300 370 300 349 300 c 1,169,-1
 349 300 l 1,153,154
448 300 m 1,170,171
 427 300 427 300 414 314 c 0,172,173
 400 328 400 328 399 350 c 256,174,175
 399 371 399 371 414 385 c 256,176,177
 427 399 427 399 448 400 c 0,178,179
 469 400 469 400 484 385 c 256,180,181
 498 371 498 371 499 350 c 256,182,183
 499 329 499 329 484 314 c 0,184,185
 470 300 470 300 448 300 c 1,186,-1
 448 300 l 1,170,171
49 400 m 1,187,188
 28 400 28 400 14 415 c 0,189,190
 0 428 0 428 0 449 c 0,191,192
 0 470 0 470 14 484 c 0,193,194
 28 498 28 498 49 500 c 256,195,196
 70 500 70 500 85 484 c 256,197,198
 99 470 99 470 100 449 c 0,199,200
 100 428 100 428 85 415 c 256,201,202
 71 401 71 401 49 400 c 1,203,-1
 49 400 l 1,187,188
448 400 m 1,204,205
 427 400 427 400 414 415 c 256,206,207
 400 428 400 428 399 449 c 0,208,209
 399 470 399 470 414 484 c 256,210,211
 427 498 427 498 448 500 c 0,212,213
 469 500 469 500 484 484 c 256,214,215
 498 470 498 470 499 449 c 0,216,217
 499 428 499 428 484 415 c 256,218,219
 470 401 470 401 448 400 c 1,220,-1
 448 400 l 1,204,205
49 500 m 1,221,222
 28 500 28 500 14 514 c 0,223,224
 0 528 0 528 0 550 c 256,225,226
 0 571 0 571 14 585 c 0,227,228
 28 599 28 599 49 599 c 256,229,230
 70 599 70 599 85 585 c 0,231,232
 99 571 99 571 100 550 c 256,233,234
 100 529 100 529 85 514 c 256,235,236
 71 500 71 500 49 500 c 1,237,-1
 49 500 l 1,221,222
448 500 m 1,238,239
 427 500 427 500 414 514 c 256,240,241
 400 528 400 528 399 550 c 256,242,243
 399 571 399 571 414 585 c 0,244,245
 427 599 427 599 448 599 c 0,246,247
 469 599 469 599 484 585 c 0,248,249
 498 571 498 571 499 550 c 256,250,251
 499 529 499 529 484 514 c 256,252,253
 470 500 470 500 448 500 c 1,254,-1
 448 500 l 1,238,239
49 599 m 1,255,256
 28 599 28 599 14 614 c 0,257,258
 0 628 0 628 0 649 c 256,259,260
 0 670 0 670 14 684 c 0,261,262
 28 698 28 698 49 699 c 256,263,264
 70 699 70 699 85 684 c 256,265,266
 99 670 99 670 100 649 c 256,267,268
 100 628 100 628 85 614 c 0,269,270
 71 600 71 600 49 599 c 1,271,-1
 49 599 l 1,255,256
448 599 m 1,272,273
 427 599 427 599 414 614 c 0,274,275
 400 628 400 628 399 649 c 256,276,277
 399 670 399 670 414 684 c 256,278,279
 427 698 427 698 448 699 c 0,280,281
 469 699 469 699 484 684 c 256,282,283
 498 670 498 670 499 649 c 256,284,285
 499 628 499 628 484 614 c 0,286,287
 470 600 470 600 448 599 c 1,288,-1
 448 599 l 1,272,273
EndSplineSet
Validated: 5
EndChar

StartChar: I
Encoding: 73 73 41
Width: 600
VWidth: 629
Flags: W
LayerCount: 2
Fore
SplineSet
150 1 m 1,0,1
 129 1 129 1 115 15 c 0,2,3
 101 29 101 29 100 50 c 256,4,5
 100 71 100 71 115 85 c 256,6,7
 129 99 129 99 150 101 c 0,8,9
 171 101 171 101 184 85 c 256,10,11
 198 71 198 71 200 50 c 256,12,13
 200 29 200 29 184 15 c 0,14,15
 171 1 171 1 150 1 c 1,16,-1
 150 1 l 1,0,1
250 1 m 1,17,18
 229 1 229 1 214 15 c 0,19,20
 200 29 200 29 200 50 c 256,21,22
 200 71 200 71 214 85 c 256,23,24
 228 99 228 99 250 101 c 256,25,26
 271 101 271 101 285 85 c 0,27,28
 299 71 299 71 299 50 c 256,29,30
 299 29 299 29 285 15 c 0,31,32
 271 1 271 1 250 1 c 1,33,-1
 250 1 l 1,17,18
349 1 m 1,34,35
 328 1 328 1 314 15 c 0,36,37
 300 29 300 29 299 50 c 256,38,39
 300 71 300 71 314 85 c 0,40,41
 328 99 328 99 349 101 c 256,42,43
 370 101 370 101 384 85 c 256,44,45
 398 71 398 71 399 50 c 256,46,47
 399 29 399 29 384 15 c 0,48,49
 370 1 370 1 349 1 c 1,50,-1
 349 1 l 1,34,35
250 101 m 1,51,52
 229 101 229 101 214 116 c 256,53,54
 200 130 200 130 200 151 c 0,55,56
 200 172 200 172 214 185 c 256,57,58
 228 199 228 199 250 200 c 256,59,60
 271 200 271 200 285 185 c 0,61,62
 299 172 299 172 299 151 c 0,63,64
 299 130 299 130 285 116 c 0,65,66
 271 102 271 102 250 101 c 1,67,-1
 250 101 l 1,51,52
250 200 m 1,68,69
 229 200 229 200 214 215 c 256,70,71
 200 229 200 229 200 251 c 256,72,73
 200 272 200 272 214 286 c 0,74,75
 228 300 228 300 250 300 c 256,76,77
 271 300 271 300 285 286 c 0,78,79
 299 272 299 272 299 251 c 256,80,81
 299 230 299 230 285 215 c 0,82,83
 271 201 271 201 250 200 c 1,84,-1
 250 200 l 1,68,69
250 300 m 1,85,86
 229 300 229 300 214 314 c 0,87,88
 200 328 200 328 200 350 c 256,89,90
 200 371 200 371 214 385 c 256,91,92
 228 399 228 399 250 400 c 256,93,94
 271 400 271 400 285 385 c 0,95,96
 299 371 299 371 299 350 c 256,97,98
 299 329 299 329 285 314 c 0,99,100
 271 300 271 300 250 300 c 1,101,-1
 250 300 l 1,85,86
250 400 m 1,102,103
 229 400 229 400 214 415 c 256,104,105
 200 428 200 428 200 449 c 0,106,107
 200 470 200 470 214 484 c 256,108,109
 228 498 228 498 250 500 c 256,110,111
 271 500 271 500 285 484 c 0,112,113
 299 470 299 470 299 449 c 0,114,115
 299 428 299 428 285 415 c 0,116,117
 271 401 271 401 250 400 c 1,118,-1
 250 400 l 1,102,103
250 500 m 1,119,120
 229 500 229 500 214 514 c 256,121,122
 200 528 200 528 200 550 c 256,123,124
 200 571 200 571 214 585 c 0,125,126
 228 599 228 599 250 599 c 256,127,128
 271 599 271 599 285 585 c 0,129,130
 299 571 299 571 299 550 c 256,131,132
 299 529 299 529 285 514 c 0,133,134
 271 500 271 500 250 500 c 1,135,-1
 250 500 l 1,119,120
150 599 m 1,136,137
 129 599 129 599 115 614 c 0,138,139
 101 628 101 628 100 649 c 256,140,141
 100 670 100 670 115 684 c 256,142,143
 129 698 129 698 150 699 c 0,144,145
 171 699 171 699 184 684 c 256,146,147
 198 670 198 670 200 649 c 256,148,149
 200 628 200 628 184 614 c 0,150,151
 171 600 171 600 150 599 c 1,152,-1
 150 599 l 1,136,137
250 599 m 1,153,154
 229 599 229 599 214 614 c 0,155,156
 200 628 200 628 200 649 c 256,157,158
 200 670 200 670 214 684 c 256,159,160
 228 698 228 698 250 699 c 256,161,162
 271 699 271 699 285 684 c 0,163,164
 299 670 299 670 299 649 c 256,165,166
 299 628 299 628 285 614 c 0,167,168
 271 600 271 600 250 599 c 1,169,-1
 250 599 l 1,153,154
349 599 m 1,170,171
 328 599 328 599 314 614 c 0,172,173
 300 628 300 628 299 649 c 256,174,175
 300 670 300 670 314 684 c 0,176,177
 328 698 328 698 349 699 c 256,178,179
 370 699 370 699 384 684 c 256,180,181
 398 670 398 670 399 649 c 256,182,183
 399 628 399 628 384 614 c 0,184,185
 370 600 370 600 349 599 c 1,186,-1
 349 599 l 1,170,171
EndSplineSet
Validated: 5
EndChar

StartChar: J
Encoding: 74 74 42
Width: 600
VWidth: 629
Flags: W
LayerCount: 2
Fore
SplineSet
100 1 m 1,0,1
 80 1 80 1 65 15 c 0,2,3
 51 29 51 29 49 50 c 256,4,5
 49 71 49 71 65 85 c 256,6,7
 79 99 79 99 100 101 c 256,8,9
 121 101 121 101 135 85 c 0,10,11
 150 71 150 71 150 50 c 256,12,13
 150 29 150 29 135 15 c 0,14,15
 121 1 121 1 100 1 c 1,16,-1
 100 1 l 1,0,1
200 1 m 1,17,18
 179 1 179 1 164 15 c 0,19,20
 150 29 150 29 150 50 c 256,21,22
 150 71 150 71 164 85 c 0,23,24
 178 99 178 99 200 101 c 256,25,26
 221 101 221 101 235 85 c 256,27,28
 249 71 249 71 250 50 c 256,29,30
 250 29 250 29 235 15 c 0,31,32
 222 1 222 1 200 1 c 1,33,-1
 200 1 l 1,17,18
299 1 m 1,34,35
 278 1 278 1 264 15 c 0,36,37
 250 29 250 29 250 50 c 256,38,39
 250 71 250 71 264 85 c 256,40,41
 278 99 278 99 299 101 c 0,42,43
 320 101 320 101 334 85 c 256,44,45
 348 71 348 71 349 50 c 256,46,47
 349 29 349 29 334 15 c 0,48,49
 320 1 320 1 299 1 c 1,50,-1
 299 1 l 1,34,35
49 101 m 1,51,52
 28 101 28 101 14 116 c 0,53,54
 0 130 0 130 0 151 c 0,55,56
 0 172 0 172 14 185 c 0,57,58
 28 199 28 199 49 200 c 256,59,60
 70 200 70 200 85 185 c 256,61,62
 99 172 99 172 100 151 c 0,63,64
 100 130 100 130 85 116 c 256,65,66
 71 102 71 102 49 101 c 1,67,-1
 49 101 l 1,51,52
349 101 m 1,68,69
 328 101 328 101 314 116 c 0,70,71
 300 130 300 130 299 151 c 0,72,73
 300 172 300 172 314 185 c 0,74,75
 328 199 328 199 349 200 c 256,76,77
 370 200 370 200 384 185 c 256,78,79
 398 172 398 172 399 151 c 0,80,81
 399 130 399 130 384 116 c 256,82,83
 370 102 370 102 349 101 c 1,84,-1
 349 101 l 1,68,69
349 200 m 1,85,86
 328 200 328 200 314 215 c 0,87,88
 300 229 300 229 299 251 c 256,89,90
 300 272 300 272 314 286 c 0,91,92
 328 300 328 300 349 300 c 256,93,94
 370 300 370 300 384 286 c 0,95,96
 398 272 398 272 399 251 c 256,97,98
 399 230 399 230 384 215 c 256,99,100
 370 201 370 201 349 200 c 1,101,-1
 349 200 l 1,85,86
349 300 m 1,102,103
 328 300 328 300 314 314 c 0,104,105
 300 328 300 328 299 350 c 256,106,107
 300 371 300 371 314 385 c 0,108,109
 328 399 328 399 349 400 c 256,110,111
 370 400 370 400 384 385 c 256,112,113
 398 371 398 371 399 350 c 256,114,115
 399 329 399 329 384 314 c 0,116,117
 370 300 370 300 349 300 c 1,118,-1
 349 300 l 1,102,103
349 400 m 1,119,120
 328 400 328 400 314 415 c 0,121,122
 300 428 300 428 299 449 c 0,123,124
 300 470 300 470 314 484 c 0,125,126
 328 498 328 498 349 500 c 256,127,128
 370 500 370 500 384 484 c 256,129,130
 398 470 398 470 399 449 c 0,131,132
 399 428 399 428 384 415 c 256,133,134
 370 401 370 401 349 400 c 1,135,-1
 349 400 l 1,119,120
349 500 m 1,136,137
 328 500 328 500 314 514 c 0,138,139
 300 528 300 528 299 550 c 256,140,141
 300 571 300 571 314 585 c 0,142,143
 328 599 328 599 349 599 c 256,144,145
 370 599 370 599 384 585 c 0,146,147
 398 571 398 571 399 550 c 256,148,149
 399 529 399 529 384 514 c 256,150,151
 370 500 370 500 349 500 c 1,152,-1
 349 500 l 1,136,137
250 599 m 1,153,154
 229 599 229 599 214 614 c 0,155,156
 200 628 200 628 200 649 c 256,157,158
 200 670 200 670 214 684 c 256,159,160
 228 698 228 698 250 699 c 256,161,162
 271 699 271 699 285 684 c 0,163,164
 299 670 299 670 299 649 c 256,165,166
 299 628 299 628 285 614 c 0,167,168
 271 600 271 600 250 599 c 1,169,-1
 250 599 l 1,153,154
349 599 m 1,170,171
 328 599 328 599 314 614 c 0,172,173
 300 628 300 628 299 649 c 256,174,175
 300 670 300 670 314 684 c 0,176,177
 328 698 328 698 349 699 c 256,178,179
 370 699 370 699 384 684 c 256,180,181
 398 670 398 670 399 649 c 256,182,183
 399 628 399 628 384 614 c 0,184,185
 370 600 370 600 349 599 c 1,186,-1
 349 599 l 1,170,171
448 599 m 1,187,188
 427 599 427 599 414 614 c 0,189,190
 400 628 400 628 399 649 c 256,191,192
 399 670 399 670 414 684 c 256,193,194
 427 698 427 698 448 699 c 0,195,196
 469 699 469 699 484 684 c 256,197,198
 498 670 498 670 499 649 c 256,199,200
 499 628 499 628 484 614 c 0,201,202
 470 600 470 600 448 599 c 1,203,-1
 448 599 l 1,187,188
EndSplineSet
Validated: 5
EndChar

StartChar: K
Encoding: 75 75 43
Width: 600
VWidth: 629
Flags: W
LayerCount: 2
Fore
SplineSet
49 1 m 1,0,1
 28 1 28 1 14 15 c 128,-1,2
 0 29 0 29 0 50 c 256,3,4
 0 71 0 71 14 85.5 c 128,-1,5
 28 100 28 100 49 101 c 256,6,7
 70 101 70 101 85 85 c 256,8,9
 99 71 99 71 100 50 c 256,10,11
 100 29 100 29 85 15 c 0,12,13
 71 1 71 1 49 1 c 1,14,-1
 49 1 l 1,0,1
448 1 m 1,15,16
 427 1 427 1 414 15 c 0,17,18
 400 29 400 29 399 50 c 256,19,20
 399 71 399 71 414 85 c 256,21,22
 427 99 427 99 448 101 c 0,23,24
 469 101 469 101 484 85 c 256,25,26
 498 71 498 71 499 50 c 256,27,28
 499 29 499 29 484 15 c 0,29,30
 470 1 470 1 448 1 c 1,31,-1
 448 1 l 1,15,16
49 101 m 1,32,33
 28 101 28 101 14 116 c 0,34,35
 0 130 0 130 0 151 c 128,-1,36
 0 172 0 172 14 185 c 0,37,38
 28 199 28 199 49 200 c 256,39,40
 70 200 70 200 85 185 c 256,41,42
 99 172 99 172 100 151 c 0,43,44
 100 130 100 130 85 116 c 256,45,46
 71 102 71 102 49 101 c 1,47,-1
 49 101 l 1,32,33
399 101 m 1,48,49
 378 101 378 101 363 116 c 256,50,51
 349 130 349 130 349 154 c 0,52,53
 349 173 349 173 363 185 c 256,54,55
 377 199 377 199 399 200 c 256,56,57
 420 200 420 200 434 185 c 0,58,59
 448 172 448 172 448 151 c 128,-1,60
 448 130 448 130 434 116 c 128,-1,61
 420 102 420 102 399 101 c 1,62,-1
 399 101 l 1,48,49
49 200 m 1,63,64
 28 200 28 200 14 214.5 c 128,-1,65
 0 229 0 229 0 251 c 256,66,67
 0 272 0 272 14 286 c 128,-1,68
 28 300 28 300 49 300 c 256,69,70
 70 300 70 300 84.5 286 c 128,-1,71
 99 272 99 272 100 251 c 256,72,73
 100 230 100 230 85 215 c 256,74,75
 71 201 71 201 49 200 c 1,76,-1
 49 200 l 1,63,64
349 200 m 1,77,78
 328 200 328 200 313.5 214.5 c 128,-1,79
 299 229 299 229 299 251 c 256,80,81
 299 272 299 272 313.5 286 c 128,-1,82
 328 300 328 300 349 300 c 256,83,84
 370 300 370 300 384 286 c 128,-1,85
 398 272 398 272 399 251 c 256,86,87
 399 230 399 230 384 215 c 256,88,89
 370 201 370 201 349 200 c 1,90,-1
 349 200 l 1,77,78
49 300 m 1,91,92
 28 300 28 300 14 314.5 c 128,-1,93
 0 329 0 329 0 350 c 256,94,95
 0 371 0 371 14 385 c 128,-1,96
 28 399 28 399 49 400 c 256,97,98
 70 400 70 400 85 385 c 256,99,100
 99 371 99 371 100 350 c 256,101,102
 100 329 100 329 85 314 c 0,103,104
 71 300 71 300 49 300 c 1,105,-1
 49 300 l 1,91,92
150 300 m 1,106,107
 129 300 129 300 115 314.5 c 128,-1,108
 101 329 101 329 100 350 c 256,109,110
 100 371 100 371 115 385 c 256,111,112
 129 399 129 399 150 400 c 0,113,114
 171 400 171 400 184 385 c 256,115,116
 198 371 198 371 200 350 c 256,117,118
 200 329 200 329 184 314 c 0,119,120
 171 300 171 300 150 300 c 1,121,-1
 150 300 l 1,106,107
299 300 m 1,122,123
 278 300 278 300 264 314.5 c 128,-1,124
 250 329 250 329 250 350 c 256,125,126
 250 371 250 371 264 385 c 256,127,128
 278 399 278 399 299 400 c 0,129,130
 320 400 320 400 334 385 c 256,131,132
 348 371 348 371 349 350 c 256,133,134
 349 329 349 329 334.5 314.5 c 128,-1,135
 320 300 320 300 299 300 c 1,136,-1
 299 300 l 1,122,123
49 400 m 1,137,138
 28 400 28 400 14 415 c 0,139,140
 0 428 0 428 0 449 c 128,-1,141
 0 470 0 470 14 484.5 c 128,-1,142
 28 499 28 499 49 500 c 256,143,144
 70 500 70 500 85 484 c 256,145,146
 99 470 99 470 100 449 c 0,147,148
 100 428 100 428 85 415 c 256,149,150
 71 401 71 401 49 400 c 1,151,-1
 49 400 l 1,137,138
250 400 m 1,152,153
 229 400 229 400 214 415 c 256,154,155
 200 428 200 428 200 449 c 128,-1,156
 200 470 200 470 214 484 c 256,157,158
 228 498 228 498 250 500 c 256,159,160
 271 500 271 500 285 484 c 0,161,162
 299 470 299 470 299 449 c 128,-1,163
 299 428 299 428 285 415 c 0,164,165
 271 401 271 401 250 400 c 1,166,-1
 250 400 l 1,152,153
49 500 m 1,167,168
 28 500 28 500 14 514 c 128,-1,169
 0 528 0 528 0 550 c 256,170,171
 0 571 0 571 14 585 c 128,-1,172
 28 599 28 599 49 599 c 256,173,174
 70 599 70 599 84.5 585 c 128,-1,175
 99 571 99 571 100 550 c 256,176,177
 100 529 100 529 85 514 c 256,178,179
 71 500 71 500 49 500 c 1,180,-1
 49 500 l 1,167,168
349 500 m 1,181,182
 328 500 328 500 313.5 514 c 128,-1,183
 299 528 299 528 299 550 c 256,184,185
 299 571 299 571 313.5 585 c 128,-1,186
 328 599 328 599 349 599 c 256,187,188
 370 599 370 599 384 585 c 128,-1,189
 398 571 398 571 399 550 c 256,190,191
 399 529 399 529 384 514 c 256,192,193
 370 500 370 500 349 500 c 1,194,-1
 349 500 l 1,181,182
49 599 m 1,195,196
 28 599 28 599 14 613.5 c 128,-1,197
 0 628 0 628 0 649 c 256,198,199
 0 670 0 670 14 684 c 128,-1,200
 28 698 28 698 49 699 c 256,201,202
 70 699 70 699 85 684 c 256,203,204
 99 670 99 670 100 649 c 256,205,206
 100 628 100 628 85 614 c 0,207,208
 71 600 71 600 49 599 c 1,209,-1
 49 599 l 1,195,196
448 599 m 1,210,211
 427 599 427 599 414 614 c 0,212,213
 400 628 400 628 399 649 c 256,214,215
 399 670 399 670 414 684 c 256,216,217
 427 698 427 698 448 699 c 0,218,219
 469 699 469 699 484 684 c 256,220,221
 498 670 498 670 499 649 c 256,222,223
 499 628 499 628 484 614 c 0,224,225
 470 600 470 600 448 599 c 1,226,-1
 448 599 l 1,210,211
EndSplineSet
Validated: 5
EndChar

StartChar: L
Encoding: 76 76 44
Width: 600
VWidth: 629
Flags: W
LayerCount: 2
Fore
SplineSet
49 1 m 1,0,1
 28 1 28 1 14 15 c 0,2,3
 0 29 0 29 0 50 c 256,4,5
 0 71 0 71 14 85 c 0,6,7
 28 99 28 99 49 101 c 256,8,9
 70 101 70 101 85 85 c 256,10,11
 99 71 99 71 100 50 c 256,12,13
 100 29 100 29 85 15 c 0,14,15
 71 1 71 1 49 1 c 1,16,-1
 49 1 l 1,0,1
150 1 m 1,17,18
 129 1 129 1 115 15 c 0,19,20
 101 29 101 29 100 50 c 256,21,22
 100 71 100 71 115 85 c 256,23,24
 129 99 129 99 150 101 c 0,25,26
 171 101 171 101 184 85 c 256,27,28
 198 71 198 71 200 50 c 256,29,30
 200 29 200 29 184 15 c 0,31,32
 171 1 171 1 150 1 c 1,33,-1
 150 1 l 1,17,18
250 1 m 1,34,35
 229 1 229 1 214 15 c 0,36,37
 200 29 200 29 200 50 c 256,38,39
 200 71 200 71 214 85 c 256,40,41
 228 99 228 99 250 101 c 256,42,43
 271 101 271 101 285 85 c 0,44,45
 299 71 299 71 299 50 c 256,46,47
 299 29 299 29 285 15 c 0,48,49
 271 1 271 1 250 1 c 1,50,-1
 250 1 l 1,34,35
349 1 m 1,51,52
 328 1 328 1 314 15 c 0,53,54
 300 29 300 29 299 50 c 256,55,56
 300 71 300 71 314 85 c 0,57,58
 328 99 328 99 349 101 c 256,59,60
 370 101 370 101 384 85 c 256,61,62
 398 71 398 71 399 50 c 256,63,64
 399 29 399 29 384 15 c 0,65,66
 370 1 370 1 349 1 c 1,67,-1
 349 1 l 1,51,52
448 1 m 1,68,69
 427 1 427 1 414 15 c 0,70,71
 400 29 400 29 399 50 c 256,72,73
 399 71 399 71 414 85 c 256,74,75
 427 99 427 99 448 101 c 0,76,77
 469 101 469 101 484 85 c 256,78,79
 498 71 498 71 499 50 c 256,80,81
 499 29 499 29 484 15 c 0,82,83
 470 1 470 1 448 1 c 1,84,-1
 448 1 l 1,68,69
49 101 m 1,85,86
 28 101 28 101 14 116 c 0,87,88
 0 130 0 130 0 151 c 0,89,90
 0 172 0 172 14 185 c 0,91,92
 28 199 28 199 49 200 c 256,93,94
 70 200 70 200 85 185 c 256,95,96
 99 172 99 172 100 151 c 0,97,98
 100 130 100 130 85 116 c 256,99,100
 71 102 71 102 49 101 c 1,101,-1
 49 101 l 1,85,86
49 200 m 1,102,103
 28 200 28 200 14 215 c 0,104,105
 0 229 0 229 0 251 c 256,106,107
 0 272 0 272 14 286 c 0,108,109
 28 300 28 300 49 300 c 256,110,111
 70 300 70 300 85 286 c 0,112,113
 99 272 99 272 100 251 c 256,114,115
 100 230 100 230 85 215 c 256,116,117
 71 201 71 201 49 200 c 1,118,-1
 49 200 l 1,102,103
49 300 m 1,119,120
 28 300 28 300 14 314 c 0,121,122
 0 328 0 328 0 350 c 256,123,124
 0 371 0 371 14 385 c 0,125,126
 28 399 28 399 49 400 c 256,127,128
 70 400 70 400 85 385 c 256,129,130
 99 371 99 371 100 350 c 256,131,132
 100 329 100 329 85 314 c 0,133,134
 71 300 71 300 49 300 c 1,135,-1
 49 300 l 1,119,120
49 400 m 1,136,137
 28 400 28 400 14 415 c 0,138,139
 0 428 0 428 0 449 c 0,140,141
 0 470 0 470 14 484 c 0,142,143
 28 498 28 498 49 500 c 256,144,145
 70 500 70 500 85 484 c 256,146,147
 99 470 99 470 100 449 c 0,148,149
 100 428 100 428 85 415 c 256,150,151
 71 401 71 401 49 400 c 1,152,-1
 49 400 l 1,136,137
49 500 m 1,153,154
 28 500 28 500 14 514 c 0,155,156
 0 528 0 528 0 550 c 256,157,158
 0 571 0 571 14 585 c 0,159,160
 28 599 28 599 49 599 c 256,161,162
 70 599 70 599 85 585 c 0,163,164
 99 571 99 571 100 550 c 256,165,166
 100 529 100 529 85 514 c 256,167,168
 71 500 71 500 49 500 c 1,169,-1
 49 500 l 1,153,154
49 599 m 1,170,171
 28 599 28 599 14 614 c 0,172,173
 0 628 0 628 0 649 c 256,174,175
 0 670 0 670 14 684 c 0,176,177
 28 698 28 698 49 699 c 256,178,179
 70 699 70 699 85 684 c 256,180,181
 99 670 99 670 100 649 c 256,182,183
 100 628 100 628 85 614 c 0,184,185
 71 600 71 600 49 599 c 1,186,-1
 49 599 l 1,170,171
EndSplineSet
Validated: 5
EndChar

StartChar: M
Encoding: 77 77 45
Width: 600
VWidth: 629
Flags: W
LayerCount: 2
Fore
SplineSet
49 1 m 1,0,1
 28 1 28 1 14 15.5 c 128,-1,2
 0 30 0 30 0 50 c 256,3,4
 0 71 0 71 14.5 85.5 c 128,-1,5
 29 100 29 100 49 101 c 256,6,7
 70 101 70 101 85 85 c 256,8,9
 99 71 99 71 100 50 c 256,10,11
 100 29 100 29 85 15 c 0,12,13
 71 1 71 1 49 1 c 1,14,-1
 49 1 l 1,0,1
448 1 m 1,15,16
 427 1 427 1 413 15.5 c 128,-1,17
 399 30 399 30 399 50 c 256,18,19
 399 71 399 71 414 85 c 256,20,21
 427 99 427 99 448 101 c 0,22,23
 469 101 469 101 484 85 c 256,24,25
 498 71 498 71 499 50 c 256,26,27
 499 29 499 29 484 15 c 128,-1,28
 469 1 469 1 448 1 c 1,29,-1
 448 1 l 1,15,16
49 101 m 1,30,31
 28 101 28 101 14 115.5 c 128,-1,32
 0 130 0 130 0 150.5 c 128,-1,33
 0 171 0 171 14.5 185.5 c 128,-1,34
 29 200 29 200 49 200 c 256,35,36
 70 200 70 200 85 185 c 256,37,38
 99 172 99 172 100 151 c 0,39,40
 100 130 100 130 85 116 c 256,41,42
 71 102 71 102 49 101 c 1,43,-1
 49 101 l 1,30,31
448 101 m 1,44,45
 427 101 427 101 414 116 c 256,46,47
 399 131 399 131 399 152 c 0,48,49
 399 172 399 172 414 185 c 256,50,51
 427 200 427 200 448 200 c 0,52,53
 449 200 449 200 450 200 c 0,54,55
 470 200 470 200 484 185 c 256,56,57
 499 170 499 170 499 149 c 0,58,59
 499 129 499 129 484 116 c 256,60,61
 470 102 470 102 448 101 c 1,62,-1
 448 101 l 1,44,45
49 200 m 1,63,64
 28 200 28 200 14 214.5 c 128,-1,65
 0 229 0 229 0 251 c 256,66,67
 0 272 0 272 14.5 286 c 128,-1,68
 29 300 29 300 49 300 c 256,69,70
 70 300 70 300 84.5 285.5 c 128,-1,71
 99 271 99 271 100 251 c 256,72,73
 100 230 100 230 85 215 c 256,74,75
 71 201 71 201 49 200 c 1,76,-1
 49 200 l 1,63,64
448 200 m 1,77,78
 427 200 427 200 414 215 c 256,79,80
 400 229 400 229 399 251 c 256,81,82
 399 272 399 272 413.5 286 c 128,-1,83
 428 300 428 300 448.5 300 c 128,-1,84
 469 300 469 300 484 285.5 c 128,-1,85
 499 271 499 271 499 251 c 256,86,87
 499 230 499 230 484 215 c 256,88,89
 470 201 470 201 448 200 c 1,90,-1
 448 200 l 1,77,78
49 300 m 1,91,92
 28 300 28 300 14 315 c 128,-1,93
 0 330 0 330 0 350 c 256,94,95
 0 371 0 371 14.5 385 c 128,-1,96
 29 399 29 399 49 400 c 256,97,98
 70 400 70 400 85 385 c 256,99,100
 99 371 99 371 100 350 c 256,101,102
 100 329 100 329 85 314 c 0,103,104
 71 300 71 300 49 300 c 1,105,-1
 49 300 l 1,91,92
250 300 m 1,106,107
 229 300 229 300 214 314 c 0,108,109
 200 328 200 328 200 350 c 256,110,111
 200 371 200 371 214 385 c 256,112,113
 228 399 228 399 250 400 c 256,114,115
 271 400 271 400 285 385 c 0,116,117
 299 371 299 371 299 350 c 256,118,119
 299 329 299 329 284.5 314.5 c 128,-1,120
 270 300 270 300 250 300 c 1,121,-1
 250 300 l 1,106,107
448 300 m 1,122,123
 427 300 427 300 413 315 c 128,-1,124
 399 330 399 330 399 350 c 256,125,126
 399 371 399 371 414 385 c 256,127,128
 427 399 427 399 448 400 c 0,129,130
 469 400 469 400 484 385 c 256,131,132
 498 371 498 371 499 350 c 256,133,134
 499 329 499 329 484 314.5 c 128,-1,135
 469 300 469 300 448 300 c 1,136,-1
 448 300 l 1,122,123
49 400 m 1,137,138
 28 400 28 400 14 414.5 c 128,-1,139
 0 429 0 429 0 449.5 c 128,-1,140
 0 470 0 470 14.5 485 c 128,-1,141
 29 500 29 500 49 500 c 256,142,143
 70 500 70 500 85 484 c 256,144,145
 99 470 99 470 100 449 c 0,146,147
 100 428 100 428 85 415 c 256,148,149
 71 401 71 401 49 400 c 1,150,-1
 49 400 l 1,137,138
200 400 m 1,151,152
 179 400 179 400 164.5 414.5 c 128,-1,153
 150 429 150 429 150 449.5 c 128,-1,154
 150 470 150 470 164 485 c 0,155,156
 180 500 180 500 200 500 c 256,157,158
 221 500 221 500 235 484 c 256,159,160
 249 470 249 470 250 449 c 0,161,162
 250 428 250 428 235 415 c 256,163,164
 222 401 222 401 200 400 c 1,165,-1
 200 400 l 1,151,152
299 400 m 1,166,167
 278 400 278 400 264 415 c 256,168,169
 250 429 250 429 250 449.5 c 128,-1,170
 250 470 250 470 264 484 c 256,171,172
 278 498 278 498 299 499 c 0,173,174
 300 499 300 499 300 500 c 0,175,176
 320 500 320 500 334 484 c 256,177,178
 348.516129032 469.483870968 348.516129032 469.483870968 348.516129032 448.184183143 c 0,179,180
 348.516129032 428.548387097 348.516129032 428.548387097 334 415 c 256,181,182
 320 401 320 401 299 400 c 1,183,-1
 299 400 l 1,166,167
448 400 m 1,184,185
 427 400 427 400 414 415 c 256,186,187
 399 430 399 430 399 451 c 0,188,189
 399 471 399 471 414 484 c 256,190,191
 427 498 427 498 448 499 c 0,192,193
 449 499 449 499 450 500 c 0,194,195
 470 500 470 500 484 484 c 256,196,197
 499 469 499 469 499 448 c 0,198,199
 499 428 499 428 484 415 c 256,200,201
 470 401 470 401 448 400 c 1,202,-1
 448 400 l 1,184,185
49 500 m 1,203,204
 28 500 28 500 14 514 c 128,-1,205
 0 528 0 528 0 550 c 256,206,207
 0 571 0 571 14.5 585 c 128,-1,208
 29 599 29 599 49 599 c 256,209,210
 70 599 70 599 84.5 584.5 c 128,-1,211
 99 570 99 570 100 550 c 256,212,213
 100 529 100 529 85 514 c 256,214,215
 71 500 71 500 49 500 c 1,216,-1
 49 500 l 1,203,204
150 500 m 1,217,218
 129 500 129 500 115 514 c 256,219,220
 101 528 101 528 100 550 c 256,221,222
 100 571 100 571 114.5 585 c 128,-1,223
 129 599 129 599 149.5 599 c 128,-1,224
 170 599 170 599 185 584.5 c 128,-1,225
 200 570 200 570 200 550 c 256,226,227
 200 529 200 529 184 514 c 256,228,229
 171 500 171 500 150 500 c 1,230,-1
 150 500 l 1,217,218
349 500 m 1,231,232
 328 500 328 500 313.5 514 c 128,-1,233
 299 528 299 528 299 550 c 256,234,235
 299 571 299 571 314 585 c 128,-1,236
 329 599 329 599 349 599 c 256,237,238
 370 599 370 599 384 584.5 c 128,-1,239
 398 570 398 570 399 550 c 256,240,241
 399 529 399 529 384 514 c 256,242,243
 370 500 370 500 349 500 c 1,244,-1
 349 500 l 1,231,232
448 500 m 1,245,246
 427 500 427 500 414 514 c 256,247,248
 400 528 400 528 399 550 c 256,249,250
 399 571 399 571 413.5 585 c 128,-1,251
 428 599 428 599 448.5 599 c 128,-1,252
 469 599 469 599 484 584.5 c 128,-1,253
 499 570 499 570 499 550 c 256,254,255
 499 529 499 529 484 514 c 256,256,257
 470 500 470 500 448 500 c 1,258,-1
 448 500 l 1,245,246
49 599 m 1,259,260
 28 599 28 599 14 614 c 128,-1,261
 0 629 0 629 0 649 c 256,262,263
 0 670 0 670 14.5 684 c 128,-1,264
 29 698 29 698 49 699 c 256,265,266
 70 699 70 699 85 684 c 256,267,268
 99 670 99 670 100 649 c 256,269,270
 100 628 100 628 85 614 c 0,271,272
 71 600 71 600 49 599 c 1,273,-1
 49 599 l 1,259,260
448 599 m 1,274,275
 427 599 427 599 413 614 c 128,-1,276
 399 629 399 629 399 649 c 256,277,278
 399 670 399 670 414 684 c 256,279,280
 427 698 427 698 448 699 c 0,281,282
 469 699 469 699 484 684 c 256,283,284
 498 670 498 670 499 649 c 256,285,286
 499 628 499 628 484 613.5 c 128,-1,287
 469 599 469 599 448 599 c 1,288,-1
 448 599 l 1,274,275
EndSplineSet
Validated: 5
EndChar

